<svg width="219" height="107" viewBox="0 0 219 107" fill="none" xmlns="http://www.w3.org/2000/svg">
<path d="M215.387 68.96C215.387 73.48 211.723 77.1333 207.207 77.1333C202.695 77.1333 199.033 73.48 199.033 68.96V38.2933C199.033 33.7867 202.695 30.12 207.207 30.12C211.723 30.12 215.387 33.7867 215.387 38.2933V68.96Z" fill="#D2EAAC"/>
<path d="M215.387 68.96C215.387 73.48 211.723 77.1333 207.207 77.1333C202.695 77.1333 199.033 73.48 199.033 68.96V38.2933C199.033 33.7867 202.695 30.12 207.207 30.12C211.723 30.12 215.387 33.7867 215.387 38.2933V68.96Z" stroke="#1B1F06" stroke-width="5.82208" stroke-miterlimit="10" stroke-linecap="round" stroke-linejoin="round"/>
<path d="M202.763 15.9733V91.2799C202.763 98.0933 197.249 103.613 190.437 103.613H15.5186C8.70792 103.613 3.19458 98.0933 3.19458 91.2799V15.9733C3.19458 9.1733 8.70792 3.65338 15.5186 3.65338H190.437C197.249 3.65338 202.763 9.1733 202.763 15.9733Z" fill="white"/>
<path d="M202.763 15.9733V91.2799C202.763 98.0933 197.249 103.613 190.437 103.613H15.5186C8.70792 103.613 3.19458 98.0933 3.19458 91.2799V15.9733C3.19458 9.1733 8.70792 3.65338 15.5186 3.65338H190.437C197.249 3.65338 202.763 9.1733 202.763 15.9733Z" stroke="#1B1F06" stroke-width="5.82208" stroke-miterlimit="10" stroke-linecap="round" stroke-linejoin="round"/>
<path d="M72.1839 103.613H32.1146L3.19458 74.6934V34.6133L72.1839 103.613Z" fill="#D2EAAC"/>
<path d="M72.1839 103.613H32.1146L3.19458 74.6934V34.6133L72.1839 103.613Z" stroke="#1B1F06" stroke-width="5.82208" stroke-miterlimit="10" stroke-linecap="round" stroke-linejoin="round"/>
<path d="M128.652 103.613H88.5759L3.19458 18.2267V15.9733C3.19458 9.1733 8.70792 3.65338 15.5186 3.65338H28.6986L128.652 103.613Z" fill="#D2EAAC"/>
<path d="M128.652 103.613H88.5759L3.19458 18.2267V15.9733C3.19458 9.1733 8.70792 3.65338 15.5186 3.65338H28.6986L128.652 103.613Z" stroke="#1B1F06" stroke-width="5.82208" stroke-miterlimit="10" stroke-linecap="round" stroke-linejoin="round"/>
<path d="M185.795 100.853L183.044 103.613H148.476L48.52 3.65338H88.584L185.795 100.853Z" fill="#D2EAAC"/>
<path d="M185.795 100.853L183.044 103.613H148.476L48.52 3.65338H88.584L185.795 100.853Z" stroke="#1B1F06" stroke-width="5.82208" stroke-miterlimit="10" stroke-linecap="round" stroke-linejoin="round"/>
</svg>
