<svg width="219" height="156" viewBox="0 0 219 156" fill="none" xmlns="http://www.w3.org/2000/svg">
<path d="M184.251 152.783H47.5V42.6093H184.251V152.783Z" fill="white"/>
<path d="M184.251 152.783H47.5V42.6093H184.251V152.783Z" stroke="#1B1F06" stroke-width="5.82208" stroke-miterlimit="10" stroke-linecap="round" stroke-linejoin="round"/>
<path d="M47.5 42.6093L3 2.99995Z" fill="white"/>
<path d="M47.5 42.6093L3 2.99995" stroke="#1B1F06" stroke-width="5.82208" stroke-miterlimit="10" stroke-linecap="round" stroke-linejoin="round"/>
<path d="M184.251 42.6093L215.198 2.99995Z" fill="white"/>
<path d="M184.251 42.6093L215.198 2.99995" stroke="#1B1F06" stroke-width="5.82208" stroke-miterlimit="10" stroke-linecap="round" stroke-linejoin="round"/>
<path d="M175.211 67.7826H144.917V56.3826H175.211V67.7826Z" fill="#D2EAAC"/>
<path d="M175.211 67.7826H144.917V56.3826H175.211V67.7826Z" stroke="#1B1F06" stroke-width="5.82208" stroke-miterlimit="10" stroke-linecap="round" stroke-linejoin="round"/>
<path d="M129.611 79.4893L119.838 61.8226C119.691 60.6226 119.211 60.6893 118.131 59.9559C116.158 58.5959 113.451 59.1026 112.078 61.0893L100.478 78.0359C99.1176 80.0226 99.6243 82.7293 101.598 84.0893C103.584 85.4359 106.291 84.9426 107.651 82.9559L115.024 72.196L121.904 83.996L116.451 87.1826L134.704 95.6759L136.251 75.6092L129.611 79.4893Z" fill="#1B1F06"/>
<path d="M149.598 119.809L139.504 101.903C138.331 99.8094 135.678 99.0761 133.585 100.249C131.491 101.436 130.758 104.076 131.931 106.183L137.971 116.889L125.278 116.756L125.331 110.449L108.678 121.743L125.104 133.369L125.185 125.689L143.958 125.876C145.184 126.449 146.664 126.449 147.944 125.729C150.038 124.556 150.784 121.903 149.598 119.809Z" fill="#1B1F06"/>
<path d="M99.291 117.556H88.1976L95.5043 108.289L100.464 112.196L101.704 92.1027L82.451 98.0093L88.491 102.756L76.091 117.569C75.2376 118.609 74.3843 120.463 74.3976 121.916C74.3976 124.316 76.3442 126.263 78.7442 126.263L99.291 126.249C101.704 126.249 103.638 124.303 103.638 121.903C103.638 119.503 101.691 117.556 99.291 117.556Z" fill="#1B1F06"/>
<path d="M184.251 139.369H47.5V152.783H184.251V139.369Z" fill="#D2EAAC"/>
<path d="M184.251 139.369H47.5V152.783H184.251V139.369Z" stroke="#1B1F06" stroke-width="5.82208" stroke-miterlimit="10" stroke-linecap="round" stroke-linejoin="round"/>
</svg>
