<svg width="536" height="135" viewBox="0 0 536 135" fill="none" xmlns="http://www.w3.org/2000/svg">
<g opacity="0.15">
<mask id="path-1-outside-1_11_3616" maskUnits="userSpaceOnUse" x="-2" y="-2" width="542" height="139" fill="black">
<rect fill="white" x="-2" y="-2" width="542" height="139"/>
<path d="M0.798666 51.8546V34.7233H81.5122V51.8546H51.4246V133H30.8863V51.8546H0.798666ZM99.7352 133H77.4693L111.396 34.7233H138.172L172.051 133H149.785L125.168 57.1811H124.4L99.7352 133ZM98.3435 94.3707H150.937V110.59H98.3435V94.3707ZM117.442 25.222L127.615 3.38803H146.522L131.886 25.222H117.442ZM204.658 34.7233V133H183.88V34.7233H204.658ZM339.74 69.1298H318.722C318.338 66.4105 317.555 63.9952 316.371 61.8838C315.187 59.7404 313.668 57.9169 311.812 56.4133C309.957 54.9097 307.813 53.758 305.382 52.9583C302.983 52.1585 300.375 51.7586 297.56 51.7586C292.474 51.7586 288.043 53.0222 284.268 55.5495C280.493 58.0448 277.566 61.6918 275.486 66.4905C273.407 71.2572 272.367 77.0476 272.367 83.8617C272.367 90.8677 273.407 96.7541 275.486 101.521C277.598 106.287 280.541 109.886 284.316 112.318C288.091 114.749 292.458 115.965 297.416 115.965C300.199 115.965 302.775 115.597 305.142 114.861C307.541 114.125 309.669 113.054 311.524 111.646C313.38 110.206 314.915 108.463 316.131 106.415C317.379 104.368 318.242 102.033 318.722 99.4093L339.74 99.5053C339.197 104.016 337.837 108.367 335.662 112.558C333.518 116.717 330.623 120.443 326.976 123.739C323.361 127.002 319.042 129.593 314.02 131.512C309.029 133.4 303.383 134.344 297.08 134.344C288.315 134.344 280.477 132.36 273.567 128.393C266.689 124.426 261.25 118.684 257.251 111.166C253.284 103.648 251.301 94.5467 251.301 83.8617C251.301 73.1446 253.316 64.0272 257.347 56.5093C261.378 48.9914 266.849 43.2649 273.759 39.33C280.669 35.3631 288.443 33.3797 297.08 33.3797C302.775 33.3797 308.053 34.1795 312.916 35.779C317.811 37.3786 322.145 39.7139 325.92 42.7851C329.695 45.8242 332.766 49.5512 335.134 53.966C337.533 58.3807 339.069 63.4353 339.74 69.1298ZM354.64 133V34.7233H375.419V75.272H417.599V34.7233H438.329V133H417.599V92.4033H375.419V133H354.64ZM455.46 133V34.7233H521.682V51.8546H476.238V75.272H518.275V92.4033H476.238V115.869H521.874V133H455.46ZM463.762 26.6616L483.101 11.7377H494.138L513.572 26.6616H498.84L488.715 18.5998L478.446 26.6616H463.762ZM508.534 18.2159L519.762 0.220913H535.598L520.098 18.2159H508.534Z"/>
</mask>
<path d="M0.798666 51.8546H-1.02742V53.6806H0.798666V51.8546ZM0.798666 34.7233V32.8972H-1.02742V34.7233H0.798666ZM81.5122 34.7233H83.3383V32.8972H81.5122V34.7233ZM81.5122 51.8546V53.6806H83.3383V51.8546H81.5122ZM51.4246 51.8546V50.0285H49.5985V51.8546H51.4246ZM51.4246 133V134.826H53.2507V133H51.4246ZM30.8863 133H29.0602V134.826H30.8863V133ZM30.8863 51.8546H32.7124V50.0285H30.8863V51.8546ZM2.62475 51.8546V34.7233H-1.02742V51.8546H2.62475ZM0.798666 36.5494H81.5122V32.8972H0.798666V36.5494ZM79.6861 34.7233V51.8546H83.3383V34.7233H79.6861ZM81.5122 50.0285H51.4246V53.6806H81.5122V50.0285ZM49.5985 51.8546V133H53.2507V51.8546H49.5985ZM51.4246 131.174H30.8863V134.826H51.4246V131.174ZM32.7124 133V51.8546H29.0602V133H32.7124ZM30.8863 50.0285H0.798666V53.6806H30.8863V50.0285ZM99.7352 133V134.826H101.061L101.472 133.565L99.7352 133ZM77.4693 133L75.7432 132.404L74.9071 134.826H77.4693V133ZM111.396 34.7233V32.8972H110.094L109.67 34.1274L111.396 34.7233ZM138.172 34.7233L139.899 34.1282L139.475 32.8972H138.172V34.7233ZM172.051 133V134.826H174.612L173.777 132.405L172.051 133ZM149.785 133L148.048 133.564L148.458 134.826H149.785V133ZM125.168 57.1811L126.905 56.6172L126.495 55.355H125.168V57.1811ZM124.4 57.1811V55.355H123.074L122.664 56.6162L124.4 57.1811ZM98.3435 94.3707V92.5446H96.5175V94.3707H98.3435ZM150.937 94.3707H152.763V92.5446H150.937V94.3707ZM150.937 110.59V112.416H152.763V110.59H150.937ZM98.3435 110.59H96.5175V112.416H98.3435V110.59ZM117.442 25.222L115.787 24.4507L114.577 27.048H117.442V25.222ZM127.615 3.38803V1.56195H126.452L125.96 2.6168L127.615 3.38803ZM146.522 3.38803L148.039 4.40481L149.945 1.56195H146.522V3.38803ZM131.886 25.222V27.048H132.861L133.403 26.2387L131.886 25.222ZM99.7352 131.174H77.4693V134.826H99.7352V131.174ZM79.1955 133.596L113.122 35.3192L109.67 34.1274L75.7432 132.404L79.1955 133.596ZM111.396 36.5494H138.172V32.8972H111.396V36.5494ZM136.446 35.3185L170.325 133.595L173.777 132.405L139.899 34.1282L136.446 35.3185ZM172.051 131.174H149.785V134.826H172.051V131.174ZM151.522 132.436L126.905 56.6172L123.431 57.745L148.048 133.564L151.522 132.436ZM125.168 55.355H124.4V59.0072H125.168V55.355ZM122.664 56.6162L97.9986 132.435L101.472 133.565L126.137 57.746L122.664 56.6162ZM98.3435 96.1968H150.937V92.5446H98.3435V96.1968ZM149.111 94.3707V110.59H152.763V94.3707H149.111ZM150.937 108.764H98.3435V112.416H150.937V108.764ZM100.17 110.59V94.3707H96.5175V110.59H100.17ZM119.097 25.9932L129.271 4.15926L125.96 2.6168L115.787 24.4507L119.097 25.9932ZM127.615 5.21412H146.522V1.56195H127.615V5.21412ZM145.005 2.37126L130.369 24.2052L133.403 26.2387L148.039 4.40481L145.005 2.37126ZM131.886 23.3959H117.442V27.048H131.886V23.3959ZM204.658 34.7233H206.484V32.8972H204.658V34.7233ZM204.658 133V134.826H206.484V133H204.658ZM183.88 133H182.054V134.826H183.88V133ZM183.88 34.7233V32.8972H182.054V34.7233H183.88ZM202.832 34.7233V133H206.484V34.7233H202.832ZM204.658 131.174H183.88V134.826H204.658V131.174ZM185.706 133V34.7233H182.054V133H185.706ZM183.88 36.5494H204.658V32.8972H183.88V36.5494ZM339.74 69.1298V70.9558H341.795L341.554 68.9158L339.74 69.1298ZM318.722 69.1298L316.914 69.385L317.136 70.9558H318.722V69.1298ZM316.371 61.8838L314.772 62.7666L314.778 62.7767L316.371 61.8838ZM311.812 56.4133L310.663 57.832V57.832L311.812 56.4133ZM305.382 52.9583L304.805 54.6906L304.811 54.6929L305.382 52.9583ZM284.268 55.5495L285.275 57.0729L285.284 57.0669L284.268 55.5495ZM275.486 66.4905L277.16 67.2207L277.162 67.2166L275.486 66.4905ZM275.486 101.521L273.813 102.251L273.817 102.26L275.486 101.521ZM284.316 112.318L283.327 113.853L284.316 112.318ZM305.142 114.861L304.607 113.115L304.6 113.117L305.142 114.861ZM311.524 111.646L312.628 113.101L312.636 113.095L312.644 113.089L311.524 111.646ZM316.131 106.415L314.572 105.465L314.566 105.474L314.561 105.483L316.131 106.415ZM318.722 99.4093L318.731 97.5833L317.201 97.5763L316.926 99.0807L318.722 99.4093ZM339.74 99.5053L341.553 99.7239L341.799 97.6886L339.749 97.6792L339.74 99.5053ZM335.662 112.558L334.041 111.716L334.038 111.721L335.662 112.558ZM326.976 123.739L328.2 125.094L328.2 125.094L326.976 123.739ZM314.02 131.512L314.666 133.22L314.671 133.218L314.02 131.512ZM273.567 128.393L272.655 129.975L272.658 129.977L273.567 128.393ZM257.251 111.166L255.636 112.018L255.639 112.024L257.251 111.166ZM257.347 56.5093L258.957 57.3722L257.347 56.5093ZM273.759 39.33L274.662 40.9169L274.668 40.9137L273.759 39.33ZM312.916 35.779L312.345 37.5137L312.349 37.5148L312.916 35.779ZM325.92 42.7851L324.768 44.2016L324.775 44.2075L325.92 42.7851ZM335.134 53.966L333.524 54.8289L333.529 54.8379L335.134 53.966ZM339.74 67.3037H318.722V70.9558H339.74V67.3037ZM320.53 68.8745C320.119 65.9611 319.272 63.3243 317.964 60.9908L314.778 62.7767C315.837 64.666 316.558 66.8599 316.914 69.385L320.53 68.8745ZM317.969 61.001C316.675 58.657 315.005 56.65 312.962 54.9945L310.663 57.832C312.331 59.1838 313.7 60.8237 314.772 62.7665L317.969 61.001ZM312.962 54.9945C310.922 53.3416 308.579 52.0877 305.953 51.2236L304.811 54.6929C307.047 55.4284 308.991 56.4778 310.663 57.832L312.962 54.9945ZM305.959 51.2259C303.354 50.3574 300.55 49.9325 297.56 49.9325V53.5847C300.201 53.5847 302.611 53.9595 304.805 54.6906L305.959 51.2259ZM297.56 49.9325C292.157 49.9325 287.363 51.28 283.252 54.0321L285.284 57.0669C288.723 54.7645 292.79 53.5847 297.56 53.5847V49.9325ZM283.261 54.0262C279.147 56.7458 276.009 60.6926 273.811 65.7644L277.162 67.2166C279.123 62.691 281.839 59.3439 285.275 57.0729L283.261 54.0262ZM273.813 65.7603C271.607 70.8169 270.541 76.8706 270.541 83.8617H274.193C274.193 77.2245 275.207 71.6974 277.16 67.2206L273.813 65.7603ZM270.541 83.8617C270.541 91.0366 271.604 97.1888 273.813 102.251L277.16 100.791C275.21 96.3193 274.193 90.6988 274.193 83.8617H270.541ZM273.817 102.26C276.049 107.299 279.206 111.199 283.327 113.853L285.305 110.783C281.875 108.574 279.147 105.276 277.156 100.781L273.817 102.26ZM283.327 113.853C287.427 116.494 292.145 117.791 297.416 117.791V114.139C292.77 114.139 288.754 113.004 285.305 110.783L283.327 113.853ZM297.416 117.791C300.361 117.791 303.121 117.401 305.684 116.605L304.6 113.117C302.428 113.792 300.038 114.139 297.416 114.139V117.791ZM305.677 116.607C308.266 115.813 310.589 114.648 312.628 113.101L310.421 110.191C308.749 111.459 306.817 112.437 304.607 113.115L305.677 116.607ZM312.644 113.089C314.683 111.507 316.37 109.589 317.701 107.348L314.561 105.483C313.46 107.336 312.077 108.906 310.405 110.203L312.644 113.089ZM317.69 107.366C319.067 105.107 320.003 102.557 320.519 99.7379L316.926 99.0807C316.482 101.509 315.691 103.629 314.572 105.465L317.69 107.366ZM318.714 101.235L339.732 101.331L339.749 97.6792L318.731 97.5833L318.714 101.235ZM337.927 99.2867C337.411 103.572 336.119 107.712 334.041 111.716L337.282 113.399C339.555 109.022 340.982 104.461 341.553 99.7239L337.927 99.2867ZM334.038 111.721C332.001 115.675 329.244 119.228 325.752 122.384L328.2 125.094C332.002 121.659 335.036 117.758 337.285 113.394L334.038 111.721ZM325.752 122.383C322.321 125.48 318.202 127.959 313.368 129.807L314.671 133.218C319.883 131.227 324.401 128.523 328.2 125.094L325.752 122.383ZM313.374 129.804C308.623 131.601 303.201 132.518 297.08 132.518V136.17C303.564 136.17 309.435 135.199 314.666 133.22L313.374 129.804ZM297.08 132.518C288.601 132.518 281.082 130.602 274.476 126.81L272.658 129.977C279.872 134.118 288.029 136.17 297.08 136.17V132.518ZM274.479 126.811C267.919 123.028 262.714 117.547 258.864 110.309L255.639 112.024C259.787 119.821 265.458 125.825 272.655 129.975L274.479 126.811ZM258.866 110.314C255.069 103.118 253.127 94.3244 253.127 83.8617H249.475C249.475 94.769 251.5 104.179 255.636 112.018L258.866 110.314ZM253.127 83.8617C253.127 73.3701 255.1 64.5652 258.957 57.3722L255.738 55.6464C251.533 63.4892 249.475 72.9192 249.475 83.8617H253.127ZM258.957 57.3722C262.837 50.1342 268.073 44.6692 274.662 40.9169L272.855 37.7432C265.625 41.8606 259.919 47.8485 255.738 55.6464L258.957 57.3722ZM274.668 40.9137C281.278 37.1189 288.734 35.2058 297.08 35.2058V31.5536C288.151 31.5536 280.059 33.6074 272.85 37.7464L274.668 40.9137ZM297.08 35.2058C302.602 35.2058 307.686 35.9811 312.345 37.5137L313.487 34.0444C308.42 32.3779 302.947 31.5536 297.08 31.5536V35.2058ZM312.349 37.5148C317.043 39.0488 321.177 41.2799 324.768 44.2016L327.073 41.3686C323.114 38.1479 318.578 35.7083 313.483 34.0433L312.349 37.5148ZM324.775 44.2075C328.353 47.0879 331.269 50.6224 333.524 54.8289L336.743 53.103C334.264 48.48 331.037 44.5605 327.065 41.3627L324.775 44.2075ZM333.529 54.8379C335.803 59.0219 337.279 63.8477 337.927 69.3437L341.554 68.9158C340.859 63.023 339.263 57.7396 336.738 53.094L333.529 54.8379ZM354.64 133H352.814V134.826H354.64V133ZM354.64 34.7233V32.8972H352.814V34.7233H354.64ZM375.419 34.7233H377.245V32.8972H375.419V34.7233ZM375.419 75.272H373.592V77.0981H375.419V75.272ZM417.599 75.272V77.0981H419.425V75.272H417.599ZM417.599 34.7233V32.8972H415.773V34.7233H417.599ZM438.329 34.7233H440.155V32.8972H438.329V34.7233ZM438.329 133V134.826H440.155V133H438.329ZM417.599 133H415.773V134.826H417.599V133ZM417.599 92.4033H419.425V90.5772H417.599V92.4033ZM375.419 92.4033V90.5772H373.592V92.4033H375.419ZM375.419 133V134.826H377.245V133H375.419ZM356.466 133V34.7233H352.814V133H356.466ZM354.64 36.5494H375.419V32.8972H354.64V36.5494ZM373.592 34.7233V75.272H377.245V34.7233H373.592ZM375.419 77.0981H417.599V73.446H375.419V77.0981ZM419.425 75.272V34.7233H415.773V75.272H419.425ZM417.599 36.5494H438.329V32.8972H417.599V36.5494ZM436.503 34.7233V133H440.155V34.7233H436.503ZM438.329 131.174H417.599V134.826H438.329V131.174ZM419.425 133V92.4033H415.773V133H419.425ZM417.599 90.5772H375.419V94.2294H417.599V90.5772ZM373.592 92.4033V133H377.245V92.4033H373.592ZM375.419 131.174H354.64V134.826H375.419V131.174ZM455.46 133H453.634V134.826H455.46V133ZM455.46 34.7233V32.8972H453.634V34.7233H455.46ZM521.682 34.7233H523.508V32.8972H521.682V34.7233ZM521.682 51.8546V53.6806H523.508V51.8546H521.682ZM476.238 51.8546V50.0285H474.412V51.8546H476.238ZM476.238 75.272H474.412V77.0981H476.238V75.272ZM518.275 75.272H520.101V73.446H518.275V75.272ZM518.275 92.4033V94.2294H520.101V92.4033H518.275ZM476.238 92.4033V90.5772H474.412V92.4033H476.238ZM476.238 115.869H474.412V117.695H476.238V115.869ZM521.874 115.869H523.7V114.043H521.874V115.869ZM521.874 133V134.826H523.7V133H521.874ZM463.762 26.6616L462.646 25.2159L458.407 28.4877H463.762V26.6616ZM483.101 11.7377V9.91162H482.478L481.985 10.292L483.101 11.7377ZM494.138 11.7377L495.25 10.2894L494.758 9.91162H494.138V11.7377ZM513.572 26.6616V28.4877H518.948L514.684 25.2132L513.572 26.6616ZM498.84 26.6616L497.703 28.0901L498.202 28.4877H498.84V26.6616ZM488.715 18.5998L489.852 17.1712L488.723 16.272L487.587 17.1635L488.715 18.5998ZM478.446 26.6616V28.4877H479.077L479.573 28.0979L478.446 26.6616ZM508.534 18.2159L506.984 17.2492L505.242 20.042H508.534V18.2159ZM519.762 0.220913V-1.60517H518.749L518.213 -0.745797L519.762 0.220913ZM535.598 0.220913L536.982 1.41265L539.581 -1.60517H535.598V0.220913ZM520.098 18.2159V20.042H520.935L521.482 19.4076L520.098 18.2159ZM457.286 133V34.7233H453.634V133H457.286ZM455.46 36.5494H521.682V32.8972H455.46V36.5494ZM519.856 34.7233V51.8546H523.508V34.7233H519.856ZM521.682 50.0285H476.238V53.6806H521.682V50.0285ZM474.412 51.8546V75.272H478.065V51.8546H474.412ZM476.238 77.0981H518.275V73.446H476.238V77.0981ZM516.449 75.272V92.4033H520.101V75.272H516.449ZM518.275 90.5772H476.238V94.2294H518.275V90.5772ZM474.412 92.4033V115.869H478.065V92.4033H474.412ZM476.238 117.695H521.874V114.043H476.238V117.695ZM520.048 115.869V133H523.7V115.869H520.048ZM521.874 131.174H455.46V134.826H521.874V131.174ZM464.878 28.1072L484.216 13.1834L481.985 10.292L462.646 25.2159L464.878 28.1072ZM483.101 13.5638H494.138V9.91162H483.101V13.5638ZM493.025 13.186L512.46 28.1099L514.684 25.2132L495.25 10.2894L493.025 13.186ZM513.572 24.8355H498.84V28.4877H513.572V24.8355ZM499.978 25.233L489.852 17.1712L487.578 20.0284L497.703 28.0901L499.978 25.233ZM487.587 17.1635L477.318 25.2252L479.573 28.0979L489.843 20.0362L487.587 17.1635ZM478.446 24.8355H463.762V28.4877H478.446V24.8355ZM510.083 19.1826L521.312 1.18762L518.213 -0.745797L506.984 17.2492L510.083 19.1826ZM519.762 2.047H535.598V-1.60517H519.762V2.047ZM534.214 -0.970827L518.715 17.0242L521.482 19.4076L536.982 1.41265L534.214 -0.970827ZM520.098 16.3898H508.534V20.042H520.098V16.3898Z" fill="#2A660A" mask="url(#path-1-outside-1_11_3616)"/>
</g>
</svg>
