<svg width="219" height="202" viewBox="0 0 219 202" fill="none" xmlns="http://www.w3.org/2000/svg">
<path d="M63.2999 94.5066C66.5599 84.4266 75.0906 85.9733 75.0906 85.9733C75.0906 85.9733 76.4812 65.3333 64.6972 65.96C64.6972 65.96 51.8252 73.8799 51.8252 94.0399" fill="white"/>
<path d="M63.2999 94.5066C66.5599 84.4266 75.0906 85.9733 75.0906 85.9733C75.0906 85.9733 76.4812 65.3333 64.6972 65.96C64.6972 65.96 51.8252 73.8799 51.8252 94.0399" stroke="#1B1F06" stroke-width="5.82208" stroke-miterlimit="10" stroke-linecap="round" stroke-linejoin="round"/>
<path d="M62.0854 68.2399C63.6628 60.3466 71.3361 55.2266 79.2321 56.7999C87.1308 58.3732 92.2548 66.0399 90.6801 73.9466C89.1068 81.8399 81.4295 86.9599 73.5321 85.3866" fill="white"/>
<path d="M62.0854 68.2399C63.6628 60.3466 71.3361 55.2266 79.2321 56.7999C87.1308 58.3732 92.2548 66.0399 90.6801 73.9466C89.1068 81.8399 81.4295 86.9599 73.5321 85.3866" stroke="#1B1F06" stroke-width="5.82208" stroke-miterlimit="10" stroke-linecap="round" stroke-linejoin="round"/>
<path d="M3.84131 196.88H31.8L44.88 109.373C44.9053 105.96 47.684 103.213 51.0907 103.253L88.8066 103.52C92.2159 103.547 94.9559 106.32 94.9346 109.733L103.713 189.187" stroke="#1B1F06" stroke-width="5.82208" stroke-miterlimit="10" stroke-linecap="round" stroke-linejoin="round"/>
<path d="M116.396 75.5066C121.284 60.3866 134.084 62.7066 134.084 62.7066C134.084 62.7066 136.175 31.7186 118.489 32.672C118.489 32.672 99.1748 44.56 99.1748 74.8133" fill="white"/>
<path d="M116.396 75.5066C121.284 60.3866 134.084 62.7066 134.084 62.7066C134.084 62.7066 136.175 31.7186 118.489 32.672C118.489 32.672 99.1748 44.56 99.1748 74.8133" stroke="#1B1F06" stroke-width="5.82208" stroke-miterlimit="10" stroke-linecap="round" stroke-linejoin="round"/>
<path d="M41.376 198.147H75.9533L92.1307 89.9067C92.164 85.68 95.6014 82.2933 99.8187 82.32L146.472 82.6667C150.685 82.6933 154.079 86.1334 154.047 90.3467L168.435 198.813H192.06" fill="#D2EAAC"/>
<path d="M41.376 198.147H75.9533L92.1307 89.9067C92.164 85.68 95.6014 82.2933 99.8187 82.32L146.472 82.6667C150.685 82.6933 154.079 86.1334 154.047 90.3467L168.435 198.813H192.06" stroke="#1B1F06" stroke-width="5.82208" stroke-miterlimit="10" stroke-linecap="round" stroke-linejoin="round"/>
<path d="M114.575 36.0986C116.933 24.2479 128.451 16.5626 140.301 18.9212C152.148 21.2812 159.839 32.8025 157.479 44.6532C155.117 56.5065 143.596 64.1866 131.751 61.8266" fill="white"/>
<path d="M114.575 36.0986C116.933 24.2479 128.451 16.5626 140.301 18.9212C152.148 21.2812 159.839 32.8025 157.479 44.6532C155.117 56.5065 143.596 64.1866 131.751 61.8266" stroke="#1B1F06" stroke-width="5.82208" stroke-miterlimit="10" stroke-linecap="round" stroke-linejoin="round"/>
<path d="M140.688 28.2759C140.688 16.1906 150.481 6.39863 162.56 6.39863C174.64 6.39863 184.432 16.1906 184.432 28.2759C184.432 40.3599 174.64 50.1466 162.56 50.1466" fill="white"/>
<path d="M140.688 28.2759C140.688 16.1906 150.481 6.39863 162.56 6.39863C174.64 6.39863 184.432 16.1906 184.432 28.2759C184.432 40.3599 174.64 50.1466 162.56 50.1466" stroke="#1B1F06" stroke-width="5.82208" stroke-miterlimit="10" stroke-linecap="round" stroke-linejoin="round"/>
<path d="M173.678 24.8986C185.76 24.8986 195.555 34.6946 195.555 46.7732C195.555 58.8532 185.76 68.6399 173.678 68.6399C161.596 68.6399 151.805 58.8532 151.805 46.7732" fill="white"/>
<path d="M173.678 24.8986C185.76 24.8986 195.555 34.6946 195.555 46.7732C195.555 58.8532 185.76 68.6399 173.678 68.6399C161.596 68.6399 151.805 58.8532 151.805 46.7732" stroke="#1B1F06" stroke-width="5.82208" stroke-miterlimit="10" stroke-linecap="round" stroke-linejoin="round"/>
<path d="M172.281 24.8986C172.281 12.8172 182.076 3.02124 194.157 3.02124C206.24 3.02124 216.031 12.8172 216.031 24.8986C216.031 36.9786 206.24 46.7732 194.157 46.7732" fill="white"/>
<path d="M172.281 24.8986C172.281 12.8172 182.076 3.02124 194.157 3.02124C206.24 3.02124 216.031 12.8172 216.031 24.8986C216.031 36.9786 206.24 46.7732 194.157 46.7732" stroke="#1B1F06" stroke-width="5.82208" stroke-miterlimit="10" stroke-linecap="round" stroke-linejoin="round"/>
<path d="M100.468 187.6C62.6254 146.12 120.896 132.787 120.896 132.787C120.896 132.787 156.232 181 100.468 187.6Z" fill="white"/>
<path d="M100.468 187.6C62.6254 146.12 120.896 132.787 120.896 132.787C120.896 132.787 156.232 181 100.468 187.6Z" stroke="#1B1F06" stroke-width="5.82208" stroke-miterlimit="10" stroke-linecap="round" stroke-linejoin="round"/>
<path d="M115.481 147.32L100.468 187.6C100.468 187.6 94.5853 202.147 75.4919 198.107" stroke="#1B1F06" stroke-width="5.82208" stroke-miterlimit="10" stroke-linecap="round" stroke-linejoin="round"/>
</svg>
