<svg width="800" height="800" viewBox="0 0 800 800" fill="none" xmlns="http://www.w3.org/2000/svg">
<path d="M357.058 72.5032L58.9386 195.861C42.3601 202.722 42.5318 226.27 59.2143 232.883L358.582 351.599C384.887 362.031 414.179 362.031 440.48 351.599L739.852 232.883C756.53 226.27 756.706 202.722 740.123 195.861L442.008 72.5032C414.808 61.2489 384.254 61.2489 357.058 72.5032Z" fill="#83B228"/>
<path d="M426.091 416.428V712.997C426.091 727.103 440.315 736.762 453.426 731.564L787.013 602.082C794.629 599.063 799.623 591.705 799.623 583.515V286.945C799.623 272.839 785.399 263.18 772.287 268.378L438.701 397.86C431.09 400.88 426.091 408.238 426.091 416.428Z" fill="#E0EEC9"/>
<path d="M348.196 431.73L249.195 479.531L239.143 484.39L30.1576 584.525C16.9102 590.916 0.00170898 581.262 0.00170898 566.546V288.191C0.00170898 282.867 2.73165 278.27 6.39267 274.808C7.92035 273.276 9.65143 272.015 11.4503 271.016C16.4446 268.019 23.5678 267.219 29.6243 269.615L346.533 395.178C362.641 401.569 363.907 424.141 348.196 431.73Z" fill="#C9D1B3"/>
<path d="M348.196 431.73L249.195 479.531L6.39258 274.808C7.92026 273.276 9.65134 272.015 11.4502 271.016C16.4446 268.019 23.5677 267.219 29.6242 269.615L346.533 395.178C362.641 401.569 363.907 424.141 348.196 431.73Z" fill="black" fill-opacity="0.25"/>
</svg>
