<svg width="60" height="60" viewBox="0 0 60 60" fill="none" xmlns="http://www.w3.org/2000/svg">
<path d="M26.6485 51.7851C26.3321 51.7851 26.0743 51.5273 26.0743 51.2109V48.0703C26.0743 44.1679 24.7149 40.3711 22.2423 37.3711L15.3985 29.0742C15.0235 28.7109 14.5079 28.5469 14.0274 28.6172H13.9923C13.9571 28.6172 13.8985 28.6289 13.8751 28.6406C13.8634 28.6406 13.8516 28.6523 13.8282 28.6523C13.6524 28.6992 13.4766 28.7695 13.3477 28.8633C12.6212 29.3672 12.4102 30.3281 12.8673 31.0664L18.3985 39.9961C18.5626 40.2656 18.4805 40.6172 18.211 40.7812C17.9415 40.9453 17.5899 40.8633 17.4259 40.5937L11.8946 31.664C11.1212 30.4101 11.461 28.7695 12.6798 27.9258C12.9259 27.75 13.2188 27.6094 13.5352 27.539C13.6407 27.5039 13.7462 27.4922 13.8282 27.4804H13.8516C14.6837 27.3515 15.5743 27.6445 16.2071 28.2656C16.2188 28.2773 16.2305 28.3008 16.254 28.3125L23.1095 36.6328C25.7462 39.8437 27.1993 43.8984 27.1993 48.0586V51.2109C27.2227 51.5273 26.9649 51.7851 26.6485 51.7851Z" fill="#639B27"/>
<path d="M27.9492 55.1953H14.5195C14.0039 55.1953 13.5938 54.7734 13.5938 54.2695V52.1836C13.5938 51.3164 14.2969 50.6133 15.1641 50.6133H27.3047C28.1719 50.6133 28.875 51.3164 28.875 52.1836V54.2695C28.875 54.7734 28.4648 55.1953 27.9492 55.1953ZM14.7305 54.0469H27.7266V52.1836C27.7266 51.9492 27.5391 51.7617 27.3047 51.7617H15.1523C14.918 51.7617 14.7305 51.9492 14.7305 52.1836V54.0469Z" fill="#639B27"/>
<path d="M15.8087 51.7734C15.4923 51.7734 15.2345 51.5156 15.2345 51.1992C15.2345 49.0547 14.461 46.957 13.0665 45.3164L6.83211 37.9922C6.82039 37.9805 6.82039 37.9688 6.80867 37.957C5.32039 35.9531 4.74617 33.4102 5.21492 30.9844L8.63679 13.3711C8.78914 12.5742 9.25789 11.8828 9.93758 11.4258C10.629 10.9688 11.4376 10.8047 12.2462 10.9688C13.3712 11.2031 14.2501 12.0352 14.5548 13.1484C14.6368 13.3828 14.672 13.6641 14.672 13.9805V13.9922L14.2618 28.125C14.2501 28.4414 13.9805 28.6875 13.6759 28.6758C13.3595 28.6641 13.1134 28.4063 13.1251 28.0899L13.547 13.9805C13.547 13.793 13.5235 13.6289 13.4884 13.5C13.4884 13.4883 13.4766 13.4766 13.4766 13.4649C13.2891 12.7617 12.7384 12.2344 12.0352 12.0938C11.543 11.9883 11.0274 12.0938 10.5938 12.375C10.1602 12.6563 9.87898 13.0899 9.77351 13.582L6.35164 31.207C5.94148 33.3164 6.44539 35.5195 7.72273 37.2539L13.9454 44.5664C15.5157 46.418 16.3829 48.7734 16.3829 51.1875C16.3829 51.5156 16.1251 51.7734 15.8087 51.7734ZM33.3516 51.7734C33.0352 51.7734 32.7774 51.5156 32.7774 51.1992V48.0703C32.7774 43.9102 34.2305 39.8438 36.8673 36.6445L43.7227 28.3242L43.7579 28.2891C44.3907 27.6563 45.2696 27.3633 46.1251 27.5039L46.172 27.5156C46.2423 27.5274 46.3243 27.5391 46.418 27.5625C46.7227 27.6328 47.0157 27.7734 47.2852 27.9492C48.504 28.7695 48.8555 30.4102 48.0821 31.6875L42.5391 40.6172C42.3751 40.8867 42.0235 40.9688 41.754 40.8047C41.4844 40.6406 41.4024 40.2891 41.5665 40.0195L47.1095 31.1016C47.5665 30.3633 47.3555 29.3906 46.6407 28.9102C46.4766 28.793 46.3126 28.7227 46.1368 28.6875C46.1251 28.6875 46.1251 28.6875 46.1134 28.6758C46.0899 28.6641 46.0313 28.6641 45.9844 28.6524L45.9259 28.6406C45.4454 28.5703 44.9298 28.7344 44.5665 29.0977L37.7227 37.4063C35.2501 40.4063 33.8907 44.2031 33.8907 48.1055V51.2344C33.9259 51.5156 33.668 51.7734 33.3516 51.7734Z" fill="#639B27"/>
<path d="M45.4687 55.1953H32.0625C31.5469 55.1953 31.1367 54.7734 31.1367 54.2695V52.1836C31.1367 51.3164 31.8398 50.6133 32.707 50.6133H44.8594C45.7266 50.6133 46.4297 51.3164 46.4297 52.1836V54.3398C46.3594 54.8203 45.9492 55.1953 45.4687 55.1953ZM32.2734 54.0469H45.2695V52.1836C45.2695 51.9492 45.082 51.7617 44.8477 51.7617H32.707C32.4727 51.7617 32.2852 51.9492 32.2852 52.1836V54.0469H32.2734Z" fill="#639B27"/>
<path d="M44.1797 51.7734C43.8633 51.7734 43.6055 51.5156 43.6055 51.1992C43.6055 48.7734 44.4727 46.4297 46.043 44.5781L52.2656 37.2656C53.5547 35.5312 54.0469 33.3164 53.6367 31.2188L50.2031 13.5938C50.1094 13.1016 49.8164 12.668 49.3945 12.3867C48.9609 12.1055 48.457 12 47.9531 12.1055C47.2617 12.2461 46.6992 12.7734 46.5117 13.4766C46.4648 13.6406 46.4414 13.8281 46.4414 13.9805L46.8633 28.0898C46.875 28.4062 46.6289 28.6641 46.3125 28.6758C45.9961 28.6875 45.7266 28.4414 45.7266 28.125L45.3047 14.0039V13.9922C45.3047 13.7227 45.3398 13.4414 45.4219 13.1719C45.7266 12.0586 46.6172 11.2148 47.7305 10.9805C48.5391 10.8164 49.3594 10.9805 50.0391 11.4375C50.7187 11.8945 51.1875 12.5859 51.3398 13.3828L54.7734 30.9961C55.2422 33.4219 54.668 35.9648 53.1797 37.9688C53.168 37.9805 53.168 37.9922 53.1562 38.0039L46.9219 45.3281C45.5273 46.9688 44.7539 49.0664 44.7539 51.2109C44.7539 51.5156 44.4961 51.7734 44.1797 51.7734ZM30.0469 32.0391C22.5352 32.0391 16.4297 25.9336 16.4297 18.4219C16.4297 10.9102 22.5352 4.80469 30.0469 4.80469C37.5586 4.80469 43.6641 10.9102 43.6641 18.4219C43.6641 25.9336 37.5586 32.0391 30.0469 32.0391ZM30.0469 5.95312C23.168 5.95312 17.5781 11.543 17.5781 18.4219C17.5781 25.3008 23.168 30.8906 30.0469 30.8906C36.9258 30.8906 42.5156 25.3008 42.5156 18.4219C42.5156 11.543 36.9258 5.95312 30.0469 5.95312Z" fill="#639B27"/>
<path d="M27.9492 25.0312H27.1992C23.6367 25.0312 20.7305 22.125 20.7305 18.5625V17.8125C20.7305 17.4961 20.9883 17.2383 21.3047 17.2383H22.0547C25.6172 17.2383 28.5234 20.1445 28.5234 23.707V24.457C28.5234 24.7734 28.2656 25.0312 27.9492 25.0312ZM21.8789 18.3867V18.5625C21.8789 21.5039 24.2695 23.8828 27.1992 23.8828H27.375V23.707C27.375 20.7656 24.9844 18.3867 22.0547 18.3867H21.8789ZM30.0586 17.918C29.8594 17.918 29.6719 17.8477 29.5195 17.6953L29.2031 17.3789C28.1484 16.3359 27.5742 14.9414 27.5742 13.4648C27.5742 11.9883 28.1484 10.5937 29.2031 9.55078L29.5195 9.23437C29.8242 8.92969 30.3047 8.92969 30.6094 9.23437L30.9258 9.55078C31.9688 10.5937 32.543 11.9883 32.543 13.4648C32.543 14.9414 31.9688 16.3359 30.9258 17.3789L30.6094 17.6953C30.4453 17.8477 30.2578 17.918 30.0586 17.918ZM30.0586 10.3008L30 10.3594C29.168 11.1914 28.7109 12.293 28.7109 13.4648C28.7109 14.6367 29.168 15.7383 30 16.5703L30.0586 16.6289L30.1172 16.5703C30.9492 15.7383 31.4063 14.6367 31.4063 13.4648C31.4063 12.293 30.9492 11.1914 30.1172 10.3594L30.0586 10.3008Z" fill="#639B27"/>
<path d="M30.0469 27.1406C29.8945 27.1406 29.7539 27.082 29.6367 26.9766L24.2227 21.5508C24 21.3281 24 20.9648 24.2227 20.7422C24.4453 20.5195 24.8086 20.5195 25.0313 20.7422L30.4453 26.168C30.668 26.3906 30.668 26.7539 30.4453 26.9766C30.3398 27.082 30.1875 27.1406 30.0469 27.1406ZM32.8945 25.0312H32.1445C31.8281 25.0312 31.5703 24.7734 31.5703 24.457V23.707C31.5703 20.1445 34.4766 17.2383 38.0391 17.2383H38.7891C39.1055 17.2383 39.3633 17.4961 39.3633 17.8125V18.5625C39.3633 22.125 36.4688 25.0312 32.8945 25.0312ZM32.7305 23.8828H32.9062C35.8477 23.8828 38.2266 21.4922 38.2266 18.5625V18.3867H38.0508C35.1094 18.3867 32.7305 20.7773 32.7305 23.707V23.8828Z" fill="#639B27"/>
<path d="M30.0586 27.1406C29.918 27.1406 29.7656 27.082 29.6484 26.9766C29.4258 26.7539 29.4258 26.3906 29.6484 26.168L35.0625 20.7422C35.2852 20.5195 35.6484 20.5195 35.8711 20.7422C36.0938 20.9648 36.0938 21.3281 35.8711 21.5508L30.457 26.9766C30.3516 27.082 30.1992 27.1406 30.0586 27.1406Z" fill="#639B27"/>
<path d="M30.0469 32.0273C29.7305 32.0273 29.4727 31.7695 29.4727 31.4531V13.4648C29.4727 13.1484 29.7305 12.8906 30.0469 12.8906C30.3633 12.8906 30.6211 13.1484 30.6211 13.4648V31.4531C30.6211 31.7695 30.3633 32.0273 30.0469 32.0273Z" fill="#639B27"/>
</svg>
