<svg width="196" height="219" viewBox="0 0 196 219" fill="none" xmlns="http://www.w3.org/2000/svg">
<path d="M28.0527 41.7067C28.4261 25.4533 38.5861 11.6 52.8794 5.85331C55.8128 4.67998 58.9061 3.83998 62.1328 3.38665C63.9328 3.13331 65.7861 2.99999 67.6395 2.99999C89.2261 2.99999 106.759 20.2533 107.239 41.7067H28.0527Z" fill="#D2EAAC"/>
<path d="M28.0527 41.7067C28.4261 25.4533 38.5861 11.6 52.8794 5.85331C55.8128 4.67998 58.9061 3.83998 62.1328 3.38665C63.9328 3.13331 65.7861 2.99999 67.6395 2.99999C89.2261 2.99999 106.759 20.2533 107.239 41.7067H28.0527Z" stroke="#1B1F06" stroke-width="5.82208" stroke-miterlimit="10" stroke-linecap="round" stroke-linejoin="round"/>
<path d="M97.8398 41.7067C98.1998 25.4533 108.36 11.6 122.653 5.85331C125.6 4.66665 128.693 3.83998 131.92 3.38665C133.733 3.13331 135.56 2.99999 137.426 2.99999C159 2.99999 176.533 20.2533 177.026 41.7067H97.8398Z" fill="#D2EAAC"/>
<path d="M97.8398 41.7067C98.1998 25.4533 108.36 11.6 122.653 5.85331C125.6 4.66665 128.693 3.83998 131.92 3.38665C133.733 3.13331 135.56 2.99999 137.426 2.99999C159 2.99999 176.533 20.2533 177.026 41.7067H97.8398Z" stroke="#1B1F06" stroke-width="5.82208" stroke-miterlimit="10" stroke-linecap="round" stroke-linejoin="round"/>
<path d="M192.68 182.493H3V61.0666H192.68V182.493Z" fill="white"/>
<path d="M192.68 182.493H3V61.0666H192.68V182.493Z" stroke="#1B1F06" stroke-width="5.82208" stroke-miterlimit="10" stroke-linecap="round" stroke-linejoin="round"/>
<path d="M112.4 101.04L101.626 81.5733C101.466 80.2533 100.933 80.32 99.7462 79.5067C97.5596 78.0133 94.5729 78.5733 93.0796 80.76L80.2796 99.44C78.7729 101.627 79.3329 104.613 81.5196 106.107C83.7062 107.613 86.6929 107.053 88.1862 104.867L96.3196 93L103.906 106.013L97.8929 109.52L118.013 118.893L119.72 96.7733L112.4 101.04Z" fill="#1B1F06"/>
<path d="M134.439 145.493L123.306 125.747C122.013 123.453 119.093 122.627 116.773 123.92C114.466 125.227 113.653 128.147 114.959 130.467L121.599 142.267L107.613 142.12L107.693 135.16L89.3193 147.613L107.426 160.44L107.519 151.96L128.213 152.173C129.559 152.813 131.186 152.813 132.613 152.013C134.919 150.72 135.733 147.8 134.439 145.493Z" fill="#1B1F06"/>
<path d="M78.9732 143L66.7598 143.013L74.7999 132.787L80.2665 137.093L81.6264 114.947L60.4132 121.453L67.0665 126.707L53.3999 143.027C52.4665 144.16 51.5332 146.213 51.5332 147.813C51.5332 150.453 53.6798 152.6 56.3198 152.6L78.9732 152.587C81.6265 152.587 83.7732 150.44 83.7732 147.8C83.7732 145.147 81.6265 143 78.9732 143Z" fill="#1B1F06"/>
<path d="M192.68 167.707H3V182.493H192.68V167.707Z" fill="white"/>
<path d="M192.68 167.707H3V182.493H192.68V167.707Z" stroke="#1B1F06" stroke-width="5.82208" stroke-miterlimit="10" stroke-linecap="round" stroke-linejoin="round"/>
<path d="M187.466 188.987C187.466 203.453 175.719 215.2 161.253 215.2C146.786 215.2 135.04 203.453 135.04 188.987C135.04 174.507 146.786 162.773 161.253 162.773C175.719 162.773 187.466 174.507 187.466 188.987Z" fill="white"/>
<path d="M187.466 188.987C187.466 203.453 175.719 215.2 161.253 215.2C146.786 215.2 135.04 203.453 135.04 188.987C135.04 174.507 146.786 162.773 161.253 162.773C175.719 162.773 187.466 174.507 187.466 188.987Z" stroke="#1B1F06" stroke-width="5.82208" stroke-miterlimit="10" stroke-linecap="round" stroke-linejoin="round"/>
<path d="M173.507 188.987C173.507 195.747 168.027 201.24 161.253 201.24C154.493 201.24 149 195.747 149 188.987C149 182.213 154.493 176.733 161.253 176.733C168.027 176.733 173.507 182.213 173.507 188.987Z" stroke="#1B1F06" stroke-width="5.82208" stroke-miterlimit="10" stroke-linecap="round" stroke-linejoin="round"/>
<path d="M61.5999 188.987C61.5999 203.453 49.8665 215.2 35.3865 215.2C20.9199 215.2 9.18652 203.453 9.18652 188.987C9.18652 174.507 20.9199 162.773 35.3865 162.773C49.8665 162.773 61.5999 174.507 61.5999 188.987Z" fill="white"/>
<path d="M61.5999 188.987C61.5999 203.453 49.8665 215.2 35.3865 215.2C20.9199 215.2 9.18652 203.453 9.18652 188.987C9.18652 174.507 20.9199 162.773 35.3865 162.773C49.8665 162.773 61.5999 174.507 61.5999 188.987Z" stroke="#1B1F06" stroke-width="5.82208" stroke-miterlimit="10" stroke-linecap="round" stroke-linejoin="round"/>
<path d="M47.6395 188.987C47.6395 195.747 42.1594 201.24 35.3861 201.24C28.6261 201.24 23.1328 195.747 23.1328 188.987C23.1328 182.213 28.6261 176.733 35.3861 176.733C42.1594 176.733 47.6395 182.213 47.6395 188.987Z" stroke="#1B1F06" stroke-width="5.82208" stroke-miterlimit="10" stroke-linecap="round" stroke-linejoin="round"/>
<path d="M3 61.0667C3.36 44.8 13.5199 30.9467 27.8133 25.2133C30.7466 24.0267 33.8399 23.1867 37.0799 22.7467C38.8933 22.48 40.7199 22.36 42.5866 22.36C64.1599 22.36 81.6933 39.6 82.1733 61.0667H3Z" fill="#D2EAAC"/>
<path d="M3 61.0667C3.36 44.8 13.5199 30.9467 27.8133 25.2133C30.7466 24.0267 33.8399 23.1867 37.0799 22.7467C38.8933 22.48 40.7199 22.36 42.5866 22.36C64.1599 22.36 81.6933 39.6 82.1733 61.0667H3Z" stroke="#1B1F06" stroke-width="5.82208" stroke-miterlimit="10" stroke-linecap="round" stroke-linejoin="round"/>
<path d="M58.2529 61.0667C58.6129 44.8 68.773 30.9467 83.0663 25.2133C85.9997 24.0267 89.093 23.1867 92.333 22.7467C94.133 22.48 95.973 22.36 97.8397 22.36C119.413 22.36 136.946 39.6 137.426 61.0667H58.2529Z" fill="#D2EAAC"/>
<path d="M58.2529 61.0667C58.6129 44.8 68.773 30.9467 83.0663 25.2133C85.9997 24.0267 89.093 23.1867 92.333 22.7467C94.133 22.48 95.973 22.36 97.8397 22.36C119.413 22.36 136.946 39.6 137.426 61.0667H58.2529Z" stroke="#1B1F06" stroke-width="5.82208" stroke-miterlimit="10" stroke-linecap="round" stroke-linejoin="round"/>
<path d="M113.693 61.0667C114.066 44.8 124.226 30.9467 138.52 25.2133C141.453 24.0267 144.546 23.1867 147.786 22.7467C149.586 22.48 151.426 22.36 153.28 22.36C174.866 22.36 192.4 39.6 192.88 61.0667H113.693Z" fill="#D2EAAC"/>
<path d="M113.693 61.0667C114.066 44.8 124.226 30.9467 138.52 25.2133C141.453 24.0267 144.546 23.1867 147.786 22.7467C149.586 22.48 151.426 22.36 153.28 22.36C174.866 22.36 192.4 39.6 192.88 61.0667H113.693Z" stroke="#1B1F06" stroke-width="5.82208" stroke-miterlimit="10" stroke-linecap="round" stroke-linejoin="round"/>
</svg>
