<svg width="112" height="219" viewBox="0 0 112 219" fill="none" xmlns="http://www.w3.org/2000/svg">
<path d="M108.853 188.381C108.853 203.188 96.8532 215.187 82.0398 215.187H29.8133C15.0133 215.187 3 203.188 3 188.381V29.8133C3 15.0133 15.0133 2.99998 29.8133 2.99998H82.0398C96.8532 2.99998 108.853 15.0133 108.853 29.8133V188.381Z" fill="white"/>
<path d="M108.853 188.381C108.853 203.188 96.8532 215.187 82.0398 215.187H29.8133C15.0133 215.187 3 203.188 3 188.381V29.8133C3 15.0133 15.0133 2.99998 29.8133 2.99998H82.0398C96.8532 2.99998 108.853 15.0133 108.853 29.8133V188.381Z" stroke="#1B1F06" stroke-width="5.82208" stroke-miterlimit="10" stroke-linecap="round" stroke-linejoin="round"/>
<path d="M90.7195 61.8534C90.7195 81.8801 74.493 98.1067 54.4664 98.1067C34.4397 98.1067 18.1997 81.8801 18.1997 61.8534C18.1997 41.8268 34.4397 25.6001 54.4664 25.6001C74.493 25.6001 90.7195 41.8268 90.7195 61.8534Z" fill="#D2EAAC"/>
<path d="M90.7195 61.8534C90.7195 81.8801 74.493 98.1067 54.4664 98.1067C34.4397 98.1067 18.1997 81.8801 18.1997 61.8534C18.1997 41.8268 34.4397 25.6001 54.4664 25.6001C74.493 25.6001 90.7195 41.8268 90.7195 61.8534Z" stroke="#1B1F06" stroke-width="5.82208" stroke-miterlimit="10" stroke-linecap="round" stroke-linejoin="round"/>
<path d="M92.1863 155.253C92.1863 175.276 75.9598 191.508 55.9332 191.508C35.9065 191.508 19.6665 175.276 19.6665 155.253C19.6665 135.227 35.9065 119 55.9332 119C75.9598 119 92.1863 135.227 92.1863 155.253Z" fill="#D2EAAC"/>
<path d="M92.1863 155.253C92.1863 175.276 75.9598 191.508 55.9332 191.508C35.9065 191.508 19.6665 175.276 19.6665 155.253C19.6665 135.227 35.9065 119 55.9332 119C75.9598 119 92.1863 135.227 92.1863 155.253Z" stroke="#1B1F06" stroke-width="5.82208" stroke-miterlimit="10" stroke-linecap="round" stroke-linejoin="round"/>
<path d="M42.6133 78.72H65.9732" stroke="#1B1F06" stroke-width="5.82208" stroke-miterlimit="10" stroke-linecap="round" stroke-linejoin="round"/>
<path d="M42.9597 45L33.4131 66.3201Z" fill="#D2EAAC"/>
<path d="M42.9597 45L33.4131 66.3201" stroke="#1B1F06" stroke-width="5.82208" stroke-miterlimit="10" stroke-linecap="round" stroke-linejoin="round"/>
<path d="M65.9727 45L75.5193 66.3201Z" fill="#D2EAAC"/>
<path d="M65.9727 45L75.5193 66.3201" stroke="#1B1F06" stroke-width="5.82208" stroke-miterlimit="10" stroke-linecap="round" stroke-linejoin="round"/>
<path d="M45.2931 164.813C45.2665 165.133 45.2397 165.453 45.2397 165.773C45.2397 171.68 50.0399 176.461 55.9332 176.461C61.8399 176.461 66.6132 171.68 66.6132 165.773C66.6132 165.453 66.5997 165.133 66.5731 164.813H45.2931Z" fill="#D2EAAC"/>
<path d="M45.2931 164.813C45.2665 165.133 45.2397 165.453 45.2397 165.773C45.2397 171.68 50.0399 176.461 55.9332 176.461C61.8399 176.461 66.6132 171.68 66.6132 165.773C66.6132 165.453 66.5997 165.133 66.5731 164.813H45.2931Z" stroke="#1B1F06" stroke-width="5.82208" stroke-miterlimit="10" stroke-linecap="round" stroke-linejoin="round"/>
<path d="M44.3999 135.96V152.507" stroke="#1B1F06" stroke-width="5.82208" stroke-miterlimit="10" stroke-linecap="round" stroke-linejoin="round"/>
<path d="M66.333 135.96V152.507" stroke="#1B1F06" stroke-width="5.82208" stroke-miterlimit="10" stroke-linecap="round" stroke-linejoin="round"/>
</svg>
