<svg width="119" height="191" viewBox="0 0 119 191" fill="none" xmlns="http://www.w3.org/2000/svg">
<g opacity="0.2">
<path d="M77.4785 139.361C76.3711 139.361 75.4687 138.459 75.4687 137.352C75.4277 127.754 72.6387 124.719 67.0195 118.648C65.7891 117.336 64.4355 115.859 62.959 114.178C57.9141 108.395 54.2227 101.709 51.8848 94.3672C50.2031 89.0352 49.3418 83.416 49.3418 77.6738C49.3418 62.375 55.7402 47.5684 66.8965 37.1094C78.1758 26.4863 92.9824 21.1543 108.527 22.1387C122.473 23 135.475 28.9473 145.113 38.9551C154.752 48.9629 160.289 62.1289 160.658 76.1152C160.822 82.3086 159.961 88.4609 158.115 94.3672C155.777 101.832 151.799 108.805 146.631 114.629C145.318 116.105 144.129 117.418 143.021 118.566C137.156 124.842 134.49 127.713 134.49 137.352C134.49 138.459 133.588 139.361 132.48 139.361C131.373 139.361 130.471 138.459 130.471 137.352C130.471 126.154 134.08 122.258 140.068 115.859C141.176 114.67 142.324 113.398 143.596 112.004C148.395 106.631 152.086 100.109 154.26 93.2188C155.982 87.7227 156.762 82.0215 156.598 76.2793C155.859 49.373 135.064 27.8398 108.199 26.1992C93.7617 25.2969 80.0625 30.2598 69.5625 40.1035C59.0625 49.9883 53.2793 63.3594 53.2793 77.7559C53.2793 83.0469 54.0586 88.2559 55.6172 93.2188C57.75 100.027 61.1953 106.221 65.8711 111.594C67.3066 113.234 68.6602 114.711 69.8496 115.982C75.7559 122.381 79.3242 126.236 79.3652 137.393C79.4883 138.459 78.5859 139.361 77.4785 139.361ZM105 13.5664C103.893 13.5664 102.99 12.6641 102.99 11.5566V-0.173827C102.99 -1.28125 103.893 -2.18359 105 -2.18359C106.107 -2.18359 107.01 -1.28125 107.01 -0.173827V11.5566C107.01 12.6641 106.107 13.5664 105 13.5664ZM80.0215 18.5293C79.2422 18.5293 78.5039 18.0781 78.1758 17.2988L73.7051 6.42969C73.2949 5.4043 73.7871 4.21484 74.7715 3.80469C75.7969 3.39453 76.9863 3.88672 77.3965 4.87109L81.8672 15.7402C82.2773 16.7656 81.7852 17.9551 80.8008 18.3652C80.5547 18.4883 80.2676 18.5293 80.0215 18.5293ZM58.8164 32.6797C58.2832 32.6797 57.791 32.4746 57.3809 32.1055L49.0957 23.8203C48.3164 23.041 48.3164 21.7695 49.0957 20.9902C49.875 20.2109 51.1465 20.2109 51.9258 20.9902L60.2109 29.2754C60.9902 30.0547 60.9902 31.3262 60.2109 32.1055C59.8418 32.4746 59.3496 32.6797 58.8164 32.6797ZM44.666 53.8438C44.4199 53.8438 44.1328 53.8027 43.8867 53.6797L33.0586 49.209C32.0332 48.7988 31.541 47.6094 31.9922 46.584C32.4023 45.5586 33.5918 45.0664 34.6172 45.5176L45.4453 49.9883C46.4707 50.3984 46.9629 51.5879 46.5117 52.6133C46.2246 53.3926 45.4453 53.8438 44.666 53.8438ZM33.8379 108.271C33.0586 108.271 32.3203 107.82 31.9922 107.041C31.582 106.016 32.0332 104.826 33.0586 104.416L43.8867 99.9453C44.9121 99.5352 46.1016 99.9863 46.5117 101.012C46.9219 102.037 46.4707 103.227 45.4453 103.637L34.6172 108.148C34.3711 108.23 34.125 108.271 33.8379 108.271ZM176.162 108.271C175.916 108.271 175.629 108.23 175.383 108.107L164.555 103.637C163.529 103.227 163.037 102.037 163.488 101.012C163.898 99.9863 165.088 99.4941 166.113 99.9453L176.941 104.416C177.967 104.826 178.459 106.016 178.008 107.041C177.68 107.82 176.941 108.271 176.162 108.271ZM39.7441 78.8223H28.0137C26.9063 78.8223 26.0039 77.9199 26.0039 76.8125C26.0039 75.7051 26.9063 74.8027 28.0137 74.8027H39.7441C40.8516 74.8027 41.7539 75.7051 41.7539 76.8125C41.7539 77.9199 40.8516 78.8223 39.7441 78.8223ZM181.986 78.8223H170.256C169.148 78.8223 168.246 77.9199 168.246 76.8125C168.246 75.7051 169.148 74.8027 170.256 74.8027H181.986C183.094 74.8027 183.996 75.7051 183.996 76.8125C183.996 77.9199 183.094 78.8223 181.986 78.8223ZM165.334 53.8438C164.555 53.8438 163.816 53.3926 163.488 52.6133C163.078 51.5879 163.529 50.3984 164.555 49.9883L175.383 45.5176C176.408 45.1074 177.598 45.5586 178.008 46.584C178.418 47.6094 177.967 48.7988 176.941 49.209L166.113 53.6797C165.826 53.8027 165.58 53.8438 165.334 53.8438ZM151.184 32.6797C150.65 32.6797 150.158 32.4746 149.748 32.1055C148.969 31.3262 148.969 30.0547 149.748 29.2754L158.033 20.9902C158.812 20.2109 160.084 20.2109 160.863 20.9902C161.643 21.7695 161.643 23.041 160.863 23.8203L152.578 32.1055C152.209 32.4746 151.676 32.6797 151.184 32.6797ZM129.979 18.5293C129.732 18.5293 129.445 18.4883 129.199 18.3652C128.174 17.9551 127.682 16.7656 128.133 15.7402L132.604 4.87109C133.014 3.8457 134.203 3.35352 135.229 3.80469C136.254 4.21484 136.746 5.4043 136.295 6.42969L131.824 17.2988C131.496 18.0781 130.758 18.5293 129.979 18.5293Z" fill="#F6F6F6"/>
<path d="M133.752 151.01H76.2891C72.4746 151.01 69.3984 147.934 69.3984 144.119V139.689C69.3984 137.311 71.3262 135.383 73.7051 135.383H136.295C138.674 135.383 140.602 137.311 140.602 139.689V144.119C140.643 145.924 139.945 147.646 138.633 148.959C137.32 150.271 135.598 151.01 133.752 151.01ZM73.7051 139.402C73.582 139.402 73.418 139.525 73.418 139.689V144.119C73.418 145.719 74.7305 146.99 76.2891 146.99H133.711C134.49 146.99 135.188 146.703 135.762 146.129C136.295 145.596 136.582 144.857 136.582 144.119V139.648C136.582 139.525 136.459 139.361 136.295 139.361H73.7051V139.402Z" fill="#F6F6F6"/>
<path d="M121.57 162.699H88.4707C84.1641 162.699 80.6367 159.213 80.6367 154.865V149C80.6367 147.893 81.5391 146.99 82.6465 146.99C83.7539 146.99 84.6562 147.893 84.6562 149V154.865C84.6562 156.957 86.3789 158.68 88.4707 158.68H121.57C123.662 158.68 125.385 156.957 125.385 154.865V149C125.385 147.893 126.287 146.99 127.395 146.99C128.502 146.99 129.404 147.893 129.404 149V154.865C129.363 159.172 125.877 162.699 121.57 162.699Z" fill="#F6F6F6"/>
<path d="M105 174.184C97.5352 174.184 91.5059 168.113 91.5059 160.689C91.5059 159.582 92.4082 158.68 93.5156 158.68C94.623 158.68 95.5254 159.582 95.5254 160.689C95.5254 165.939 99.791 170.205 105.041 170.205C110.291 170.205 114.557 165.939 114.557 160.689C114.557 159.582 115.459 158.68 116.566 158.68C117.674 158.68 118.576 159.582 118.576 160.689C118.494 168.113 112.465 174.184 105 174.184ZM105 90.3477C103.893 90.3477 102.99 89.4453 102.99 88.3379V66.8047C102.99 65.6973 103.893 64.7949 105 64.7949C106.107 64.7949 107.01 65.6973 107.01 66.8047V88.3379C107.01 89.4453 106.107 90.3477 105 90.3477Z" fill="#F6F6F6"/>
<path d="M105 90.3477C104.467 90.3477 103.975 90.1426 103.564 89.7734L102.17 88.3789C96.4277 82.6367 93.2695 75.0078 93.2695 66.8457C93.2695 58.6836 96.4277 51.0547 102.17 45.3125L103.564 43.918C104.344 43.1387 105.615 43.1387 106.395 43.918L107.789 45.3125C113.531 51.0547 116.689 58.6836 116.689 66.8457C116.689 75.0078 113.531 82.6367 107.789 88.3789L106.395 89.7734C106.025 90.1426 105.533 90.3477 105 90.3477ZM105 48.1426C100.037 53.1465 97.2891 59.75 97.2891 66.8047C97.2891 73.8594 100.037 80.5039 105 85.4668C109.963 80.4629 112.711 73.8594 112.711 66.8047C112.711 59.75 109.963 53.1465 105 48.1426ZM99.2988 110.363H97.2891C80.5137 110.363 66.8555 96.7051 66.8555 79.9297V77.9199C66.8555 76.8125 67.7578 75.9102 68.8652 75.9102H70.875C87.6504 75.9102 101.309 89.5684 101.309 106.344V108.354C101.309 109.461 100.406 110.363 99.2988 110.363ZM70.875 79.9297C70.875 94.4902 82.7285 106.344 97.2891 106.344C97.2891 91.7832 85.4355 79.9297 70.875 79.9297ZM112.711 110.363H110.701C109.594 110.363 108.691 109.461 108.691 108.354V106.344C108.691 89.5684 122.35 75.9102 139.125 75.9102H141.135C142.242 75.9102 143.145 76.8125 143.145 77.9199V79.9297C143.104 96.7051 129.486 110.363 112.711 110.363ZM139.125 79.9297C124.564 79.9297 112.711 91.7832 112.711 106.344C127.271 106.344 139.125 94.5312 139.125 79.9297Z" fill="#F6F6F6"/>
<path d="M99.2988 110.363C98.7656 110.363 98.2734 110.158 97.8633 109.789L82.6875 94.5723C81.9082 93.793 81.9082 92.5215 82.6875 91.7422C83.4668 90.9629 84.7383 90.9629 85.5176 91.7422L100.693 106.959C101.473 107.738 101.473 109.01 100.693 109.789C100.324 110.158 99.832 110.363 99.2988 110.363ZM110.701 110.363C110.209 110.363 109.676 110.158 109.266 109.789C108.486 109.01 108.486 107.738 109.266 106.959L124.441 91.7422C125.221 90.9629 126.492 90.9629 127.271 91.7422C128.051 92.5215 128.051 93.793 127.271 94.5723L112.096 109.789C111.727 110.158 111.193 110.363 110.701 110.363Z" fill="#F6F6F6"/>
</g>
</svg>
