<svg width="0" height="0" viewBox="0 0 206 303" xmlns="http://www.w3.org/2000/svg">

      <path d="M32 0.5H173.419C191.038 0.5 205.231 14.9507 204.914 32.5665L203.13 131.749C203.053 136.036 200.655 139.943 196.868 141.953C188.336 146.48 187.707 158.467 195.718 163.862L197.393 164.99C200.911 167.359 203.052 171.294 203.131 175.534L204.894 270.415C205.222 288.038 191.026 302.5 173.4 302.5H32C14.603 302.5 0.5 288.397 0.5 271V175.852C0.5 171.452 2.77057 167.364 6.5057 165.038L8.14529 164.017C16.5877 158.761 15.9575 146.271 7.02886 141.891C3.03263 139.931 0.5 135.867 0.5 131.416V32C0.5 14.603 14.603 0.5 32 0.5Z"/>

</svg>

