<svg width="322" height="38" viewBox="0 0 322 38" fill="none" xmlns="http://www.w3.org/2000/svg">
<g clip-path="url(#clip0_200_11)">
<path d="M24.4192 0.495957V7.61996H9.54724V15.316H20.6752V22.232H9.54724V37H0.655243V0.495957H24.4192ZM45.7847 7.61996V15.004H57.6927V21.868H45.7847V29.876H59.2527V37H36.8927V0.495957H59.2527V7.61996H45.7847ZM81.7176 7.61996V15.004H93.6256V21.868H81.7176V29.876H95.1856V37H72.8256V0.495957H95.1856V7.61996H81.7176ZM122.434 0.495957C126.282 0.495957 129.645 1.25863 132.522 2.78396C135.4 4.30929 137.618 6.45863 139.178 9.23196C140.773 11.9707 141.57 15.1427 141.57 18.748C141.57 22.3187 140.773 25.4907 139.178 28.264C137.618 31.0373 135.382 33.1867 132.47 34.712C129.593 36.2373 126.248 37 122.434 37H108.758V0.495957H122.434ZM121.862 29.304C125.225 29.304 127.842 28.3853 129.714 26.548C131.586 24.7107 132.522 22.1107 132.522 18.748C132.522 15.3853 131.586 12.768 129.714 10.896C127.842 9.02396 125.225 8.08796 121.862 8.08796H117.65V29.304H121.862ZM176.44 18.28C178.554 18.7307 180.253 19.788 181.536 21.452C182.818 23.0813 183.46 24.9533 183.46 27.068C183.46 30.1187 182.385 32.5453 180.236 34.348C178.121 36.116 175.157 37 171.344 37H154.34V0.495957H170.772C174.481 0.495957 177.376 1.34529 179.456 3.04396C181.57 4.74262 182.628 7.04796 182.628 9.95996C182.628 12.1093 182.056 13.8947 180.912 15.316C179.802 16.7373 178.312 17.7253 176.44 18.28ZM163.232 15.264H169.056C170.512 15.264 171.621 14.952 172.384 14.328C173.181 13.6693 173.58 12.716 173.58 11.468C173.58 10.22 173.181 9.26663 172.384 8.60796C171.621 7.94929 170.512 7.61996 169.056 7.61996H163.232V15.264ZM169.784 29.824C171.274 29.824 172.418 29.4947 173.216 28.836C174.048 28.1427 174.464 27.1547 174.464 25.872C174.464 24.5893 174.03 23.584 173.164 22.856C172.332 22.128 171.17 21.764 169.68 21.764H163.232V29.824H169.784ZM219.141 30.552H205.517L203.333 37H194.025L207.233 0.495957H217.529L230.737 37H221.325L219.141 30.552ZM216.853 23.688L212.329 10.324L207.857 23.688H216.853ZM241.049 18.696C241.049 15.0907 241.829 11.884 243.389 9.07596C244.949 6.23329 247.115 4.03196 249.889 2.47196C252.697 0.877289 255.869 0.0799561 259.405 0.0799561C263.738 0.0799561 267.447 1.22396 270.533 3.51196C273.618 5.79996 275.681 8.91996 276.721 12.872H266.945C266.217 11.3467 265.177 10.1853 263.825 9.38796C262.507 8.59063 260.999 8.19196 259.301 8.19196C256.562 8.19196 254.343 9.14529 252.645 11.052C250.946 12.9587 250.097 15.5067 250.097 18.696C250.097 21.8853 250.946 24.4333 252.645 26.34C254.343 28.2467 256.562 29.2 259.301 29.2C260.999 29.2 262.507 28.8013 263.825 28.004C265.177 27.2067 266.217 26.0453 266.945 24.52H276.721C275.681 28.472 273.618 31.592 270.533 33.88C267.447 36.1333 263.738 37.26 259.405 37.26C255.869 37.26 252.697 36.48 249.889 34.92C247.115 33.3253 244.949 31.124 243.389 28.316C241.829 25.508 241.049 22.3013 241.049 18.696ZM311.13 37L298.858 20.88V37H289.966V0.495957H298.858V16.512L311.026 0.495957H321.478L307.334 18.384L321.998 37H311.13Z" fill="black"/>
</g>
<defs>
<clipPath id="clip0_200_11">
<rect width="322" height="38" fill="white"/>
</clipPath>
</defs>
</svg>
