<svg width="258" height="228" viewBox="0 0 258 228" fill="none" xmlns="http://www.w3.org/2000/svg">
<path d="M234.69 16.0973C133.195 61.9372 82.0182 101.114 2.6903 199.097" stroke="url(#paint0_linear_76_17)" stroke-width="2"/>
<path d="M257 43.5871C155.505 89.427 104.328 128.603 25 226.587" stroke="url(#paint1_linear_76_17)" stroke-width="2"/>
<circle cx="24" cy="24" r="24" transform="matrix(-1 0 0 1 192 21.4899)" fill="#DAE4C2"/>
<path d="M160.038 36.8457C159.723 36.5362 159.225 36.5362 158.91 36.8457C158.594 37.1552 158.594 37.6445 158.91 37.954L160.038 39.0624C160.354 39.3719 160.852 39.3719 161.167 39.0624C161.482 38.7528 161.482 38.2636 161.167 37.954L160.038 36.8457ZM175.242 36.8457L174.113 37.954C173.798 38.2636 173.798 38.7528 174.113 39.0624C174.428 39.3719 174.927 39.3719 175.242 39.0624L176.371 37.954C176.686 37.6445 176.686 37.1552 176.371 36.8457C176.055 36.5362 175.547 36.5362 175.242 36.8457ZM158.035 43.0563H156.438C156.001 43.0563 155.635 43.4058 155.635 43.8451C155.635 44.2744 155.991 44.6339 156.438 44.6339H158.035C158.472 44.6339 158.838 44.2844 158.838 43.8451C158.838 43.4058 158.472 43.0563 158.035 43.0563ZM178.832 43.0563H177.235C176.798 43.0563 176.432 43.4058 176.432 43.8451C176.432 44.2744 176.788 44.6339 177.235 44.6339H178.832C179.269 44.6339 179.635 44.2844 179.635 43.8451C179.635 43.4058 179.279 43.0563 178.832 43.0563ZM166.832 34.03V35.5976C166.832 36.027 167.188 36.3864 167.635 36.3864C168.072 36.3864 168.428 36.0369 168.428 35.5976V34.03C168.428 33.6006 168.072 33.2412 167.635 33.2412C167.198 33.2412 166.832 33.5907 166.832 34.03ZM162.032 45.0233C162.032 41.9879 164.543 39.5217 167.635 39.5217C170.727 39.5217 173.238 41.9879 173.238 45.0233C173.238 48.0587 170.727 50.525 167.635 50.525C164.543 50.525 162.032 48.0587 162.032 45.0233ZM160.435 45.0233C160.435 48.9274 163.659 52.0926 167.635 52.0926C171.611 52.0926 174.835 48.9274 174.835 45.0233C174.835 41.1192 171.611 37.954 167.635 37.954C163.659 37.954 160.435 41.1192 160.435 45.0233ZM166.038 56.0166C166.038 56.446 166.394 56.8054 166.842 56.8054H168.438C168.876 56.8054 169.242 56.456 169.242 56.0166C169.242 55.5873 168.886 55.2378 168.438 55.2378H166.842C166.394 55.2378 166.038 55.5873 166.038 56.0166ZM164.432 53.6602C164.432 54.0896 164.788 54.449 165.235 54.449H170.035C170.472 54.449 170.828 54.0995 170.828 53.6602C170.828 53.2309 170.472 52.8814 170.035 52.8814H165.235C164.798 52.8814 164.432 53.2309 164.432 53.6602Z" fill="#143529"/>
<circle cx="110" cy="90" r="23.5" fill="white" stroke="#143529"/>
<path d="M114.276 87.4158L103.529 96.3889" stroke="#143529" stroke-linecap="round" stroke-linejoin="round"/>
<path d="M113.389 97.2755L103.529 96.3889L104.416 86.5292" stroke="#143529" stroke-linecap="round" stroke-linejoin="round"/>
<defs>
<linearGradient id="paint0_linear_76_17" x1="105.993" y1="91.5" x2="3.49993" y2="199.49" gradientUnits="userSpaceOnUse">
<stop stop-color="#EFEFEF"/>
<stop offset="1" stop-color="white"/>
</linearGradient>
<linearGradient id="paint1_linear_76_17" x1="128.303" y1="118.99" x2="25.8096" y2="226.98" gradientUnits="userSpaceOnUse">
<stop stop-color="#EFEFEF"/>
<stop offset="1" stop-color="white"/>
</linearGradient>
</defs>
</svg>
