<svg width="17" height="16" viewBox="0 0 17 16" fill="none" xmlns="http://www.w3.org/2000/svg">
<path d="M2.23077 6.48924C2.23077 6.18064 2.37599 5.88934 2.62426 5.69989L7.7204 1.81099C8.08845 1.53013 8.60387 1.53013 8.97191 1.81099L14.0681 5.69989C14.3164 5.88934 14.4615 6.18064 14.4615 6.48924V13.3335C14.4615 13.6871 14.3183 14.0262 14.0635 14.2763C13.8087 14.5263 13.463 14.6668 13.1026 14.6668H3.58975C3.22932 14.6668 2.88367 14.5263 2.62881 14.2763C2.37395 14.0262 2.23077 13.6871 2.23077 13.3335V6.48924Z" stroke="#383838" stroke-linecap="round" stroke-linejoin="round"/>
<path d="M6.30771 14.6666V9C6.30771 8.4477 6.76402 8 7.32694 8H9.3654C9.92832 8 10.3846 8.4477 10.3846 9V14.6666" stroke="#383838" stroke-linecap="round" stroke-linejoin="round"/>
</svg>
