<svg width="219" height="189" viewBox="0 0 219 189" fill="none" xmlns="http://www.w3.org/2000/svg">
<path d="M36.7466 82.4933H182.893V185.785" fill="white"/>
<path d="M36.7466 82.4933H182.893V185.785" stroke="#1B1F06" stroke-width="5.82208" stroke-miterlimit="10" stroke-linecap="round" stroke-linejoin="round"/>
<path d="M178.626 82.4933H32.4932V185.785" fill="white"/>
<path d="M178.626 82.4933H32.4932V185.785" stroke="#1B1F06" stroke-width="5.82208" stroke-miterlimit="10" stroke-linecap="round" stroke-linejoin="round"/>
<path d="M215.906 49.9332H65.0262L3.71973 111.24H154.826L215.906 49.9332Z" fill="#D2EAAC"/>
<path d="M215.906 49.9332H65.0262L3.71973 111.24H154.826L215.906 49.9332Z" stroke="#1B1F06" stroke-width="5.82208" stroke-miterlimit="10" stroke-linecap="round" stroke-linejoin="round"/>
<path d="M39.2402 111.24L100.907 49.9332Z" fill="white"/>
<path d="M39.2402 111.24L100.907 49.9332" stroke="#1B1F06" stroke-width="5.82208" stroke-miterlimit="10" stroke-linecap="round" stroke-linejoin="round"/>
<path d="M79.0132 111.347L140.693 50.0268Z" fill="white"/>
<path d="M79.0132 111.347L140.693 50.0268" stroke="#1B1F06" stroke-width="5.82208" stroke-miterlimit="10" stroke-linecap="round" stroke-linejoin="round"/>
<path d="M116.96 111.24L178.627 49.9332Z" fill="white"/>
<path d="M116.96 111.24L178.627 49.9332" stroke="#1B1F06" stroke-width="5.82208" stroke-miterlimit="10" stroke-linecap="round" stroke-linejoin="round"/>
<path d="M34.373 80.5868H182.893" stroke="#1B1F06" stroke-width="5.82208" stroke-miterlimit="10" stroke-linecap="round" stroke-linejoin="round"/>
<path d="M62.8262 3.47992V34.1333" stroke="#1B1F06" stroke-width="5.82208" stroke-miterlimit="10" stroke-linecap="round" stroke-linejoin="round"/>
<path d="M94.0533 19.8399L79.7598 34.1333Z" fill="#D2EAAC"/>
<path d="M94.0533 19.8399L79.7598 34.1333" stroke="#1B1F06" stroke-width="5.82208" stroke-miterlimit="10" stroke-linecap="round" stroke-linejoin="round"/>
<path d="M30.8398 25.4934L45.1464 39.7867Z" fill="#D2EAAC"/>
<path d="M30.8398 25.4934L45.1464 39.7867" stroke="#1B1F06" stroke-width="5.82208" stroke-miterlimit="10" stroke-linecap="round" stroke-linejoin="round"/>
<path d="M8.90674 185.785H205.04" stroke="#1B1F06" stroke-width="5.82208" stroke-miterlimit="10" stroke-linecap="round" stroke-linejoin="round"/>
</svg>
