<svg width="202" height="219" viewBox="0 0 202 219" fill="none" xmlns="http://www.w3.org/2000/svg">
<path d="M24.6733 74.8134V45.28H54.3347" fill="white"/>
<path d="M24.6733 74.8134V45.28H54.3347" stroke="#1B1F06" stroke-width="5.82208" stroke-miterlimit="10" stroke-linecap="round" stroke-linejoin="round"/>
<path d="M199.068 95.2L101.028 3.00004L3 95.2H22.968V199.352C22.968 208.095 30.056 215.187 38.8053 215.187H163.255C172.015 215.187 179.095 208.095 179.095 199.352V95.2H199.068Z" fill="white"/>
<path d="M199.068 95.2L101.028 3.00004L3 95.2H22.968V199.352C22.968 208.095 30.056 215.187 38.8053 215.187H163.255C172.015 215.187 179.095 208.095 179.095 199.352V95.2H199.068Z" stroke="#1B1F06" stroke-width="5.82208" stroke-miterlimit="10" stroke-linecap="round" stroke-linejoin="round"/>
<path d="M73.961 186.96C19.7637 97.8267 130.761 94.3067 130.761 94.3067C130.761 94.3067 177.988 194.816 73.961 186.96Z" fill="#D2EAAC"/>
<path d="M73.961 186.96C19.7637 97.8267 130.761 94.3067 130.761 94.3067C130.761 94.3067 177.988 194.816 73.961 186.96Z" stroke="#1B1F06" stroke-width="5.82208" stroke-miterlimit="10" stroke-linecap="round" stroke-linejoin="round"/>
<path d="M115.695 118.88L73.9614 186.96C73.9614 186.96 58.0413 211.385 24.6733 197.193" stroke="#1B1F06" stroke-width="5.82208" stroke-miterlimit="10" stroke-linecap="round" stroke-linejoin="round"/>
<path d="M99.2143 145.747C99.2143 145.747 85.1344 138.88 88.0544 119.573" stroke="#1B1F06" stroke-width="5.82208" stroke-miterlimit="10" stroke-linecap="round" stroke-linejoin="round"/>
<path d="M99.2144 145.747C99.2144 145.747 111.734 155.187 127.614 143.827" stroke="#1B1F06" stroke-width="5.82208" stroke-miterlimit="10" stroke-linecap="round" stroke-linejoin="round"/>
<path d="M86.8945 165.853C86.8945 165.853 68.6811 156.987 72.4678 132.013" stroke="#1B1F06" stroke-width="5.82208" stroke-miterlimit="10" stroke-linecap="round" stroke-linejoin="round"/>
<path d="M86.8945 165.853C86.8945 165.853 103.068 178.051 123.588 163.347" stroke="#1B1F06" stroke-width="5.82208" stroke-miterlimit="10" stroke-linecap="round" stroke-linejoin="round"/>
</svg>
