<svg width="20" height="18" viewBox="0 0 20 18" fill="none" xmlns="http://www.w3.org/2000/svg">
<mask id="mask0_229_330" style="mask-type:luminance" maskUnits="userSpaceOnUse" x="0" y="0" width="20" height="18">
<path d="M20 0H0V18H20V0Z" fill="white"/>
</mask>
<g mask="url(#mask0_229_330)">
<path d="M17.6494 10.1765C17.3245 12.0406 16.1706 14.0872 14.5132 15.3651C13.9326 12.1481 9.51643 9.39511 14.2441 6.72358C14.2441 6.72358 15.8617 9.00615 15.4202 11.5167C15.4686 11.4337 16.7495 9.11969 14.8592 5.5996C14.7265 5.35307 14.604 5.12055 14.4892 4.90147L14.4871 4.89861L13.3733 3.03961C13.0313 2.469 12.5396 1.99519 11.9475 1.66577C11.3554 1.33635 10.6838 1.16293 10.0002 1.16293C9.31657 1.16293 8.64497 1.33635 8.05288 1.66577C7.46079 1.99519 6.96907 2.469 6.62711 3.03961L6.51199 3.2318C5.83965 3.40541 5.22369 3.64851 4.68933 3.95081L5.5836 2.45846C6.50576 0.919205 8.15662 0 10.0006 0C11.8446 0 13.4958 0.919205 14.4177 2.45789L17.2402 7.17232C17.2427 7.17546 17.2449 7.17881 17.2468 7.18233C17.7375 7.97169 17.847 9.04104 17.6494 10.1765Z" fill="#143529"/>
<path d="M13.9318 12.1887C12.656 10.2207 12.2486 8.58108 14.244 6.72351C9.51569 9.3959 13.9324 12.1487 14.5131 15.3656C14.8902 14.7126 14.9062 13.6931 13.9318 12.1887Z" fill="#143529"/>
<path d="M12.9068 2.4127C11.0308 0.234237 8.0833 0.289721 6.67603 1.1829C6.24168 1.54628 5.87344 1.97713 5.58653 2.4576L4.68811 3.95024C5.22218 3.64794 5.83843 3.40484 6.51077 3.23123L6.62589 3.03904C6.93402 2.52467 7.36427 2.08804 7.88134 1.76496C8.39841 1.44189 8.98757 1.24158 9.6005 1.18045C10.2134 1.11933 10.8326 1.19914 11.4074 1.41334C11.9821 1.62754 12.496 1.97003 12.9068 2.4127Z" fill="#143529"/>
<path d="M12.3223 4.13073C9.68902 6.1845 9.34187 11.2433 4.61981 8.56088C4.61981 8.56088 5.90365 6.08698 8.39509 5.23841C8.3485 5.23841 5.60131 5.25271 3.30927 8.5789L1.73673 11.2058C1.39498 11.7765 1.21507 12.4238 1.21505 13.0827C1.21503 13.7417 1.39492 14.389 1.73663 14.9597C2.07835 15.5304 2.56986 16.0043 3.16178 16.334C3.7537 16.6636 4.42519 16.8372 5.10878 16.8374H5.31262C5.79684 17.3062 6.31993 17.7012 6.86082 18H5.11026C3.26624 18 1.61508 17.0808 0.693217 15.5404C-0.228645 14 -0.228942 12.1636 0.693217 10.6241L3.56562 5.829C3.5677 5.82443 3.56948 5.82185 3.57126 5.81814L3.60567 5.76094C3.60923 5.75379 3.61398 5.74749 3.61754 5.74149C4.09642 4.99131 4.96636 4.41101 6.03124 4.03464C7.88772 3.38056 10.3356 3.34623 12.3223 4.13073Z" fill="#143529"/>
<path d="M9.72545 6.16534C8.56177 8.19595 7.27407 9.33823 4.61975 8.56088C9.34181 11.2433 9.68896 6.18451 12.3222 4.13074C11.5472 4.13074 10.615 4.61322 9.72545 6.16534Z" fill="#143529"/>
<path d="M5.10883 16.8373C4.42433 16.8413 3.7511 16.6694 3.15834 16.3394C2.56559 16.0094 2.07471 15.5332 1.73619 14.9598C1.07631 13.8587 1.03477 12.5573 1.61216 11.4291C0.369563 13.7131 0.3752 15.115 1.0867 16.1083C2.04743 17.303 3.50395 17.9999 5.10883 17.9999H6.85939C6.3185 17.7011 5.79541 17.3061 5.31118 16.8373H5.10883Z" fill="#143529"/>
<path d="M19.3084 15.5409C18.3865 17.0807 16.7354 18.0005 14.8913 18.0005H9.03675C8.11281 17.9905 7.14465 17.5515 6.26611 16.8379C4.74728 15.6018 3.49815 13.5455 3.23022 11.4757C6.37827 12.68 11.1226 10.4913 11.0125 15.7725C11.0125 15.7725 8.14544 15.9075 6.15663 14.2301C6.15663 14.2301 7.43483 16.4475 11.349 16.8373H14.8913C15.575 16.8373 16.2467 16.6639 16.8389 16.3344C17.431 16.0049 17.9227 15.5309 18.2646 14.9602C18.6065 14.3895 18.7865 13.742 18.7865 13.083C18.7866 12.4239 18.6067 11.7765 18.2649 11.2057L18.1313 10.9838C18.3049 10.3365 18.393 9.69361 18.3856 9.08557L19.3084 10.6254C20.2305 12.1641 20.2305 14.0022 19.3084 15.5409Z" fill="#143529"/>
<path d="M6.34325 12.6589C8.75013 12.6406 10.414 13.1623 11.0131 15.7731C11.1223 10.4907 6.37856 12.6803 3.23022 11.4757C3.6103 12.1264 4.50368 12.6729 6.34325 12.6589Z" fill="#143529"/>
<path d="M15.0238 16.8355C17.9547 16.7917 19.6744 15.3011 19.9922 13.3423C20.0438 12.3919 19.8066 11.4476 19.3097 10.6253L18.387 9.08545C18.3944 9.69349 18.3063 10.3364 18.1327 10.9836L18.2662 11.2056C18.612 11.775 18.7943 12.4228 18.7943 13.0826C18.7943 13.7424 18.612 14.3902 18.2662 14.9596C17.5832 16.0987 16.3783 16.7932 15.0238 16.8355Z" fill="#143529"/>
</g>
</svg>
