<svg width="137" height="219" viewBox="0 0 137 219" fill="none" xmlns="http://www.w3.org/2000/svg">
<path d="M133.56 69.2133C133.56 33.1333 104.306 3.89339 68.2263 3.89339C32.1596 3.89339 2.90625 33.1333 2.90625 69.2133C2.90625 84.5733 8.21022 98.6933 17.0796 109.84C17.0129 109.867 16.9729 109.893 16.9729 109.893C16.9729 109.893 44.8796 143.827 45.8396 178.707H90.893C91.8396 143.827 119.76 109.893 119.76 109.893C119.68 109.813 119.6 109.747 119.506 109.68C128.306 98.5466 133.56 84.4933 133.56 69.2133Z" fill="white"/>
<path d="M133.56 69.2133C133.56 33.1333 104.306 3.89339 68.2263 3.89339C32.1596 3.89339 2.90625 33.1333 2.90625 69.2133C2.90625 84.5733 8.21022 98.6933 17.0796 109.84C17.0129 109.867 16.9729 109.893 16.9729 109.893C16.9729 109.893 44.8796 143.827 45.8396 178.707H90.893C91.8396 143.827 119.76 109.893 119.76 109.893C119.68 109.813 119.6 109.747 119.506 109.68C128.306 98.5466 133.56 84.4933 133.56 69.2133Z" stroke="#1B1F06" stroke-width="5.82208" stroke-miterlimit="10" stroke-linecap="round" stroke-linejoin="round"/>
<path d="M95.7063 185.173C95.7063 188.987 92.613 192.093 88.7996 192.093H47.693C43.8797 192.093 40.7729 188.987 40.7729 185.173C40.7729 181.347 43.8797 178.253 47.693 178.253H88.7996C92.613 178.253 95.7063 181.347 95.7063 185.173Z" fill="white"/>
<path d="M95.7063 185.173C95.7063 188.987 92.613 192.093 88.7996 192.093H47.693C43.8797 192.093 40.7729 188.987 40.7729 185.173C40.7729 181.347 43.8797 178.253 47.693 178.253H88.7996C92.613 178.253 95.7063 181.347 95.7063 185.173Z" stroke="#1B1F06" stroke-width="5.82208" stroke-miterlimit="10" stroke-linecap="round" stroke-linejoin="round"/>
<path d="M95.7063 199C95.7063 202.827 92.613 205.92 88.7996 205.92H47.693C43.8797 205.92 40.7729 202.827 40.7729 199C40.7729 195.187 43.8797 192.093 47.693 192.093H88.7996C92.613 192.093 95.7063 195.187 95.7063 199Z" fill="white"/>
<path d="M95.7063 199C95.7063 202.827 92.613 205.92 88.7996 205.92H47.693C43.8797 205.92 40.7729 202.827 40.7729 199C40.7729 195.187 43.8797 192.093 47.693 192.093H88.7996C92.613 192.093 95.7063 195.187 95.7063 199Z" stroke="#1B1F06" stroke-width="5.82208" stroke-miterlimit="10" stroke-linecap="round" stroke-linejoin="round"/>
<path d="M88.9333 210.853C88.9333 213.747 86.6 216.08 83.72 216.08H52.7333C49.8533 216.08 47.52 213.747 47.52 210.853C47.52 207.973 49.8533 205.64 52.7333 205.64H83.72C86.6 205.64 88.9333 207.973 88.9333 210.853Z" fill="white"/>
<path d="M88.9333 210.853C88.9333 213.747 86.6 216.08 83.72 216.08H52.7333C49.8533 216.08 47.52 213.747 47.52 210.853C47.52 207.973 49.8533 205.64 52.7333 205.64H83.72C86.6 205.64 88.9333 207.973 88.9333 210.853Z" stroke="#1B1F06" stroke-width="5.82208" stroke-miterlimit="10" stroke-linecap="round" stroke-linejoin="round"/>
<path d="M68.2266 145.947C-9.82805 105.84 68.2266 54.5201 68.2266 54.5201C68.2266 54.5201 146.293 105.84 68.2266 145.947Z" fill="#D2EAAC"/>
<path d="M68.2266 145.947C-9.82805 105.84 68.2266 54.5201 68.2266 54.5201C68.2266 54.5201 146.293 105.84 68.2266 145.947Z" stroke="#1B1F06" stroke-width="5.82208" stroke-miterlimit="10" stroke-linecap="round" stroke-linejoin="round"/>
<path d="M68.2266 78.7601V178.253" stroke="#1B1F06" stroke-width="5.82208" stroke-miterlimit="10" stroke-linecap="round" stroke-linejoin="round"/>
<path d="M68.2264 105.28C68.2264 105.28 55.1064 106.56 48.7197 91.4132" stroke="#1B1F06" stroke-width="5.82208" stroke-miterlimit="10" stroke-linecap="round" stroke-linejoin="round"/>
<path d="M68.2266 105.28C68.2266 105.28 81.3465 106.56 87.7465 91.4132" stroke="#1B1F06" stroke-width="5.82208" stroke-miterlimit="10" stroke-linecap="round" stroke-linejoin="round"/>
<path d="M68.2266 125.12C68.2266 125.12 51.2798 126.76 43.0132 107.187" stroke="#1B1F06" stroke-width="5.82208" stroke-miterlimit="10" stroke-linecap="round" stroke-linejoin="round"/>
<path d="M68.2266 125.12C68.2266 125.12 85.1866 126.76 93.4533 107.187" stroke="#1B1F06" stroke-width="5.82208" stroke-miterlimit="10" stroke-linecap="round" stroke-linejoin="round"/>
</svg>
