<svg width="228" height="21" viewBox="0 0 228 21" fill="none" xmlns="http://www.w3.org/2000/svg">
<path d="M37.3117 5.33997V15H36.3317V7.28597L32.8877 15H32.1737L28.7297 7.31397V15H27.7497V5.33997H28.7857L32.5237 13.712L36.2617 5.33997H37.3117ZM44.2808 15.112C43.5622 15.112 42.9135 14.9533 42.3348 14.636C41.7655 14.3093 41.3128 13.852 40.9768 13.264C40.6502 12.6667 40.4868 11.9713 40.4868 11.178C40.4868 10.3847 40.6548 9.69397 40.9908 9.10597C41.3268 8.50864 41.7842 8.0513 42.3628 7.73397C42.9415 7.4073 43.5902 7.24397 44.3088 7.24397C45.0275 7.24397 45.6762 7.4073 46.2548 7.73397C46.8428 8.0513 47.3002 8.50864 47.6268 9.10597C47.9628 9.69397 48.1308 10.3847 48.1308 11.178C48.1308 11.962 47.9628 12.6527 47.6268 13.25C47.2908 13.8473 46.8288 14.3093 46.2408 14.636C45.6528 14.9533 44.9995 15.112 44.2808 15.112ZM44.2808 14.258C44.7848 14.258 45.2515 14.146 45.6808 13.922C46.1102 13.6887 46.4555 13.3433 46.7168 12.886C46.9875 12.4193 47.1228 11.85 47.1228 11.178C47.1228 10.506 46.9922 9.9413 46.7308 9.48397C46.4695 9.0173 46.1242 8.67197 45.6948 8.44797C45.2655 8.21464 44.7988 8.09797 44.2948 8.09797C43.7908 8.09797 43.3242 8.21464 42.8948 8.44797C42.4655 8.67197 42.1202 9.0173 41.8588 9.48397C41.6068 9.9413 41.4808 10.506 41.4808 11.178C41.4808 11.85 41.6068 12.4193 41.8588 12.886C42.1202 13.3433 42.4608 13.6887 42.8808 13.922C43.3102 14.146 43.7768 14.258 44.2808 14.258ZM44.3368 5.29797L42.4608 6.47397V5.67597L44.3368 4.52797L46.2128 5.67597V6.47397L44.3368 5.29797ZM51.8073 5.91397C51.6113 5.91397 51.4433 5.84397 51.3033 5.70397C51.1633 5.56397 51.0933 5.3913 51.0933 5.18597C51.0933 4.98064 51.1633 4.81264 51.3033 4.68197C51.4433 4.54197 51.6113 4.47197 51.8073 4.47197C52.0033 4.47197 52.1713 4.54197 52.3113 4.68197C52.4513 4.81264 52.5213 4.98064 52.5213 5.18597C52.5213 5.3913 52.4513 5.56397 52.3113 5.70397C52.1713 5.84397 52.0033 5.91397 51.8073 5.91397ZM52.2973 7.35597V15H51.3173V7.35597H52.2973ZM62.4323 8.18197V12.928C62.4323 13.3947 62.5209 13.7167 62.6983 13.894C62.8756 14.0713 63.1883 14.16 63.6363 14.16H64.5323V15H63.4823C62.7916 15 62.2783 14.8413 61.9423 14.524C61.6063 14.1973 61.4383 13.6653 61.4383 12.928V8.18197H60.3743V7.35597H61.4383V5.43797H62.4323V7.35597H64.5323V8.18197H62.4323ZM68.5285 8.71397C68.7432 8.23797 69.0698 7.8693 69.5085 7.60797C69.9565 7.34664 70.5025 7.21597 71.1465 7.21597V8.23797H70.8805C70.1712 8.23797 69.6018 8.4293 69.1725 8.81197C68.7432 9.19464 68.5285 9.83397 68.5285 10.73V15H67.5485V7.35597H68.5285V8.71397ZM82.8128 6.48797C82.7568 6.81464 82.6728 7.13197 82.5608 7.43997C82.4581 7.74797 82.3134 8.02797 82.1268 8.27997C81.9494 8.52264 81.7161 8.72797 81.4268 8.89597C81.1374 9.05464 80.7828 9.1573 80.3628 9.20397V15H79.3548L79.1728 14.006H79.1168C78.9581 14.2673 78.7528 14.482 78.5008 14.65C78.2581 14.818 77.9874 14.9393 77.6888 15.014C77.3901 15.098 77.0821 15.14 76.7648 15.14C76.1581 15.14 75.6494 15.0467 75.2388 14.86C74.8281 14.664 74.5201 14.3653 74.3148 13.964C74.1094 13.5627 74.0068 13.0447 74.0068 12.41V7.50997H75.2528V12.326C75.2528 12.9233 75.3881 13.3713 75.6588 13.67C75.9294 13.9687 76.3494 14.118 76.9188 14.118C77.7494 14.118 78.3234 13.8847 78.6408 13.418C78.9674 12.9513 79.1308 12.2793 79.1308 11.402V7.50997H80.3628V8.33597C80.6614 8.27997 80.8854 8.1633 81.0348 7.98597C81.1841 7.80864 81.2821 7.57997 81.3288 7.29997C81.3848 7.01064 81.4128 6.68864 81.4128 6.33397H82.7148L82.8128 6.48797ZM91.4484 11.234C91.4484 12.0647 91.3037 12.774 91.0144 13.362C90.7344 13.9407 90.333 14.384 89.8104 14.692C89.2877 14.9907 88.667 15.14 87.9484 15.14C87.2857 15.14 86.693 14.9907 86.1704 14.692C85.657 14.384 85.251 13.9407 84.9524 13.362C84.6537 12.774 84.5044 12.0647 84.5044 11.234C84.5044 9.99264 84.817 9.03597 85.4424 8.36397C86.0677 7.69197 86.917 7.35597 87.9904 7.35597C88.485 7.35597 88.9377 7.43997 89.3484 7.60797C89.7684 7.77597 90.1277 8.01397 90.4264 8.32197C90.7064 8.23797 90.9117 8.10264 91.0424 7.91597C91.1824 7.71997 91.271 7.48664 91.3084 7.21597C91.3457 6.9453 91.3644 6.65597 91.3644 6.34797H92.6804L92.7784 6.50197C92.6944 6.9313 92.5777 7.31397 92.4284 7.64997C92.2884 7.98597 92.1017 8.2753 91.8684 8.51797C91.635 8.7513 91.3364 8.9333 90.9724 9.06397C91.1217 9.3533 91.2384 9.67997 91.3224 10.044C91.4064 10.408 91.4484 10.8047 91.4484 11.234ZM85.7784 11.234C85.7784 11.8593 85.853 12.3867 86.0024 12.816C86.161 13.2453 86.399 13.572 86.7164 13.796C87.043 14.0107 87.463 14.118 87.9764 14.118C88.4897 14.118 88.905 14.0107 89.2224 13.796C89.549 13.572 89.787 13.2453 89.9364 12.816C90.095 12.3867 90.1744 11.8593 90.1744 11.234C90.1744 10.6087 90.095 10.086 89.9364 9.66597C89.787 9.24597 89.549 8.92864 89.2224 8.71397C88.8957 8.4993 88.4757 8.39197 87.9624 8.39197C87.197 8.39197 86.6417 8.62997 86.2964 9.10597C85.951 9.58197 85.7784 10.2913 85.7784 11.234ZM87.6124 4.27597C87.715 4.4813 87.841 4.71464 87.9904 4.97597C88.149 5.22797 88.3124 5.4753 88.4804 5.71797C88.6577 5.96064 88.8164 6.17064 88.9564 6.34797V6.51597H88.1304C87.9717 6.3853 87.7944 6.2313 87.5984 6.05397C87.4024 5.8673 87.2064 5.67597 87.0104 5.47997C86.8237 5.27464 86.651 5.07864 86.4924 4.89197C86.343 4.7053 86.2264 4.54664 86.1424 4.41597V4.27597H87.6124ZM98.4653 7.21597C99.38 7.21597 100.127 7.50064 100.705 8.06997C101.284 8.62997 101.573 9.44664 101.573 10.52V15H100.607V10.632C100.607 9.8013 100.397 9.16664 99.9773 8.72797C99.5667 8.2893 99.002 8.06997 98.2833 8.06997C97.546 8.06997 96.958 8.3033 96.5193 8.76997C96.0807 9.23664 95.8613 9.92264 95.8613 10.828V15H94.8813V7.35597H95.8613V8.65797C96.104 8.1913 96.454 7.83664 96.9113 7.59397C97.3687 7.34197 97.8867 7.21597 98.4653 7.21597ZM108.347 7.24397C109.065 7.24397 109.691 7.41197 110.223 7.74797C110.755 8.08397 111.137 8.50864 111.371 9.02197V7.35597H112.351V15.196C112.351 15.896 112.197 16.5167 111.889 17.058C111.59 17.5993 111.17 18.0147 110.629 18.304C110.087 18.6027 109.471 18.752 108.781 18.752C107.801 18.752 106.984 18.5187 106.331 18.052C105.687 17.5853 105.285 16.9507 105.127 16.148H106.093C106.261 16.68 106.578 17.1047 107.045 17.422C107.521 17.7393 108.099 17.898 108.781 17.898C109.275 17.898 109.719 17.7907 110.111 17.576C110.503 17.3707 110.811 17.0627 111.035 16.652C111.259 16.2413 111.371 15.756 111.371 15.196V13.306C111.128 13.8287 110.741 14.2627 110.209 14.608C109.686 14.944 109.065 15.112 108.347 15.112C107.647 15.112 107.017 14.9487 106.457 14.622C105.906 14.2953 105.472 13.8333 105.155 13.236C104.847 12.6387 104.693 11.948 104.693 11.164C104.693 10.38 104.847 9.69397 105.155 9.10597C105.472 8.50864 105.906 8.0513 106.457 7.73397C107.017 7.4073 107.647 7.24397 108.347 7.24397ZM111.371 11.178C111.371 10.562 111.245 10.0207 110.993 9.55397C110.741 9.0873 110.395 8.72797 109.957 8.47597C109.527 8.22397 109.051 8.09797 108.529 8.09797C107.987 8.09797 107.502 8.2193 107.073 8.46197C106.643 8.70464 106.303 9.0593 106.051 9.52597C105.808 9.9833 105.687 10.5293 105.687 11.164C105.687 11.7893 105.808 12.34 106.051 12.816C106.303 13.2827 106.643 13.642 107.073 13.894C107.502 14.1367 107.987 14.258 108.529 14.258C109.051 14.258 109.527 14.132 109.957 13.88C110.395 13.628 110.741 13.2687 110.993 12.802C111.245 12.3353 111.371 11.794 111.371 11.178ZM125.234 15L123.26 11.92L121.356 15H120.32L122.784 11.178L120.348 7.35597H121.454L123.4 10.394L125.29 7.35597H126.312L123.876 11.136L126.34 15H125.234ZM128.621 11.164C128.621 10.38 128.775 9.69397 129.083 9.10597C129.401 8.50864 129.835 8.0513 130.385 7.73397C130.945 7.4073 131.575 7.24397 132.275 7.24397C133.003 7.24397 133.629 7.41197 134.151 7.74797C134.683 8.08397 135.066 8.5133 135.299 9.03597V7.35597H136.279V15H135.299V13.306C135.057 13.8287 134.669 14.2627 134.137 14.608C133.615 14.944 132.989 15.112 132.261 15.112C131.571 15.112 130.945 14.9487 130.385 14.622C129.835 14.2953 129.401 13.8333 129.083 13.236C128.775 12.6387 128.621 11.948 128.621 11.164ZM135.299 11.178C135.299 10.562 135.173 10.0207 134.921 9.55397C134.669 9.0873 134.324 8.72797 133.885 8.47597C133.456 8.22397 132.98 8.09797 132.457 8.09797C131.916 8.09797 131.431 8.2193 131.001 8.46197C130.572 8.70464 130.231 9.0593 129.979 9.52597C129.737 9.9833 129.615 10.5293 129.615 11.164C129.615 11.7893 129.737 12.34 129.979 12.816C130.231 13.2827 130.572 13.642 131.001 13.894C131.431 14.1367 131.916 14.258 132.457 14.258C132.98 14.258 133.456 14.132 133.885 13.88C134.324 13.628 134.669 13.2687 134.921 12.802C135.173 12.3353 135.299 11.794 135.299 11.178ZM143.5 7.21597C144.415 7.21597 145.162 7.50064 145.74 8.06997C146.319 8.62997 146.608 9.44664 146.608 10.52V15H145.642V10.632C145.642 9.8013 145.432 9.16664 145.012 8.72797C144.602 8.2893 144.037 8.06997 143.318 8.06997C142.581 8.06997 141.993 8.3033 141.554 8.76997C141.116 9.23664 140.896 9.92264 140.896 10.828V15H139.916V7.35597H140.896V8.65797C141.139 8.1913 141.489 7.83664 141.946 7.59397C142.404 7.34197 142.922 7.21597 143.5 7.21597ZM153.816 7.21597C154.395 7.21597 154.913 7.3373 155.37 7.57997C155.837 7.82264 156.201 8.19597 156.462 8.69997C156.733 9.19464 156.868 9.8013 156.868 10.52V15H155.902V10.632C155.902 9.8013 155.692 9.16664 155.272 8.72797C154.861 8.2893 154.297 8.06997 153.578 8.06997C152.841 8.06997 152.253 8.3033 151.814 8.76997C151.375 9.23664 151.156 9.92264 151.156 10.828V15H150.176V4.63997H151.156V8.65797C151.399 8.20064 151.753 7.84597 152.22 7.59397C152.696 7.34197 153.228 7.21597 153.816 7.21597ZM171.403 5.21397V6.02597H168.687V15H167.707V6.02597H164.977V5.21397H171.403ZM173.902 11.164C173.902 10.38 174.056 9.69397 174.364 9.10597C174.682 8.50864 175.116 8.0513 175.666 7.73397C176.226 7.4073 176.856 7.24397 177.556 7.24397C178.284 7.24397 178.91 7.41197 179.432 7.74797C179.964 8.08397 180.347 8.5133 180.58 9.03597V7.35597H181.56V15H180.58V13.306C180.338 13.8287 179.95 14.2627 179.418 14.608C178.896 14.944 178.27 15.112 177.542 15.112C176.852 15.112 176.226 14.9487 175.666 14.622C175.116 14.2953 174.682 13.8333 174.364 13.236C174.056 12.6387 173.902 11.948 173.902 11.164ZM180.58 11.178C180.58 10.562 180.454 10.0207 180.202 9.55397C179.95 9.0873 179.605 8.72797 179.166 8.47597C178.737 8.22397 178.261 8.09797 177.738 8.09797C177.197 8.09797 176.712 8.2193 176.282 8.46197C175.853 8.70464 175.512 9.0593 175.26 9.52597C175.018 9.9833 174.896 10.5293 174.896 11.164C174.896 11.7893 175.018 12.34 175.26 12.816C175.512 13.2827 175.853 13.642 176.282 13.894C176.712 14.1367 177.197 14.258 177.738 14.258C178.261 14.258 178.737 14.132 179.166 13.88C179.605 13.628 179.95 13.2687 180.202 12.802C180.454 12.3353 180.58 11.794 180.58 11.178ZM177.976 5.36797L176.1 6.54397V5.74597L177.976 4.59797L179.852 5.74597V6.54397L177.976 5.36797ZM188.782 7.21597C189.696 7.21597 190.443 7.50064 191.022 8.06997C191.6 8.62997 191.89 9.44664 191.89 10.52V15H190.924V10.632C190.924 9.8013 190.714 9.16664 190.294 8.72797C189.883 8.2893 189.318 8.06997 188.6 8.06997C187.862 8.06997 187.274 8.3033 186.836 8.76997C186.397 9.23664 186.178 9.92264 186.178 10.828V15H185.198V7.35597H186.178V8.65797C186.42 8.1913 186.77 7.83664 187.228 7.59397C187.685 7.34197 188.203 7.21597 188.782 7.21597ZM206.957 8.02797C206.957 8.86797 206.682 9.54464 206.131 10.058C205.58 10.5713 204.754 10.828 203.653 10.828H201.679V15H200.699V5.21397H203.653C204.745 5.21397 205.566 5.47064 206.117 5.98397C206.677 6.4973 206.957 7.17864 206.957 8.02797ZM203.653 9.98797C205.184 9.98797 205.949 9.33464 205.949 8.02797C205.949 7.37464 205.767 6.87997 205.403 6.54397C205.039 6.20797 204.456 6.03997 203.653 6.03997H201.679V9.98797H203.653ZM213.641 7.21597C214.22 7.21597 214.738 7.3373 215.195 7.57997C215.662 7.82264 216.026 8.19597 216.287 8.69997C216.558 9.19464 216.693 9.8013 216.693 10.52V15H215.727V10.632C215.727 9.8013 215.517 9.16664 215.097 8.72797C214.687 8.2893 214.122 8.06997 213.403 8.06997C212.666 8.06997 212.078 8.3033 211.639 8.76997C211.201 9.23664 210.981 9.92264 210.981 10.828V15H210.001V4.63997H210.981V8.65797C211.224 8.20064 211.579 7.84597 212.045 7.59397C212.521 7.34197 213.053 7.21597 213.641 7.21597ZM226.883 7.35597V15H225.903V13.656C225.679 14.132 225.333 14.496 224.867 14.748C224.4 15 223.877 15.126 223.299 15.126C222.384 15.126 221.637 14.846 221.059 14.286C220.48 13.7167 220.191 12.8953 220.191 11.822V7.35597H221.157V11.71C221.157 12.5407 221.362 13.1753 221.773 13.614C222.193 14.0527 222.762 14.272 223.481 14.272C224.218 14.272 224.806 14.0387 225.245 13.572C225.683 13.1053 225.903 12.4193 225.903 11.514V7.35597H226.883ZM224.867 5.10197L221.997 6.76797V6.01197L224.867 4.21997V5.10197Z" fill="#143529"/>
<mask id="mask0_210_2" style="mask-type:luminance" maskUnits="userSpaceOnUse" x="0" y="0" width="20" height="18">
<path d="M20 0H0V18H20V0Z" fill="white"/>
</mask>
<g mask="url(#mask0_210_2)">
<path d="M17.6493 10.1765C17.3244 12.0406 16.1705 14.0872 14.5131 15.3651C13.9325 12.1481 9.51631 9.39511 14.244 6.72358C14.244 6.72358 15.8616 9.00615 15.4201 11.5167C15.4685 11.4337 16.7494 9.11969 14.8591 5.5996C14.7264 5.35307 14.6039 5.12055 14.4891 4.90147L14.487 4.89861L13.3732 3.03961C13.0312 2.469 12.5395 1.99519 11.9474 1.66577C11.3553 1.33635 10.6837 1.16293 10.0001 1.16293C9.31645 1.16293 8.64485 1.33635 8.05276 1.66577C7.46067 1.99519 6.96895 2.469 6.62699 3.03961L6.51187 3.2318C5.83953 3.40541 5.22357 3.64851 4.68921 3.95081L5.58348 2.45846C6.50564 0.919205 8.1565 0 10.0005 0C11.8445 0 13.4957 0.919205 14.4176 2.45789L17.2401 7.17232C17.2426 7.17546 17.2448 7.17881 17.2467 7.18233C17.7374 7.97169 17.8469 9.04104 17.6493 10.1765Z" fill="#143529"/>
<path d="M13.9318 12.1886C12.656 10.2206 12.2486 8.58096 14.244 6.72339C9.51569 9.39578 13.9324 12.1486 14.5131 15.3655C14.8902 14.7125 14.9062 13.693 13.9318 12.1886Z" fill="#143529"/>
<path d="M12.9067 2.4127C11.0307 0.234237 8.08318 0.289721 6.67591 1.1829C6.24156 1.54628 5.87332 1.97713 5.58641 2.4576L4.68799 3.95024C5.22206 3.64794 5.83831 3.40484 6.51065 3.23123L6.62577 3.03904C6.9339 2.52467 7.36415 2.08804 7.88122 1.76496C8.39829 1.44189 8.98745 1.24158 9.60038 1.18045C10.2133 1.11933 10.8325 1.19914 11.4073 1.41334C11.982 1.62754 12.4959 1.97003 12.9067 2.4127Z" fill="#143529"/>
<path d="M12.3222 4.13073C9.68896 6.1845 9.34181 11.2433 4.61975 8.56088C4.61975 8.56088 5.90359 6.08698 8.39503 5.23841C8.34844 5.23841 5.60125 5.25271 3.30921 8.5789L1.73667 11.2058C1.39492 11.7765 1.21501 12.4238 1.21499 13.0827C1.21497 13.7417 1.39486 14.389 1.73657 14.9597C2.07829 15.5304 2.5698 16.0043 3.16172 16.334C3.75364 16.6636 4.42513 16.8372 5.10872 16.8374H5.31256C5.79678 17.3062 6.31987 17.7012 6.86076 18H5.1102C3.26618 18 1.61502 17.0808 0.693156 15.5404C-0.228706 14 -0.229003 12.1636 0.693156 10.6241L3.56556 5.829C3.56764 5.82443 3.56942 5.82185 3.5712 5.81814L3.60561 5.76094C3.60917 5.75379 3.61392 5.74749 3.61748 5.74149C4.09636 4.99131 4.9663 4.41101 6.03118 4.03464C7.88766 3.38056 10.3355 3.34623 12.3222 4.13073Z" fill="#143529"/>
<path d="M9.72545 6.16546C8.56177 8.19607 7.27407 9.33835 4.61975 8.561C9.34181 11.2434 9.68896 6.18463 12.3222 4.13086C11.5472 4.13086 10.615 4.61334 9.72545 6.16546Z" fill="#143529"/>
<path d="M5.10877 16.8374C4.42427 16.8414 3.75104 16.6695 3.15828 16.3395C2.56553 16.0095 2.07465 15.5333 1.73613 14.9599C1.07625 13.8588 1.03471 12.5574 1.6121 11.4292C0.369502 13.7132 0.375139 15.1151 1.08664 16.1084C2.04737 17.3031 3.50389 18 5.10877 18H6.85933C6.31844 17.7012 5.79535 17.3062 5.31112 16.8374H5.10877Z" fill="#143529"/>
<path d="M19.3084 15.5408C18.3865 17.0806 16.7354 18.0004 14.8914 18.0004H9.03677C8.11283 17.9904 7.14469 17.5514 6.26614 16.8378C4.74731 15.6017 3.49818 13.5454 3.23026 11.4756C6.3783 12.6799 11.1226 10.4912 11.0125 15.7724C11.0125 15.7724 8.14547 15.9074 6.15666 14.23C6.15666 14.23 7.43486 16.4474 11.349 16.8372H14.8914C15.5751 16.8372 16.2468 16.6638 16.8389 16.3343C17.431 16.0048 17.9227 15.5308 18.2646 14.9601C18.6065 14.3894 18.7865 13.7419 18.7866 13.0829C18.7866 12.4238 18.6067 11.7764 18.2649 11.2056L18.1314 10.9837C18.305 10.3364 18.3931 9.69349 18.3857 9.08545L19.3084 10.6253C20.2306 12.164 20.2306 14.0021 19.3084 15.5408Z" fill="#143529"/>
<path d="M6.34328 12.6588C8.75015 12.6405 10.4141 13.1622 11.0131 15.773C11.1223 10.4906 6.37859 12.6802 3.23026 11.4756C3.61033 12.1263 4.50371 12.6728 6.34328 12.6588Z" fill="#143529"/>
<path d="M15.0237 16.8355C17.9546 16.7917 19.6743 15.3011 19.9921 13.3423C20.0437 12.3919 19.8065 11.4476 19.3096 10.6253L18.3869 9.08545C18.3943 9.69349 18.3062 10.3364 18.1326 10.9836L18.2661 11.2056C18.6119 11.775 18.7942 12.4228 18.7942 13.0826C18.7942 13.7424 18.6119 14.3902 18.2661 14.9596C17.5831 16.0987 16.3782 16.7932 15.0237 16.8355Z" fill="#143529"/>
</g>
</svg>
