<svg width="60" height="60" viewBox="0 0 60 60" fill="none" xmlns="http://www.w3.org/2000/svg">
<path d="M34.8164 36.7969C34.5 36.7969 34.2539 36.5391 34.2539 36.2344C34.2422 34.2305 33.75 33.75 32.6602 32.707C32.2383 32.3086 31.7695 31.8516 31.2305 31.2188C30 29.8125 29.0742 28.1836 28.5117 26.3555C28.1016 25.0313 27.8906 23.6602 27.8906 22.2539C27.8906 18.4453 29.4141 14.918 32.1797 12.3047C34.9453 9.69141 38.5781 8.37891 42.3984 8.61329C45.8203 8.82423 49.0195 10.2891 51.3867 12.75C53.7539 15.1992 55.1016 18.4336 55.207 21.8672C55.2422 23.3789 55.043 24.8906 54.5859 26.3438C53.9766 28.2188 53.0273 29.8828 51.7617 31.3008C51.2461 31.8867 50.8008 32.3203 50.4023 32.707C49.3008 33.7734 48.8437 34.207 48.8437 36.2109C48.8437 36.5274 48.5859 36.7734 48.2812 36.7734C47.9766 36.7734 47.7188 36.5156 47.7188 36.2109C47.7188 33.7149 48.4805 32.9883 49.6406 31.875C50.0156 31.5117 50.4609 31.1016 50.9414 30.5391C52.1016 29.2383 52.9687 27.7031 53.5312 25.9805C53.9414 24.6445 54.1289 23.2617 54.0938 21.8789C53.8711 15.3633 48.832 10.1367 42.3398 9.75001C38.8477 9.53907 35.5195 10.7461 32.9766 13.1367C30.4336 15.5274 29.0391 18.7617 29.0391 22.2539C29.0391 23.543 29.2266 24.8086 29.6016 26.0156C30.1289 27.6797 30.9609 29.1797 32.0977 30.457C32.6016 31.043 33.0586 31.4883 33.457 31.8633C34.6172 32.9766 35.3906 33.7266 35.4023 36.2227C35.3789 36.5391 35.1328 36.7852 34.8164 36.7969Z" fill="#639B27"/>
<path d="M48.5508 39.9141H34.5234C33.5508 39.9141 32.7539 39.1172 32.7539 38.1445V36.7852C32.7539 36.1523 33.2578 35.6484 33.8906 35.6484H49.1484C49.7812 35.6484 50.2852 36.1523 50.2852 36.7852V38.1445C50.2969 38.6133 50.1211 39.0469 49.8047 39.3867C49.4648 39.7266 49.0195 39.9141 48.5508 39.9141ZM33.9023 36.7969V38.1562C33.9023 38.5078 34.1836 38.7891 34.5352 38.7891H48.5508C48.7148 38.7891 48.8555 38.7305 48.9727 38.6133C49.0781 38.5078 49.1367 38.3555 49.1367 38.1914V36.7969H33.9023Z" fill="#639B27"/>
<path d="M45.5625 43.043H37.5C36.3984 43.043 35.5078 42.1406 35.5078 41.0508V39.3516C35.5078 39.0352 35.7656 38.7891 36.0703 38.7891C36.375 38.7891 36.6328 39.0469 36.6328 39.3516V41.0508C36.6328 41.5195 37.0078 41.8945 37.4766 41.8945H45.5508C46.0195 41.8945 46.3945 41.5195 46.3945 41.0508V39.3516C46.3945 39.0352 46.6523 38.7891 46.957 38.7891C47.2734 38.7891 47.5195 39.0469 47.5195 39.3516V41.0508C47.5547 42.1406 46.6641 43.043 45.5625 43.043Z" fill="#639B27"/>
<path d="M41.5195 45.8555C39.6562 45.8555 38.1445 44.3438 38.1445 42.4805C38.1445 42.1641 38.4023 41.918 38.707 41.918C39.0117 41.918 39.2695 42.1758 39.2695 42.4805C39.2695 43.7109 40.2773 44.707 41.4961 44.707C42.7031 44.707 43.7227 43.6758 43.7227 42.4805C43.7227 42.1641 43.9805 41.918 44.2852 41.918C44.5898 41.918 44.8477 42.1758 44.8477 42.4805C44.9062 44.332 43.3828 45.8555 41.5195 45.8555ZM37.9805 31.2891C37.875 31.2891 37.7578 31.2539 37.6641 31.1836C37.4531 31.043 37.3594 30.7734 37.4297 30.5273L39.3281 24.5977L36.7031 22.8984C36.5508 22.793 36.457 22.6406 36.4453 22.4531C36.4336 22.2773 36.5039 22.0898 36.6445 21.9727L44.8477 15.0703C45.0352 14.9063 45.3164 14.8945 45.5273 15.0352C45.7383 15.1758 45.832 15.4336 45.7617 15.668L43.957 22.0313L46.3125 23.2031C46.4766 23.2969 46.6055 23.4492 46.6172 23.6367C46.6406 23.8242 46.5703 24.0117 46.4297 24.1406L38.3555 31.1133C38.2383 31.2305 38.1094 31.2891 37.9805 31.2891ZM37.9805 22.3594L40.3359 23.8828C40.5586 24.0234 40.6406 24.293 40.5703 24.5391L39.1406 28.9453L45.0234 23.8594L43.0195 22.8516C42.7734 22.7344 42.6562 22.4531 42.7148 22.1836L44.1445 17.1445L37.9805 22.3594ZM17.9883 39.9023C15.4219 39.9023 13.1133 38.5664 11.8359 36.3398C10.5469 34.1133 10.5469 31.4531 11.8359 29.2383L17.4961 19.4297C17.6016 19.2539 17.7891 19.1367 18 19.1367C18.2109 19.1367 18.3984 19.2422 18.5039 19.4297L24.1641 29.2383C25.4531 31.4648 25.4531 34.1133 24.1641 36.3398C22.875 38.5664 20.5547 39.9023 17.9883 39.9023ZM17.9883 20.8711L12.832 29.8242C11.7539 31.6875 11.7539 33.9141 12.832 35.7773C13.9102 37.6523 15.8438 38.7656 17.9883 38.7656C20.1328 38.7656 22.0781 37.6523 23.1445 35.7773C24.2227 33.9141 24.2227 31.6875 23.1445 29.8242L17.9883 20.8711Z" fill="#639B27"/>
<path d="M20.0273 36.9258C19.8281 36.9258 19.6406 36.8203 19.5234 36.6328C19.3594 36.3516 19.4648 36 19.7461 35.8594C20.2617 35.5547 20.707 35.1211 21.0234 34.5703C21.5273 33.7148 21.6445 32.7305 21.3633 31.8047C21.2695 31.5 21.4453 31.1836 21.7383 31.0898C22.043 30.9961 22.3594 31.1719 22.4531 31.4648C22.8164 32.6953 22.6641 33.9844 22.0195 35.1211C21.5977 35.8477 21.0117 36.4336 20.3203 36.832C20.2148 36.9023 20.1328 36.9258 20.0273 36.9258ZM10.6641 36.1406C7.44141 36.1406 4.80469 33.5156 4.80469 30.2812C4.80469 29.25 5.07422 28.2539 5.58984 27.3633L10.1602 19.4414C10.2656 19.2656 10.4531 19.1484 10.6641 19.1484C10.875 19.1484 11.0508 19.2539 11.168 19.4414L14.8359 25.793C15 26.0625 14.8945 26.4258 14.625 26.5781C14.3438 26.7422 13.9922 26.6367 13.8398 26.3672L10.6758 20.8828L6.58594 27.9375C6.16406 28.6641 5.95312 29.4492 5.95312 30.293C5.95312 32.8945 8.0625 35.0156 10.6758 35.0156C11.0742 35.0156 11.4727 34.9688 11.8711 34.875C12.1758 34.8047 12.4922 34.9805 12.5625 35.2969C12.6445 35.6016 12.457 35.918 12.1406 35.9883C11.6367 36.0703 11.1563 36.1406 10.6641 36.1406ZM38.0156 51.4219H21.4805C19.2305 51.4219 17.4023 49.5938 17.4023 47.3438V39.3398C17.4023 39.0234 17.6602 38.7773 17.9648 38.7773C18.2695 38.7773 18.5273 39.0352 18.5273 39.3398V47.3438C18.5273 48.9609 19.8398 50.2734 21.457 50.2734H37.9922C39.6094 50.2734 40.9219 48.9609 40.9219 47.3438V45.2695C40.9219 44.9531 41.1797 44.707 41.4844 44.707C41.8008 44.707 42.0469 44.9648 42.0469 45.2695V47.3438C42.0938 49.5938 40.2539 51.4219 38.0156 51.4219Z" fill="#639B27"/>
</svg>
