<svg width="152" height="219" viewBox="0 0 152 219" fill="none" xmlns="http://www.w3.org/2000/svg">
<path d="M115.979 48.1466L136.736 204.601C136.693 210.68 131.733 215.573 125.648 215.528L14.26 214.724C8.17866 214.677 3.2893 209.716 3.3333 203.636L26.6746 47.5054C26.7173 41.4187 31.6813 36.528 37.7653 36.5733L105.053 37.0573C111.132 37.1067 116.024 42.0706 115.979 48.1466Z" fill="#D2EAAC"/>
<path d="M115.979 48.1466L136.736 204.601C136.693 210.68 131.733 215.573 125.648 215.528L14.26 214.724C8.17866 214.677 3.2893 209.716 3.3333 203.636L26.6746 47.5054C26.7173 41.4187 31.6813 36.528 37.7653 36.5733L105.053 37.0573C111.132 37.1067 116.024 42.0706 115.979 48.1466Z" stroke="#1B1F06" stroke-width="5.82208" stroke-miterlimit="10" stroke-linecap="round" stroke-linejoin="round"/>
<path d="M81.8345 86.9813C72.6545 86.9813 65.2106 79.536 65.2106 70.352C65.2106 61.1774 72.6545 53.732 81.8345 53.732C91.0172 53.732 98.4626 61.1774 98.4626 70.352C98.4626 79.536 91.0172 86.9813 81.8345 86.9813ZM126.648 47.9026C126.648 41.8199 121.724 36.896 115.643 36.896H48.3505C42.2679 36.896 37.3412 41.8199 37.3412 47.9026L15.1345 204.203C15.1345 210.281 20.0599 215.208 26.1425 215.208H137.528C143.611 215.208 148.539 210.281 148.539 204.203L126.648 47.9026Z" fill="white"/>
<path d="M81.8345 86.9813C72.6545 86.9813 65.2106 79.536 65.2106 70.352C65.2106 61.1774 72.6545 53.732 81.8345 53.732C91.0172 53.732 98.4626 61.1774 98.4626 70.352C98.4626 79.536 91.0172 86.9813 81.8345 86.9813ZM126.648 47.9026C126.648 41.8199 121.724 36.896 115.643 36.896H48.3505C42.2679 36.896 37.3412 41.8199 37.3412 47.9026L15.1345 204.203C15.1345 210.281 20.0599 215.208 26.1425 215.208H137.528C143.611 215.208 148.539 210.281 148.539 204.203L126.648 47.9026Z" stroke="#1B1F06" stroke-width="5.82208" stroke-miterlimit="10" stroke-linecap="round" stroke-linejoin="round"/>
<path d="M56.4172 19.4786C65.2399 3.8946 85.0266 -1.58802 100.612 7.23198C116.2 16.0546 121.681 35.8386 112.86 51.4239C104.037 67.0106 84.2519 72.4933 68.6679 63.672" stroke="#1B1F06" stroke-width="5.82208" stroke-miterlimit="10" stroke-linecap="round" stroke-linejoin="round"/>
<path d="M90.7746 181.151C133.531 110.831 45.9692 108.055 45.9692 108.055C45.9692 108.055 8.71592 187.352 90.7746 181.151Z" fill="#D2EAAC"/>
<path d="M90.7746 181.151C133.531 110.831 45.9692 108.055 45.9692 108.055C45.9692 108.055 8.71592 187.352 90.7746 181.151Z" stroke="#1B1F06" stroke-width="5.82208" stroke-miterlimit="10" stroke-linecap="round" stroke-linejoin="round"/>
<path d="M57.8494 127.437L90.7747 181.151C90.7747 181.151 103.333 200.419 129.653 189.229" stroke="#1B1F06" stroke-width="5.82208" stroke-miterlimit="10" stroke-linecap="round" stroke-linejoin="round"/>
<path d="M70.8467 148.643C70.8467 148.643 81.964 143.224 79.652 127.989" stroke="#1B1F06" stroke-width="5.82208" stroke-miterlimit="10" stroke-linecap="round" stroke-linejoin="round"/>
<path d="M70.8467 148.643C70.8467 148.643 60.9787 156.091 48.448 147.117" stroke="#1B1F06" stroke-width="5.82208" stroke-miterlimit="10" stroke-linecap="round" stroke-linejoin="round"/>
<path d="M80.5679 164.5C80.5679 164.5 94.9345 157.503 91.9479 137.807" stroke="#1B1F06" stroke-width="5.82208" stroke-miterlimit="10" stroke-linecap="round" stroke-linejoin="round"/>
<path d="M80.5679 164.5C80.5679 164.5 67.8147 174.125 51.6187 162.528" stroke="#1B1F06" stroke-width="5.82208" stroke-miterlimit="10" stroke-linecap="round" stroke-linejoin="round"/>
</svg>
