<svg width="19" height="16" viewBox="0 0 19 16" fill="none" xmlns="http://www.w3.org/2000/svg">
<path d="M15.8827 0.693756C15.7069 0.693756 15.5311 0.725006 15.3621 0.775006C14.7874 0.962506 13.5771 1.29376 11.9882 1.38126C11.1836 1.42501 10.3925 1.47501 9.58788 1.58126C8.63453 1.71251 7.8164 1.90626 7.07941 2.18126C5.39583 2.81251 4.08413 3.99376 3.27276 5.58751C2.90089 6.31876 2.66424 7.12501 2.58987 7.90626C2.50873 8.76251 2.61691 9.58751 2.90089 10.35L3.19839 11.2563C2.7589 11.75 2.29913 12.2875 1.81907 12.8813C1.51481 13.2563 1.42015 13.7438 1.58242 14.1938C1.73793 14.6438 2.12333 14.9875 2.61691 15.1188L3.03612 15.2375C3.17811 15.275 3.32686 15.3 3.47561 15.3C3.7393 15.3 3.99623 15.2375 4.21936 15.125C4.44924 15.0063 4.65208 14.8375 4.78731 14.625C4.96311 14.3688 5.34174 13.8125 5.75419 13.3313C5.80151 13.3563 5.84208 13.375 5.87589 13.3875C6.24776 13.5438 6.63992 13.6688 7.04561 13.7563C7.5189 13.8563 8.01248 13.9063 8.51282 13.9063C8.84413 13.9063 9.18896 13.8813 9.52703 13.8375C10.2708 13.7375 11.001 13.5313 11.7042 13.2188C12.3803 12.9188 13.0091 12.5313 13.5771 12.0688C13.6785 11.9875 13.7799 11.9 13.8746 11.8125C14.3411 11.375 14.74 10.875 15.0984 10.2875C15.3824 9.81251 15.6325 9.29376 15.8827 8.65001C16.2411 7.73126 16.5386 6.76251 16.8023 5.67501C17.0186 4.77501 17.2012 3.79376 17.3702 2.67501C17.3905 2.53126 17.4108 2.41876 17.4243 2.31876C17.4852 1.91251 17.3432 1.50001 17.0524 1.18751C16.7549 0.875006 16.329 0.693756 15.8827 0.693756ZM16.2884 2.17501C16.2749 2.29376 16.2546 2.40626 16.2411 2.52501C15.9503 4.46876 15.5379 6.43126 14.8144 8.28751C13.807 10.8688 11.3796 13.0063 8.24913 12.85C7.60004 12.8188 6.95771 12.6813 6.36271 12.4313C6.32214 12.4125 6.0314 12.2563 5.80828 12.1313C5.74066 12.0938 5.67305 12.075 5.59867 12.075C5.49049 12.075 5.37555 12.1188 5.29441 12.1938C4.71293 12.7875 4.10441 13.6438 3.8272 14.0625C3.75282 14.175 3.61759 14.2375 3.48237 14.2375C3.4418 14.2375 3.40123 14.2313 3.36742 14.225L2.94822 14.1063C2.67776 14.0313 2.56958 13.725 2.73862 13.5188C3.70549 12.3375 4.59123 11.3313 5.5243 10.4188C5.71362 10.25 5.91646 10.0688 6.13958 9.88126C6.89686 9.25626 7.6947 8.70001 8.51282 8.24376C9.52703 7.67501 10.575 7.25001 11.6298 6.97501C11.9341 6.89376 12.1099 6.60626 12.0287 6.32501C11.9408 6.04376 11.6298 5.88126 11.3255 5.95626C10.1761 6.25626 9.02668 6.71876 7.92458 7.33751C7.04561 7.83126 6.19367 8.41876 5.38231 9.09376C4.90225 9.49376 4.49657 9.86876 4.17203 10.2C4.17203 10.2 3.98947 9.80626 3.98271 9.78126C3.09021 7.26251 4.72646 4.35001 7.26197 3.25626C8.74271 2.62501 10.4398 2.52501 12.0558 2.43751C13.7394 2.35001 15.0308 2.00626 15.7475 1.77501C15.7948 1.76251 15.8421 1.75001 15.8827 1.75001C16.1194 1.75001 16.3222 1.94376 16.2884 2.17501Z" fill="black"/>
<path d="M3.48216 15.3187C3.33341 15.3187 3.1779 15.3 3.03591 15.2562L2.6167 15.1375C2.12313 15 1.73773 14.65 1.57545 14.2C1.41318 13.75 1.50108 13.2562 1.8121 12.875C2.29892 12.275 2.75193 11.75 3.19142 11.2562L2.89392 10.3562C2.60318 9.58749 2.50176 8.76249 2.5829 7.90624C2.65727 7.11874 2.89392 6.31874 3.2658 5.58124C4.07716 3.98124 5.39563 2.79999 7.0792 2.16874C7.81619 1.89374 8.63432 1.69374 9.58767 1.56874C10.3923 1.46249 11.1834 1.41249 11.988 1.36874C13.5769 1.28124 14.7804 0.956244 15.3619 0.762494C15.5309 0.706244 15.7067 0.681244 15.8893 0.681244C16.3355 0.681244 16.7682 0.862494 17.0657 1.17499C17.3632 1.48749 17.4985 1.90624 17.4376 2.31874C17.4241 2.42499 17.4038 2.53124 17.3835 2.67499C17.2145 3.79374 17.0319 4.77499 16.8156 5.67499C16.5586 6.76249 16.2544 7.73749 15.896 8.64999C15.6459 9.29374 15.3957 9.81874 15.1049 10.2937C14.7466 10.8875 14.3477 11.3875 13.8811 11.825C13.7865 11.9125 13.6851 12 13.5836 12.0812C13.0157 12.5437 12.3869 12.9375 11.7107 13.2375C11.0076 13.55 10.2706 13.7625 9.53358 13.8562C9.19551 13.9 8.85744 13.925 8.51938 13.925C8.01903 13.925 7.51869 13.875 7.0454 13.7687C6.63972 13.6812 6.2408 13.5562 5.86892 13.4C5.84188 13.3875 5.80807 13.3687 5.76074 13.35C5.36182 13.825 4.98994 14.3625 4.80063 14.6375C4.65864 14.85 4.46256 15.0187 4.22591 15.1375C4.00278 15.2562 3.73909 15.3187 3.48216 15.3187ZM15.8825 0.706244C15.7067 0.706244 15.5309 0.731244 15.3686 0.787494C14.7939 0.974994 13.5836 1.30624 11.988 1.39374C11.1834 1.43749 10.3923 1.48749 9.58767 1.59374C8.63432 1.71874 7.81619 1.91874 7.08597 2.19374C5.40915 2.82499 4.09068 3.99999 3.28608 5.59999C2.9142 6.33124 2.67756 7.13124 2.60318 7.91874C2.52205 8.77499 2.63023 9.59999 2.9142 10.3625L3.21847 11.275L3.21171 11.2812C2.77222 11.775 2.3192 12.3062 1.83239 12.9062C1.52813 13.275 1.44023 13.7625 1.59574 14.2062C1.75125 14.65 2.13665 14.9937 2.6167 15.125L3.03591 15.2437C3.1779 15.2812 3.32665 15.3 3.4754 15.3C3.73233 15.3 3.98926 15.2375 4.21239 15.125C4.44227 15.0062 4.63835 14.8375 4.78034 14.6312C4.96966 14.35 5.34153 13.8125 5.74722 13.3312L5.75398 13.3125L5.76074 13.3187C5.81483 13.3437 5.84864 13.3625 5.87568 13.375C6.24756 13.5312 6.63972 13.6562 7.0454 13.7437C7.51869 13.8437 8.01227 13.8937 8.51261 13.8937C8.84392 13.8937 9.18875 13.8687 9.52006 13.825C10.257 13.725 10.9873 13.5187 11.6905 13.2062C12.3666 12.9062 12.9954 12.5187 13.5566 12.0562C13.658 11.975 13.7594 11.8875 13.8541 11.8C14.3206 11.3687 14.7195 10.8687 15.0779 10.275C15.3619 9.79999 15.612 9.28124 15.8622 8.63749C16.2206 7.71874 16.5181 6.74999 16.7818 5.66249C16.9981 4.76249 17.1807 3.78124 17.3497 2.66874C17.37 2.52499 17.3903 2.41874 17.4038 2.31249C17.4579 1.90624 17.3294 1.49999 17.0387 1.19374C16.748 0.881244 16.3288 0.706244 15.8825 0.706244ZM3.48216 14.2625C3.44159 14.2625 3.40102 14.2562 3.36045 14.2437L2.94125 14.125C2.80602 14.0875 2.7046 13.9937 2.66403 13.875C2.62347 13.75 2.64375 13.625 2.72489 13.5187C3.75261 12.2625 4.63835 11.2812 5.51057 10.4187C5.71341 10.2375 5.91625 10.0562 6.12585 9.88124C6.88313 9.25624 7.68097 8.69999 8.49909 8.24374C9.5133 7.67499 10.5681 7.24374 11.6228 6.97499C11.9203 6.89999 12.0894 6.61249 12.0082 6.33749C11.9406 6.11874 11.7175 5.96249 11.4741 5.96249C11.4268 5.96249 11.3727 5.96874 11.3253 5.98124C10.1759 6.28124 9.03324 6.74374 7.92438 7.36249C7.0454 7.85624 6.19347 8.44374 5.3821 9.11249C4.95614 9.46249 4.55045 9.83749 4.17182 10.2125V10.2187H4.16506C4.1583 10.2187 4.1583 10.2187 4.06364 10.0125C4.02983 9.93749 3.96898 9.80624 3.96222 9.79374C3.53625 8.59374 3.66472 7.24374 4.32057 5.98749C4.94261 4.78749 6.01091 3.79374 7.24824 3.25624C8.76278 2.59999 10.514 2.50624 12.0623 2.42499C13.7053 2.33749 14.9765 2.01874 15.7473 1.76249C15.7946 1.74999 15.8419 1.73749 15.8893 1.73749C16.011 1.73749 16.1259 1.78749 16.207 1.86874C16.2882 1.95624 16.322 2.06249 16.3085 2.17499C16.2949 2.29374 16.2747 2.40624 16.2544 2.52499C15.9028 4.86249 15.4498 6.69374 14.8277 8.28749C14.3274 9.56249 13.489 10.7062 12.4545 11.5125C11.3186 12.4 9.97307 12.8625 8.57347 12.8625C8.46528 12.8625 8.3571 12.8625 8.24892 12.8562C7.56602 12.8187 6.93045 12.6812 6.3625 12.4375C6.31517 12.4187 6.02443 12.2625 5.80807 12.1375C5.74722 12.1 5.67284 12.0875 5.60523 12.0875C5.49705 12.0875 5.38886 12.1312 5.31449 12.2062C4.73977 12.7875 4.14477 13.625 3.84727 14.075C3.75938 14.1937 3.62415 14.2625 3.48216 14.2625ZM11.4673 5.93749C11.731 5.93749 11.9609 6.09999 12.0285 6.33124C12.1164 6.61874 11.9339 6.91874 11.6228 6.99999C10.5681 7.27499 9.52006 7.69999 8.50585 8.26874C7.68773 8.72499 6.88989 9.27499 6.13938 9.89999C5.92977 10.075 5.72693 10.25 5.52409 10.4375C4.65188 11.2937 3.76614 12.275 2.73841 13.5312C2.65727 13.625 2.63699 13.75 2.67756 13.8625C2.71813 13.9812 2.81278 14.0625 2.94125 14.1L3.36045 14.2187C3.40102 14.2312 3.43483 14.2312 3.4754 14.2312C3.61063 14.2312 3.73909 14.1687 3.81347 14.0625C4.11773 13.6125 4.70597 12.775 5.28744 12.1937C5.36858 12.1125 5.47676 12.0687 5.59847 12.0687C5.67284 12.0687 5.74722 12.0875 5.81483 12.125C6.03119 12.2437 6.32193 12.4062 6.36926 12.4187C6.93722 12.6625 7.56602 12.8 8.24892 12.8375C8.3571 12.8437 8.46528 12.8437 8.57347 12.8437C9.96631 12.8437 11.3051 12.375 12.441 11.5C13.4687 10.7 14.3139 9.55624 14.8074 8.28749C15.4295 6.69374 15.8825 4.86249 16.2341 2.53124C16.2544 2.41249 16.2679 2.29999 16.2814 2.18124C16.2949 2.07499 16.2611 1.97499 16.1868 1.89374C16.1124 1.81249 16.0042 1.76874 15.8893 1.76874C15.8419 1.76874 15.8014 1.77499 15.754 1.78749C14.9765 2.04374 13.7053 2.36249 12.0623 2.44999C10.5207 2.53124 8.76955 2.62499 7.255 3.28124C6.02443 3.81249 4.95614 4.80624 4.33409 5.99999C3.685 7.24999 3.55653 8.59374 3.9825 9.78749C3.98926 9.80624 4.13125 10.1125 4.16506 10.1875C4.54369 9.81249 4.94261 9.44374 5.36182 9.09374C6.17318 8.41874 7.02511 7.83124 7.90409 7.33749C9.00619 6.71874 10.1556 6.24999 11.3118 5.95624C11.3659 5.94374 11.4132 5.93749 11.4673 5.93749Z" fill="black"/>
</svg>
