<svg width="58" height="52" viewBox="0 0 58 52" fill="none" xmlns="http://www.w3.org/2000/svg">
<g clip-path="url(#clip0_23_17)">
<path d="M51.1829 29.3986C50.2407 34.7839 46.8944 40.6963 42.088 44.3879C40.4041 35.0945 27.5972 27.1413 41.3075 19.4236C41.3075 19.4236 45.9987 26.0176 44.7183 33.2702C44.8586 33.0306 48.5731 26.3457 43.0912 16.1765C42.7066 15.4643 42.3513 14.7926 42.0183 14.1597C42.0183 14.1597 42.0122 14.1547 42.0122 14.1514L38.7821 8.78098C37.7905 7.13255 36.3645 5.76375 34.6474 4.8121C32.9303 3.86044 30.9827 3.35945 29.0002 3.35945C27.0176 3.35945 25.07 3.86044 23.3529 4.8121C21.6359 5.76375 20.2099 7.13255 19.2182 8.78098L18.8843 9.3362C16.9346 9.83772 15.1483 10.54 13.5986 11.4133L16.192 7.10209C18.8663 2.65536 23.6538 -0.00012207 29.0015 -0.00012207C34.3491 -0.00012207 39.1375 2.65536 41.8109 7.10044L49.9963 20.7199C50.0035 20.729 50.0098 20.7387 50.0152 20.7488C51.4384 23.0292 51.7559 26.1184 51.1829 29.3986Z" fill="#E0EEC9"/>
<path d="M40.4023 35.2118C36.7024 29.5265 35.521 24.7898 41.3075 19.4235C27.5955 27.1437 40.4041 35.0961 42.088 44.3894C43.1816 42.5032 43.228 39.5577 40.4023 35.2118Z" fill="#E0EEC9"/>
<path d="M37.4295 6.96996C31.9889 0.676617 23.4412 0.836904 19.3601 3.4172C18.1005 4.46697 17.0326 5.71163 16.2006 7.09968L13.5952 11.4117C15.144 10.5384 16.9311 9.83613 18.8809 9.33461L19.2147 8.77939C20.1083 7.29342 21.356 6.03204 22.8555 5.09872C24.355 4.16539 26.0636 3.5867 27.8411 3.41013C29.6186 3.23356 31.4143 3.46413 33.0811 4.08293C34.7478 4.70172 36.238 5.69112 37.4295 6.96996Z" fill="#E0EEC9"/>
<path d="M35.7343 11.9331C28.0979 17.8662 27.0912 32.4804 13.3972 24.7313C13.3972 24.7313 17.1203 17.5845 24.3455 15.1331C24.2104 15.1331 16.2436 15.1744 9.59662 24.7833L5.03626 32.3722C4.0452 34.0208 3.52344 35.8909 3.52339 37.7944C3.52334 39.698 4.04501 41.5681 5.03598 43.2167C6.02695 44.8654 7.45233 46.2346 9.1689 47.1868C10.8855 48.139 12.8328 48.6407 14.8152 48.6414H15.4063C16.8106 49.9955 18.3275 51.1366 19.8961 52H14.8195C9.47185 52 4.68348 49.3445 2.01007 44.8944C-0.663328 40.4444 -0.664189 35.1392 2.01007 30.6917L10.34 16.8392C10.3461 16.826 10.3512 16.8186 10.3564 16.8078L10.4562 16.6426C10.4665 16.6219 10.4803 16.6037 10.4906 16.5864C11.8794 14.4192 14.4022 12.7428 17.4903 11.6555C22.8741 9.76591 29.9728 9.66676 35.7343 11.9331Z" fill="#E0EEC9"/>
<path d="M28.2038 17.8109C24.8291 23.677 21.0948 26.977 13.3973 24.7313C27.0913 32.4804 28.098 17.8662 35.7344 11.9331C33.4869 11.9331 30.7834 13.3269 28.2038 17.8109Z" fill="#E0EEC9"/>
<path d="M14.8154 48.641C12.8304 48.6524 10.878 48.1559 9.159 47.2026C7.44002 46.2493 6.01648 44.8735 5.03474 43.2168C3.12112 40.0359 3.00065 36.2765 4.67508 33.0171C1.07154 39.6153 1.08788 43.6655 3.15123 46.5349C5.93735 49.9861 10.1613 51.9996 14.8154 51.9996H19.892C18.3235 51.1362 16.8065 49.9951 15.4022 48.641H14.8154Z" fill="#E0EEC9"/>
<path d="M55.9943 44.8959C53.3209 49.3443 48.5325 52.0014 43.1849 52.0014H26.2066C23.5272 51.9725 20.7195 50.7042 18.1717 48.6428C13.7671 45.0719 10.1447 39.1313 9.36768 33.1519C18.497 36.6312 32.2555 30.3081 31.9363 45.5651C31.9363 45.5651 23.6218 45.9551 17.8542 41.1093C17.8542 41.1093 21.561 47.515 32.912 48.6411H43.1849C45.1677 48.6412 47.1155 48.1401 48.8327 47.1882C50.5499 46.2363 51.9759 44.8671 52.9673 43.2183C53.9588 41.5695 54.4809 39.6992 54.481 37.7953C54.4811 35.8913 53.9594 34.0209 52.9681 32.372L52.5809 31.7308C53.0843 29.8611 53.3398 28.0037 53.3183 26.2472L55.9943 30.6956C58.6686 35.1407 58.6686 40.4508 55.9943 44.8959Z" fill="#E0EEC9"/>
<path d="M18.3955 36.5702C25.3754 36.5173 30.2008 38.0243 31.938 45.5669C32.2546 30.3066 18.4979 36.6322 9.36768 33.1521C10.4699 35.0318 13.0607 36.6107 18.3955 36.5702Z" fill="#E0EEC9"/>
<path d="M43.5688 48.6356C52.0683 48.5092 57.0554 44.2029 57.9769 38.5441C58.1266 35.7985 57.4389 33.0707 55.9979 30.695L53.3219 26.2466C53.3434 28.0031 53.0879 29.8605 52.5845 31.7302L52.9717 32.3714C53.9745 34.0163 54.5031 35.8879 54.5031 37.7939C54.5031 39.6999 53.9745 41.5715 52.9717 43.2164C50.991 46.5072 47.4967 48.5133 43.5688 48.6356Z" fill="#E0EEC9"/>
</g>
<defs>
<clipPath id="clip0_23_17">
<rect width="58" height="52" fill="white"/>
</clipPath>
</defs>
</svg>
