<svg width="219" height="219" viewBox="0 0 219 219" fill="none" xmlns="http://www.w3.org/2000/svg">
<path d="M215.187 133.04V87.8933H180.187C179 83.9066 177.493 80.0533 175.68 76.3733L201.04 51.0133L169.107 19.08L144.373 43.8133C140.773 41.8666 136.973 40.2266 133.04 38.88V2.99996H87.8935V38C83.8935 39.1866 80.0534 40.7066 76.3734 42.5066L51.0133 17.1466L19.0799 49.08L43.8133 73.8133C41.8666 77.4266 40.2133 81.2133 38.8799 85.1466H3V130.307H38C39.1867 134.293 40.6934 138.147 42.5068 141.813L17.1333 167.187L49.0667 199.12L73.8133 174.373C77.4133 176.333 81.2133 177.973 85.1466 179.32V215.2H130.293V180.187C134.293 179 138.133 177.493 141.813 175.693L167.173 201.053L199.107 169.12L174.373 144.373C176.32 140.773 177.973 136.987 179.307 133.04H215.187Z" fill="white"/>
<path d="M215.187 133.04V87.8933H180.187C179 83.9066 177.493 80.0533 175.68 76.3733L201.04 51.0133L169.107 19.08L144.373 43.8133C140.773 41.8666 136.973 40.2266 133.04 38.88V2.99996H87.8935V38C83.8935 39.1866 80.0534 40.7066 76.3734 42.5066L51.0133 17.1466L19.0799 49.08L43.8133 73.8133C41.8666 77.4266 40.2133 81.2133 38.8799 85.1466H3V130.307H38C39.1867 134.293 40.6934 138.147 42.5068 141.813L17.1333 167.187L49.0667 199.12L73.8133 174.373C77.4133 176.333 81.2133 177.973 85.1466 179.32V215.2H130.293V180.187C134.293 179 138.133 177.493 141.813 175.693L167.173 201.053L199.107 169.12L174.373 144.373C176.32 140.773 177.973 136.987 179.307 133.04H215.187Z" stroke="#1B1F06" stroke-width="5.82208" stroke-miterlimit="10" stroke-linecap="round" stroke-linejoin="round"/>
<path d="M163.813 109.093C163.813 139.32 139.32 163.813 109.094 163.813C78.8803 163.813 54.3735 139.32 54.3735 109.093C54.3735 78.8799 78.8803 54.3732 109.094 54.3732C139.32 54.3732 163.813 78.8799 163.813 109.093Z" fill="white"/>
<path d="M163.813 109.093C163.813 139.32 139.32 163.813 109.094 163.813C78.8803 163.813 54.3735 139.32 54.3735 109.093C54.3735 78.8799 78.8803 54.3732 109.094 54.3732C139.32 54.3732 163.813 78.8799 163.813 109.093Z" stroke="#1B1F06" stroke-width="5.82208" stroke-miterlimit="10" stroke-linecap="round" stroke-linejoin="round"/>
<path d="M109.093 155.92C29.1334 114.853 109.093 62.2666 109.093 62.2666C109.093 62.2666 189.053 114.853 109.093 155.92Z" fill="#D2EAAC"/>
<path d="M109.093 155.92C29.1334 114.853 109.093 62.2666 109.093 62.2666C109.093 62.2666 189.053 114.853 109.093 155.92Z" stroke="#1B1F06" stroke-width="5.82208" stroke-miterlimit="10" stroke-linecap="round" stroke-linejoin="round"/>
<path d="M109.093 87.1066V154.84" stroke="#1B1F06" stroke-width="5.82208" stroke-miterlimit="10" stroke-linecap="round" stroke-linejoin="round"/>
<path d="M109.094 114.28C109.094 114.28 95.6536 115.573 89.1069 100.067" stroke="#1B1F06" stroke-width="5.82208" stroke-miterlimit="10" stroke-linecap="round" stroke-linejoin="round"/>
<path d="M109.093 114.28C109.093 114.28 122.533 115.573 129.093 100.067" stroke="#1B1F06" stroke-width="5.82208" stroke-miterlimit="10" stroke-linecap="round" stroke-linejoin="round"/>
<path d="M109.093 134.587C109.093 134.587 91.7199 136.28 83.2666 116.24" stroke="#1B1F06" stroke-width="5.82208" stroke-miterlimit="10" stroke-linecap="round" stroke-linejoin="round"/>
<path d="M109.093 134.587C109.093 134.587 126.466 136.28 134.933 116.24" stroke="#1B1F06" stroke-width="5.82208" stroke-miterlimit="10" stroke-linecap="round" stroke-linejoin="round"/>
</svg>
