<svg width="193" height="219" viewBox="0 0 193 219" fill="none" xmlns="http://www.w3.org/2000/svg">
<path d="M153.773 52.282L139.932 38.4354L152.044 26.3287L165.888 40.1647L153.773 52.282Z" fill="white"/>
<path d="M153.773 52.282L139.932 38.4354L152.044 26.3287L165.888 40.1647L153.773 52.282Z" stroke="#1B1F06" stroke-width="5.82208" stroke-miterlimit="10" stroke-linecap="round" stroke-linejoin="round"/>
<path d="M142.555 73.8687C142.555 84.8421 133.664 93.7487 122.675 93.7487H50.748C39.76 93.7487 30.86 84.8421 30.86 73.8687V51.3354C30.86 40.3447 39.76 31.4434 50.748 31.4434H101.781L142.555 70.9887V73.8687ZM115.907 15.3581H34.6547C17.1614 15.3581 3 29.5221 3 47.0167V183.535C3 201.015 17.1614 215.189 34.6547 215.189H149.175C166.655 215.189 180.828 201.015 180.828 183.535V78.3221L115.907 15.3581Z" fill="white"/>
<path d="M142.555 73.8687C142.555 84.8421 133.664 93.7487 122.675 93.7487H50.748C39.76 93.7487 30.86 84.8421 30.86 73.8687V51.3354C30.86 40.3447 39.76 31.4434 50.748 31.4434H101.781L142.555 70.9887V73.8687ZM115.907 15.3581H34.6547C17.1614 15.3581 3 29.5221 3 47.0167V183.535C3 201.015 17.1614 215.189 34.6547 215.189H149.175C166.655 215.189 180.828 201.015 180.828 183.535V78.3221L115.907 15.3581Z" stroke="#1B1F06" stroke-width="5.82208" stroke-miterlimit="10" stroke-linecap="round" stroke-linejoin="round"/>
<path d="M184.279 44.7194C179.263 49.7354 172.549 51.1621 169.292 47.8994L144.311 22.9207C141.048 19.6567 142.475 12.9488 147.488 7.93277C152.501 2.91277 159.217 1.49272 162.473 4.74872L187.456 29.7328C190.719 32.9901 189.297 39.7034 184.279 44.7194Z" fill="white"/>
<path d="M184.279 44.7194C179.263 49.7354 172.549 51.1621 169.292 47.8994L144.311 22.9207C141.048 19.6567 142.475 12.9488 147.488 7.93277C152.501 2.91277 159.217 1.49272 162.473 4.74872L187.456 29.7328C190.719 32.9901 189.297 39.7034 184.279 44.7194Z" stroke="#1B1F06" stroke-width="5.82208" stroke-miterlimit="10" stroke-linecap="round" stroke-linejoin="round"/>
<path d="M88.6507 109.122C64.9481 109.122 45.688 128.136 45.2774 151.749H41.3521L48.472 165.976L55.6014 151.749H50.8241" stroke="#1B1F06" stroke-width="4.99037" stroke-miterlimit="10" stroke-linecap="round" stroke-linejoin="round"/>
<path d="M50.7788 179.642C62.9721 199.975 89.1814 206.722 109.639 194.935L111.653 198.309L120.201 184.869L104.328 186.082L106.783 190.175" stroke="#1B1F06" stroke-width="4.99037" stroke-miterlimit="10" stroke-linecap="round" stroke-linejoin="round"/>
<path d="M128.855 178.282C142.393 158.816 137.789 132.149 118.644 118.336L120.889 115.109L105.133 112.829L112.752 126.802L115.477 122.882" stroke="#1B1F06" stroke-width="4.99037" stroke-miterlimit="10" stroke-linecap="round" stroke-linejoin="round"/>
</svg>
