<svg width="16" height="16" viewBox="0 0 16 16" fill="none" xmlns="http://www.w3.org/2000/svg">
<path d="M11 6.26665L5 2.80664" stroke="#383838" stroke-linecap="round" stroke-linejoin="round"/>
<path d="M14 10.6664V5.3331C13.9997 5.0993 13.938 4.86964 13.821 4.66721C13.704 4.46478 13.5359 4.29668 13.3334 4.17977L8.66665 1.5131C8.46395 1.39608 8.23405 1.33447 8 1.33447C7.76595 1.33447 7.53605 1.39608 7.33335 1.5131L2.66667 4.17977C2.46418 4.29668 2.29599 4.46478 2.17898 4.66721C2.06196 4.86964 2.00024 5.0993 2 5.3331V10.6664C2.00024 10.9002 2.06196 11.1299 2.17898 11.3323C2.29599 11.5347 2.46418 11.7028 2.66667 11.8197L7.33335 14.4864C7.53605 14.6034 7.76595 14.665 8 14.665C8.23405 14.665 8.46395 14.6034 8.66665 14.4864L13.3334 11.8197C13.5359 11.7028 13.704 11.5347 13.821 11.3323C13.938 11.1299 13.9997 10.9002 14 10.6664Z" stroke="#383838" stroke-linecap="round" stroke-linejoin="round"/>
<path d="M2.17969 4.64014L7.9997 8.0068L13.8197 4.64014" stroke="#383838" stroke-linecap="round" stroke-linejoin="round"/>
<path d="M8 14.72V8" stroke="#383838" stroke-linecap="round" stroke-linejoin="round"/>
</svg>
