<svg width="16" height="16" viewBox="0 0 16 16" fill="none" xmlns="http://www.w3.org/2000/svg">
<g clip-path="url(#clip0_4_165)">
<path d="M6.94376 0.668752C6.77501 0.731252 6.58751 0.906252 6.50626 1.0875C6.45626 1.19375 6.39376 1.5 6.31251 1.9875C6.25001 2.39375 6.18751 2.75625 6.18126 2.79375C6.16251 2.86875 5.68126 3.08125 5.61876 3.04375C5.59376 3.03125 5.30001 2.825 4.96251 2.58125C4.62501 2.34375 4.30001 2.11875 4.24376 2.08125C4.08126 1.99375 3.69376 2 3.52501 2.09375C3.32501 2.2 2.14376 3.4 2.06876 3.58125C1.98751 3.7625 1.98126 4.03125 2.06251 4.20625C2.09376 4.275 2.32501 4.61875 2.56876 4.9625C2.81876 5.30625 3.02501 5.60625 3.04376 5.63125C3.06251 5.6625 2.90001 6.125 2.85626 6.175C2.85001 6.18125 2.46876 6.25 2.01876 6.325C1.10626 6.475 0.993756 6.5125 0.818756 6.725C0.643756 6.925 0.631256 7.00625 0.631256 8.00625C0.631256 9.00625 0.643756 9.0875 0.818756 9.2875C1.00001 9.5 1.11251 9.5375 2.01876 9.6875C2.47501 9.7625 2.85626 9.83125 2.85626 9.8375C2.90626 9.89375 3.06251 10.35 3.04376 10.3813C3.02501 10.4063 2.81876 10.7063 2.56876 11.05C2.32501 11.3938 2.10001 11.7313 2.06251 11.8063C1.98126 11.9813 1.98751 12.25 2.06876 12.4313C2.14376 12.6063 3.32501 13.8125 3.52501 13.9188C3.69376 14.0125 4.08126 14.0125 4.24376 13.9313C4.30626 13.9 4.63126 13.675 4.96251 13.4313C5.30001 13.1875 5.59376 12.9813 5.61876 12.9688C5.65001 12.95 6.11251 13.1125 6.16251 13.1563C6.16876 13.1563 6.23751 13.5438 6.31251 14C6.38751 14.4563 6.47501 14.8875 6.50626 14.95C6.58126 15.1063 6.80626 15.3 6.96251 15.35C7.04376 15.375 7.39376 15.3875 8.01251 15.3875C8.87501 15.3875 8.95001 15.3813 9.08125 15.3188C9.26251 15.2375 9.38751 15.1188 9.47501 14.9563C9.51876 14.875 9.58751 14.5375 9.675 14C9.75001 13.5438 9.81876 13.1625 9.825 13.1625C9.88126 13.1125 10.3375 12.9563 10.3688 12.975C10.3938 12.9938 10.6938 13.2 11.0375 13.45C11.3813 13.6938 11.7188 13.9188 11.7938 13.9563C11.9688 14.0375 12.2375 14.0313 12.4188 13.95C12.625 13.8563 13.8063 12.6813 13.9125 12.4625C14.0063 12.2625 14.0125 12.0063 13.9313 11.8188C13.9 11.75 13.6688 11.4063 13.425 11.0625C13.175 10.7188 12.9688 10.4188 12.9563 10.4C12.9375 10.3688 13.1 9.90625 13.1438 9.85625C13.15 9.85 13.5313 9.78125 13.9813 9.70625C14.8938 9.55625 15.0063 9.51875 15.1813 9.30625C15.3563 9.10625 15.3688 9.025 15.3688 8.025C15.3688 7.025 15.3563 6.94375 15.1813 6.74375C15 6.53125 14.8875 6.49375 13.9813 6.34375C13.525 6.26875 13.1438 6.2 13.1438 6.19375C13.1375 6.1875 13.0875 6.06875 13.0313 5.93125C12.9063 5.6375 12.8563 5.76875 13.4563 4.93125C13.6813 4.6125 13.9 4.29375 13.9313 4.225C14.0125 4.05 14.0063 3.78125 13.925 3.59375C13.85 3.41875 12.6688 2.2125 12.4688 2.10625C12.3 2.01875 11.9125 2.0125 11.7563 2.09375C11.7 2.125 11.375 2.35 11.0375 2.59375C10.7 2.8375 10.4 3.04375 10.3813 3.0625C10.35 3.08125 9.89375 2.91875 9.8375 2.875C9.83125 2.86875 9.76251 2.4875 9.6875 2.0375C9.60001 1.4875 9.52501 1.15625 9.48125 1.075C9.40001 0.912502 9.19376 0.737502 9.03125 0.687502C8.85626 0.606252 7.09376 0.612502 6.94376 0.668752ZM8.97501 2.34375C9.15626 3.45625 9.15001 3.425 9.5 3.54375C9.6125 3.58125 9.85001 3.68125 10.0188 3.75625C10.1875 3.83125 10.35 3.89375 10.3813 3.89375C10.475 3.89375 10.5938 3.81875 11.3688 3.26875L12.1188 2.7375L12.6938 3.3125L13.2688 3.8875L12.7 4.675C12.3875 5.10625 12.125 5.50625 12.1188 5.55625C12.1 5.63125 12.1375 5.73125 12.2375 5.96875C12.3188 6.14375 12.4125 6.38125 12.45 6.5C12.5625 6.85 12.5375 6.84375 13.65 7.025L14.6188 7.1875V8V8.8125L13.65 8.975C12.5375 9.1625 12.5688 9.15 12.45 9.5C12.4125 9.6125 12.3125 9.85 12.2375 10.0313C12.1313 10.2625 12.1 10.3688 12.1188 10.4375C12.1313 10.4875 12.3938 10.8875 12.7 11.3188L13.2688 12.1063L12.7 12.675C12.1875 13.1875 12.1188 13.2438 12.0625 13.2125C12.025 13.1938 11.6688 12.9375 11.2688 12.65C10.8 12.3125 10.5 12.1188 10.4313 12.1063C10.3563 12.0938 10.25 12.125 10.025 12.2313C9.85625 12.3063 9.62501 12.4063 9.50626 12.4438C9.15626 12.5563 9.16251 12.5313 8.98125 13.6438L8.81876 14.6125H8.00001H7.18126L7.01876 13.6438C6.83751 12.5313 6.84376 12.5625 6.49376 12.4438C6.38126 12.4063 6.14376 12.3063 5.96251 12.2313C5.73126 12.1313 5.62501 12.0938 5.55626 12.1063C5.50626 12.1188 5.10626 12.375 4.66876 12.6875L3.87501 13.25L3.30001 12.675L2.72501 12.1L3.29376 11.3125C3.60626 10.8813 3.86876 10.4813 3.87501 10.4313C3.89376 10.3625 3.85626 10.2563 3.75001 10.025C3.66876 9.85 3.57501 9.6125 3.53751 9.49375C3.42501 9.14375 3.45001 9.15 2.33751 8.96875L1.36876 8.80625V8V7.18125L2.33751 7.01875C3.45001 6.8375 3.41876 6.84375 3.53751 6.49375C3.57501 6.38125 3.67501 6.14375 3.75001 5.975C3.82501 5.80625 3.88751 5.64375 3.88751 5.6125C3.88751 5.51875 3.80626 5.39375 3.25626 4.625L2.71876 3.88125L3.28751 3.3125C3.81251 2.80625 3.88126 2.75 3.93751 2.78125C3.97501 2.8 4.31251 3.0375 4.68751 3.30625C5.39376 3.81875 5.51876 3.89375 5.61251 3.89375C5.64376 3.89375 5.80626 3.83125 5.97501 3.75625C6.14376 3.68125 6.38126 3.58125 6.50001 3.54375C6.85001 3.43125 6.84376 3.44375 7.02501 2.35C7.10626 1.83125 7.18126 1.4 7.19376 1.3875C7.20001 1.375 7.57501 1.36875 8.01251 1.36875L8.81876 1.38125L8.97501 2.34375Z" fill="black"/>
<path d="M7.4375 5.39375C6.41875 5.60625 5.59375 6.4375 5.3875 7.4625C5.0875 8.90625 6.03125 10.325 7.48125 10.6188C7.80625 10.6813 8.38125 10.6688 8.6875 10.5813C8.98125 10.5063 9.4375 10.2688 9.675 10.0688C10.0938 9.725 10.4438 9.18125 10.5813 8.6875C10.6625 8.38125 10.6813 7.80625 10.6188 7.48125C10.4063 6.43125 9.58125 5.6 8.54375 5.3875C8.23125 5.325 7.7375 5.33125 7.4375 5.39375ZM8.60625 6.19375C9.3875 6.45 9.90625 7.175 9.90625 8C9.90625 8.8625 9.35 9.59375 8.5 9.85C8.2375 9.925 7.7625 9.925 7.50625 9.85C7.2375 9.76875 6.925 9.6 6.73125 9.43125C6.26875 9.03125 6.0125 8.33125 6.10625 7.7375C6.2375 6.9125 6.875 6.2625 7.6875 6.1125C7.9375 6.0625 8.33125 6.1 8.60625 6.19375Z" fill="black"/>
</g>
<defs>
<clipPath id="clip0_4_165">
<rect width="16" height="16" fill="white"/>
</clipPath>
</defs>
</svg>
