<svg width="183" height="219" viewBox="0 0 183 219" fill="none" xmlns="http://www.w3.org/2000/svg">
<path d="M77.7146 192.427C107.735 98.9867 5.41189 120.12 5.41189 120.12C5.41189 120.12 -15.7308 222.453 77.7146 192.427Z" fill="#D2EAAC"/>
<path d="M77.7146 192.427C107.735 98.9867 5.41189 120.12 5.41189 120.12C5.41189 120.12 -15.7308 222.453 77.7146 192.427Z" stroke="#1B1F06" stroke-width="5.82208" stroke-miterlimit="10" stroke-linecap="round" stroke-linejoin="round"/>
<path d="M24.584 139.293L93.464 208.173" stroke="#1B1F06" stroke-width="5.82208" stroke-miterlimit="10" stroke-linecap="round" stroke-linejoin="round"/>
<path d="M169.336 44.7733C169.336 49.3333 165.648 53.0267 161.097 53.0267H101.703C97.1532 53.0267 93.4639 49.3333 93.4639 44.7733V12.1201C93.4639 7.57343 97.1532 3.8934 101.703 3.8934H161.097C165.648 3.8934 169.336 7.57343 169.336 12.1201V44.7733Z" fill="#D2EAAC"/>
<path d="M169.336 44.7733C169.336 49.3333 165.648 53.0267 161.097 53.0267H101.703C97.1532 53.0267 93.4639 49.3333 93.4639 44.7733V12.1201C93.4639 7.57343 97.1532 3.8934 101.703 3.8934H161.097C165.648 3.8934 169.336 7.57343 169.336 12.1201V44.7733Z" stroke="#1B1F06" stroke-width="5.82208" stroke-miterlimit="10" stroke-linecap="round" stroke-linejoin="round"/>
<path d="M179.807 34.7201V204.147C179.807 210.733 174.467 216.08 167.872 216.08H94.9267C88.3387 216.08 83 210.733 83 204.147V34.7201C83 28.1201 88.3387 22.7867 94.9267 22.7867H167.872C174.467 22.7867 179.807 28.1201 179.807 34.7201Z" fill="white"/>
<path d="M179.807 34.7201V204.147C179.807 210.733 174.467 216.08 167.872 216.08H94.9267C88.3387 216.08 83 210.733 83 204.147V34.7201C83 28.1201 88.3387 22.7867 94.9267 22.7867H167.872C174.467 22.7867 179.807 28.1201 179.807 34.7201Z" stroke="#1B1F06" stroke-width="5.82208" stroke-miterlimit="10" stroke-linecap="round" stroke-linejoin="round"/>
<path d="M179.807 107.08V204.147C179.807 210.733 174.467 216.08 167.872 216.08H94.9267C88.3387 216.08 83 210.733 83 204.147V107.08H179.807Z" fill="#D2EAAC"/>
<path d="M179.807 107.08V204.147C179.807 210.733 174.467 216.08 167.872 216.08H94.9267C88.3387 216.08 83 210.733 83 204.147V107.08H179.807Z" stroke="#1B1F06" stroke-width="5.82208" stroke-miterlimit="10" stroke-linecap="round" stroke-linejoin="round"/>
<path d="M165.472 129.36V196.88" stroke="#1B1F06" stroke-width="5.82208" stroke-miterlimit="10" stroke-linecap="round" stroke-linejoin="round"/>
</svg>
