<svg width="279" height="40" viewBox="0 0 279 40" fill="none" xmlns="http://www.w3.org/2000/svg">
<mask id="mask0_200_6" style="mask-type:luminance" maskUnits="userSpaceOnUse" x="0" y="0" width="279" height="40">
<path d="M279 0H0V40H279V0Z" fill="white"/>
<path d="M30.1715 1.49597V8.61997H20.4995V38H11.6075V8.61997H1.93549V1.49597H30.1715ZM70.3582 31.552H56.7342L54.5502 38H45.2422L58.4502 1.49597H68.7462L81.9542 38H72.5422L70.3582 31.552ZM68.0702 24.688L63.5462 11.324L59.0742 24.688H68.0702ZM131.63 38H122.738L107.866 15.484V38H98.974V1.49597H107.866L122.738 24.116V1.49597H131.63V38ZM178.896 13.248C178.896 15.3627 178.41 17.304 177.44 19.072C176.469 20.8053 174.978 22.2093 172.968 23.284C170.957 24.3587 168.461 24.896 165.48 24.896H159.968V38H151.076V1.49597H165.48C168.392 1.49597 170.853 1.99864 172.864 3.00397C174.874 4.0093 176.382 5.39597 177.388 7.16397C178.393 8.93197 178.896 10.96 178.896 13.248ZM164.804 17.824C166.502 17.824 167.768 17.4253 168.6 16.628C169.432 15.8307 169.848 14.704 169.848 13.248C169.848 11.792 169.432 10.6653 168.6 9.86797C167.768 9.07064 166.502 8.67197 164.804 8.67197H159.968V17.824H164.804ZM228.141 1.49597V38H219.249V22.972H205.417V38H196.525V1.49597H205.417V15.796H219.249V1.49597H228.141ZM256.296 1.49597V23.336C256.296 25.52 256.833 27.2013 257.908 28.38C258.983 29.5587 260.56 30.148 262.64 30.148C264.72 30.148 266.315 29.5587 267.424 28.38C268.533 27.2013 269.088 25.52 269.088 23.336V1.49597H277.98V23.284C277.98 26.5427 277.287 29.2987 275.9 31.552C274.513 33.8053 272.641 35.504 270.284 36.648C267.961 37.792 265.361 38.364 262.484 38.364C259.607 38.364 257.024 37.8093 254.736 36.7C252.483 35.556 250.697 33.8573 249.38 31.604C248.063 29.316 247.404 26.5427 247.404 23.284V1.49597H256.296Z" fill="black"/>
</mask>
<g mask="url(#mask0_200_6)">
<path d="M30.1715 1.49597H31.1715V0.495972H30.1715V1.49597ZM30.1715 8.61997V9.61997H31.1715V8.61997H30.1715ZM20.4995 8.61997V7.61997H19.4995V8.61997H20.4995ZM20.4995 38V39H21.4995V38H20.4995ZM11.6075 38H10.6075V39H11.6075V38ZM11.6075 8.61997H12.6075V7.61997H11.6075V8.61997ZM1.93549 8.61997H0.935486V9.61997H1.93549V8.61997ZM1.93549 1.49597V0.495972H0.935486V1.49597H1.93549ZM29.1715 1.49597V8.61997H31.1715V1.49597H29.1715ZM30.1715 7.61997H20.4995V9.61997H30.1715V7.61997ZM19.4995 8.61997V38H21.4995V8.61997H19.4995ZM20.4995 37H11.6075V39H20.4995V37ZM12.6075 38V8.61997H10.6075V38H12.6075ZM11.6075 7.61997H1.93549V9.61997H11.6075V7.61997ZM2.93549 8.61997V1.49597H0.935486V8.61997H2.93549ZM1.93549 2.49597H30.1715V0.495972H1.93549V2.49597ZM70.3582 31.552L71.3053 31.2312L71.0752 30.552H70.3582V31.552ZM56.7342 31.552V30.552H56.0171L55.787 31.2312L56.7342 31.552ZM54.5502 38V39H55.2673L55.4973 38.3208L54.5502 38ZM45.2422 38L44.3018 37.6598L43.8169 39H45.2422V38ZM58.4502 1.49597V0.495972H57.7485L57.5098 1.15574L58.4502 1.49597ZM68.7462 1.49597L69.6865 1.15574L69.4478 0.495972H68.7462V1.49597ZM81.9542 38V39H83.3794L82.8945 37.6598L81.9542 38ZM72.5422 38L71.595 38.3208L71.8251 39H72.5422V38ZM68.0702 24.688V25.688H69.4644L69.0174 24.3674L68.0702 24.688ZM63.5462 11.324L64.4934 11.0034L63.5407 8.18909L62.5978 11.0067L63.5462 11.324ZM59.0742 24.688L58.1258 24.3707L57.685 25.688H59.0742V24.688ZM70.3582 30.552H56.7342V32.552H70.3582V30.552ZM55.787 31.2312L53.603 37.6792L55.4973 38.3208L57.6813 31.8728L55.787 31.2312ZM54.5502 37H45.2422V39H54.5502V37ZM46.1825 38.3402L59.3905 1.83621L57.5098 1.15574L44.3018 37.6598L46.1825 38.3402ZM58.4502 2.49597H68.7462V0.495972H58.4502V2.49597ZM67.8058 1.83621L81.0138 38.3402L82.8945 37.6598L69.6865 1.15574L67.8058 1.83621ZM81.9542 37H72.5422V39H81.9542V37ZM73.4893 37.6792L71.3053 31.2312L69.411 31.8728L71.595 38.3208L73.4893 37.6792ZM69.0174 24.3674L64.4934 11.0034L62.599 11.6446L67.123 25.0086L69.0174 24.3674ZM62.5978 11.0067L58.1258 24.3707L60.0225 25.0053L64.4945 11.6413L62.5978 11.0067ZM59.0742 25.688H68.0702V23.688H59.0742V25.688ZM131.63 38V39H132.63V38H131.63ZM122.738 38L121.904 38.5511L122.2 39H122.738V38ZM107.866 15.484L108.7 14.9329L106.866 12.1556V15.484H107.866ZM107.866 38V39H108.866V38H107.866ZM98.974 38H97.974V39H98.974V38ZM98.974 1.49597V0.495972H97.974V1.49597H98.974ZM107.866 1.49597L108.702 0.946602L108.405 0.495972H107.866V1.49597ZM122.738 24.116L121.902 24.6654L123.738 27.4572V24.116H122.738ZM122.738 1.49597V0.495972H121.738V1.49597H122.738ZM131.63 1.49597H132.63V0.495972H131.63V1.49597ZM131.63 37H122.738V39H131.63V37ZM123.572 37.4489L108.7 14.9329L107.032 16.0351L121.904 38.5511L123.572 37.4489ZM106.866 15.484V38H108.866V15.484H106.866ZM107.866 37H98.974V39H107.866V37ZM99.974 38V1.49597H97.974V38H99.974ZM98.974 2.49597H107.866V0.495972H98.974V2.49597ZM107.03 2.04534L121.902 24.6654L123.574 23.5666L108.702 0.946602L107.03 2.04534ZM123.738 24.116V1.49597H121.738V24.116H123.738ZM122.738 2.49597H131.63V0.495972H122.738V2.49597ZM130.63 1.49597V38H132.63V1.49597H130.63ZM177.44 19.072L178.312 19.5606L178.316 19.5533L177.44 19.072ZM159.968 24.896V23.896H158.968V24.896H159.968ZM159.968 38V39H160.968V38H159.968ZM151.076 38H150.076V39H151.076V38ZM151.076 1.49597V0.495972H150.076V1.49597H151.076ZM159.968 8.67197V7.67197H158.968V8.67197H159.968ZM159.968 17.824H158.968V18.824H159.968V17.824ZM177.896 13.248C177.896 15.2029 177.449 16.9775 176.563 18.5907L178.316 19.5533C179.372 17.6305 179.896 15.5225 179.896 13.248H177.896ZM176.567 18.5834C175.703 20.1264 174.364 21.4039 172.496 22.4021L173.439 24.1659C175.593 23.0148 177.235 21.4842 178.312 19.5606L176.567 18.5834ZM172.496 22.4021C170.668 23.379 168.345 23.896 165.48 23.896V25.896C168.576 25.896 171.245 25.3383 173.439 24.1659L172.496 22.4021ZM165.48 23.896H159.968V25.896H165.48V23.896ZM158.968 24.896V38H160.968V24.896H158.968ZM159.968 37H151.076V39H159.968V37ZM152.076 38V1.49597H150.076V38H152.076ZM151.076 2.49597H165.48V0.495972H151.076V2.49597ZM165.48 2.49597C168.281 2.49597 170.579 2.9799 172.416 3.8984L173.311 2.10954C171.126 1.01738 168.503 0.495972 165.48 0.495972V2.49597ZM172.416 3.8984C174.269 4.82482 175.621 6.08047 176.518 7.65827L178.257 6.66966C177.143 4.71147 175.479 3.19378 173.311 2.10954L172.416 3.8984ZM176.518 7.65827C177.428 9.25752 177.896 11.1112 177.896 13.248H179.896C179.896 10.8087 179.358 8.60642 178.257 6.66966L176.518 7.65827ZM164.804 18.824C166.639 18.824 168.201 18.3947 169.291 17.35L167.908 15.906C167.334 16.4559 166.365 16.824 164.804 16.824V18.824ZM169.291 17.35C170.369 16.3172 170.848 14.9005 170.848 13.248H168.848C168.848 14.5075 168.494 15.3442 167.908 15.906L169.291 17.35ZM170.848 13.248C170.848 11.5955 170.369 10.1788 169.291 9.14598L167.908 10.59C168.494 11.1518 168.848 11.9885 168.848 13.248H170.848ZM169.291 9.14598C168.201 8.10122 166.639 7.67197 164.804 7.67197V9.67197C166.365 9.67197 167.334 10.0401 167.908 10.59L169.291 9.14598ZM164.804 7.67197H159.968V9.67197H164.804V7.67197ZM158.968 8.67197V17.824H160.968V8.67197H158.968ZM159.968 18.824H164.804V16.824H159.968V18.824ZM228.141 1.49597H229.141V0.495972H228.141V1.49597ZM228.141 38V39H229.141V38H228.141ZM219.249 38H218.249V39H219.249V38ZM219.249 22.972H220.249V21.972H219.249V22.972ZM205.417 22.972V21.972H204.417V22.972H205.417ZM205.417 38V39H206.417V38H205.417ZM196.525 38H195.525V39H196.525V38ZM196.525 1.49597V0.495972H195.525V1.49597H196.525ZM205.417 1.49597H206.417V0.495972H205.417V1.49597ZM205.417 15.796H204.417V16.796H205.417V15.796ZM219.249 15.796V16.796H220.249V15.796H219.249ZM219.249 1.49597V0.495972H218.249V1.49597H219.249ZM227.141 1.49597V38H229.141V1.49597H227.141ZM228.141 37H219.249V39H228.141V37ZM220.249 38V22.972H218.249V38H220.249ZM219.249 21.972H205.417V23.972H219.249V21.972ZM204.417 22.972V38H206.417V22.972H204.417ZM205.417 37H196.525V39H205.417V37ZM197.525 38V1.49597H195.525V38H197.525ZM196.525 2.49597H205.417V0.495972H196.525V2.49597ZM204.417 1.49597V15.796H206.417V1.49597H204.417ZM205.417 16.796H219.249V14.796H205.417V16.796ZM220.249 15.796V1.49597H218.249V15.796H220.249ZM219.249 2.49597H228.141V0.495972H219.249V2.49597ZM256.296 1.49597H257.296V0.495972H256.296V1.49597ZM269.088 1.49597V0.495972H268.088V1.49597H269.088ZM277.98 1.49597H278.98V0.495972H277.98V1.49597ZM270.284 36.648L269.847 35.7483L269.842 35.7509L270.284 36.648ZM254.736 36.7L254.283 37.5917L254.291 37.5958L254.3 37.5998L254.736 36.7ZM249.38 31.604L248.513 32.103L248.517 32.1087L249.38 31.604ZM247.404 1.49597V0.495972H246.404V1.49597H247.404ZM255.296 1.49597V23.336H257.296V1.49597H255.296ZM255.296 23.336C255.296 25.6764 255.873 27.6322 257.169 29.0538L258.647 27.7062C257.794 26.7705 257.296 25.3636 257.296 23.336H255.296ZM257.169 29.0538C258.486 30.4988 260.369 31.148 262.64 31.148V29.148C260.751 29.148 259.479 28.6186 258.647 27.7062L257.169 29.0538ZM262.64 31.148C264.913 31.148 266.804 30.4982 268.152 29.0654L266.696 27.6946C265.826 28.6191 264.527 29.148 262.64 29.148V31.148ZM268.152 29.0654C269.49 27.6443 270.088 25.684 270.088 23.336H268.088C268.088 25.356 267.577 26.7584 266.696 27.6946L268.152 29.0654ZM270.088 23.336V1.49597H268.088V23.336H270.088ZM269.088 2.49597H277.98V0.495972H269.088V2.49597ZM276.98 1.49597V23.284H278.98V1.49597H276.98ZM276.98 23.284C276.98 26.4004 276.318 28.965 275.048 31.0279L276.752 32.0761C278.255 29.6323 278.98 26.6849 278.98 23.284H276.98ZM275.048 31.0279C273.76 33.1208 272.032 34.6883 269.847 35.7483L270.721 37.5477C273.251 36.3197 275.266 34.4899 276.752 32.0761L275.048 31.0279ZM269.842 35.7509C267.672 36.82 265.225 37.364 262.484 37.364V39.364C265.497 39.364 268.251 38.764 270.726 37.5451L269.842 35.7509ZM262.484 37.364C259.738 37.364 257.307 36.8354 255.172 35.8002L254.3 37.5998C256.741 38.7833 259.475 39.364 262.484 39.364V37.364ZM255.189 35.8083C253.112 34.7542 251.467 33.1927 250.243 31.0993L248.517 32.1087C249.928 34.522 251.853 36.3578 254.283 37.5917L255.189 35.8083ZM250.247 31.105C249.035 29.0006 248.404 26.4082 248.404 23.284H246.404C246.404 26.6771 247.09 29.6314 248.513 32.103L250.247 31.105ZM248.404 23.284V1.49597H246.404V23.284H248.404ZM247.404 2.49597H256.296V0.495972H247.404V2.49597Z" fill="#454545"/>
</g>
</svg>
