<svg width="512" height="512" viewBox="0 0 512 512" fill="none" xmlns="http://www.w3.org/2000/svg">
<path d="M225.744 443.65H119.211V454.079H225.744V443.65Z" fill="#7A7A77"/>
<path d="M222.954 473.216L220.264 475.317L206.66 485.932H138.379L125.238 475.317L122.641 473.216H222.954Z" fill="#7A7A77"/>
<path d="M225.744 414H119.211V424.497H225.744V414Z" fill="#7A7A77"/>
<path d="M225.744 405.821V415.84H119.211V405.821C144.158 405.821 172.512 405.821 172.512 405.821C172.512 405.821 200.798 405.821 225.744 405.821Z" fill="#646363"/>
<path d="M225.744 385.715H119.211V396.144H225.744V385.715Z" fill="#7A7A77"/>
<path d="M225.744 377.535V387.555H119.211V377.535C144.158 377.535 172.512 377.535 172.512 377.535C172.512 377.535 200.798 377.535 225.744 377.535Z" fill="#646363"/>
<path d="M225.744 435.335V445.354H119.211V435.335C144.158 435.335 172.512 435.335 172.512 435.335C172.512 435.335 200.798 435.335 225.744 435.335Z" fill="#646363"/>
<path d="M222.954 473.216L220.264 475.317H125.238L122.641 473.216H222.954Z" fill="#646363"/>
<path d="M239.512 402.209V406.708C239.512 410.729 235.013 414.001 229.492 414.001H115.462C110.009 414.001 105.511 410.729 105.511 406.708V402.209C105.511 398.188 110.01 394.916 115.462 394.916H229.493C235.013 394.916 239.512 398.188 239.512 402.209Z" fill="#E0EEC9"/>
<path d="M239.512 431.79V436.288C239.512 440.31 235.013 443.65 229.492 443.65H115.462C110.009 443.65 105.511 440.31 105.511 436.288V431.79C105.511 427.768 110.01 424.497 115.462 424.497H229.493C235.013 424.497 239.512 427.768 239.512 431.79Z" fill="#E0EEC9"/>
<path d="M239.512 461.371V465.938C239.512 469.959 235.013 473.231 229.492 473.231H115.462C110.009 473.231 105.511 469.959 105.511 465.938V461.371C105.511 460.894 105.579 460.348 105.716 459.871C106.67 456.599 110.692 454.078 115.463 454.078H229.494C235.013 454.079 239.512 457.35 239.512 461.371Z" fill="#E4F2CD"/>
<path d="M204.395 484.045H141.242H134.663C134.663 499.485 151.736 512 172.797 512C193.858 512 210.931 499.484 210.931 484.045H204.395Z" fill="#C9D1B3"/>
<path d="M342.978 171.489C342.978 218.86 323.825 261.732 292.745 292.812C261.733 323.825 242.852 334.117 240.126 383.942H225.744C211.635 383.942 194.05 383.942 194.05 383.942H148.929C148.929 383.942 132.912 383.942 119.212 383.942H102.854C100.469 340.796 86.019 327.301 62.095 304.4C58.346 300.788 54.393 296.971 50.235 292.812C19.153 261.732 0 218.861 0 171.489C0 124.117 19.153 81.246 50.234 50.234C81.246 19.221 124.118 0 171.489 0C209.522 0 244.693 12.406 273.115 33.398C280.067 38.51 286.61 44.167 292.745 50.234C294.858 52.278 296.903 54.459 298.879 56.641C302.696 60.935 306.377 65.434 309.785 70.068C330.71 98.491 342.978 133.525 342.978 171.489Z" fill="#6BA415"/>
<path opacity="0.2" d="M303.923 62.571L61.957 304.537C58.276 300.789 54.323 296.903 50.234 292.813C19.153 261.732 0 218.861 0 171.489C0 124.117 19.153 81.246 50.234 50.234C81.246 19.221 124.118 0 171.489 0C209.522 0 244.693 12.406 273.115 33.398C280.067 38.51 286.61 44.167 292.745 50.234C294.858 52.278 296.903 54.459 298.879 56.641C300.583 58.618 302.287 60.594 303.923 62.571Z" fill="white"/>
<path opacity="0.2" d="M101.335 90.6434C119.634 73.194 126.574 50.77 116.836 40.558C107.098 30.3459 84.3701 36.2129 66.0711 53.6623C47.7722 71.1116 40.8321 93.5356 50.57 103.748C60.308 113.96 83.0363 108.093 101.335 90.6434Z" fill="white"/>
</svg>
