<svg width="60" height="60" viewBox="0 0 60 60" fill="none" xmlns="http://www.w3.org/2000/svg">
<path d="M22.1367 45.2461C21.8203 45.2461 21.5625 44.9883 21.5625 44.6719C21.5508 41.9297 20.7539 41.0625 19.1484 39.3281C18.7969 38.9531 18.4102 38.5312 17.9883 38.0508C16.5469 36.3984 15.4922 34.4883 14.8242 32.3906C14.3438 30.8672 14.0977 29.2617 14.0977 27.6211C14.0977 23.25 15.9258 19.0195 19.1133 16.0312C22.3359 12.9961 26.5664 11.4727 31.0078 11.7539C34.9922 12 38.707 13.6992 41.4609 16.5586C44.2148 19.418 45.7969 23.1797 45.9023 27.1758C45.9492 28.9453 45.7031 30.7031 45.1758 32.3906C44.5078 34.5234 43.3711 36.5156 41.8945 38.1797C41.5195 38.6016 41.1797 38.9766 40.8633 39.3047C39.1875 41.0977 38.4258 41.918 38.4258 44.6719C38.4258 44.9883 38.168 45.2461 37.8516 45.2461C37.5352 45.2461 37.2773 44.9883 37.2773 44.6719C37.2773 41.4727 38.3086 40.3594 40.0195 38.5312C40.3359 38.1914 40.6641 37.8281 41.0273 37.4297C42.3984 35.8945 43.4531 34.0312 44.0742 32.0625C44.5664 30.4922 44.7891 28.8633 44.7422 27.2227C44.5312 19.5352 38.5898 13.3828 30.9141 12.9141C26.7891 12.6562 22.875 14.0742 19.875 16.8867C16.875 19.7109 15.2227 23.5312 15.2227 27.6445C15.2227 29.1562 15.4453 30.6445 15.8906 32.0625C16.5 34.0078 17.4844 35.7773 18.8203 37.3125C19.2305 37.7812 19.6172 38.2031 19.957 38.5664C21.6445 40.3945 22.6641 41.4961 22.6758 44.6836C22.7109 44.9883 22.4531 45.2461 22.1367 45.2461ZM30 9.30469C29.6836 9.30469 29.4258 9.04688 29.4258 8.73047V5.37891C29.4258 5.0625 29.6836 4.80469 30 4.80469C30.3164 4.80469 30.5742 5.0625 30.5742 5.37891V8.73047C30.5742 9.04688 30.3164 9.30469 30 9.30469ZM22.8633 10.7227C22.6406 10.7227 22.4297 10.5938 22.3359 10.3711L21.0586 7.26562C20.9414 6.97266 21.082 6.63281 21.3633 6.51562C21.6562 6.39844 21.9961 6.53906 22.1133 6.82031L23.3906 9.92578C23.5078 10.2187 23.3672 10.5586 23.0859 10.6758C23.0156 10.7109 22.9336 10.7227 22.8633 10.7227ZM16.8047 14.7656C16.6523 14.7656 16.5117 14.707 16.3945 14.6016L14.0273 12.2344C13.8047 12.0117 13.8047 11.6484 14.0273 11.4258C14.25 11.2031 14.6133 11.2031 14.8359 11.4258L17.2031 13.793C17.4258 14.0156 17.4258 14.3789 17.2031 14.6016C17.0977 14.707 16.957 14.7656 16.8047 14.7656ZM12.7617 20.8125C12.6914 20.8125 12.6094 20.8008 12.5391 20.7656L9.44531 19.4883C9.15234 19.3711 9.01172 19.0312 9.14062 18.7383C9.25781 18.4453 9.59766 18.3047 9.89062 18.4336L12.9844 19.7109C13.2773 19.8281 13.418 20.168 13.2891 20.4609C13.207 20.6836 12.9844 20.8125 12.7617 20.8125ZM9.66797 36.3633C9.44531 36.3633 9.23437 36.2344 9.14062 36.0117C9.02344 35.7187 9.15234 35.3789 9.44531 35.2617L12.5391 33.9844C12.832 33.8672 13.1719 33.9961 13.2891 34.2891C13.4062 34.582 13.2773 34.9219 12.9844 35.0391L9.89062 36.3281C9.82031 36.3516 9.75 36.3633 9.66797 36.3633ZM50.332 36.3633C50.2617 36.3633 50.1797 36.3516 50.1094 36.3164L47.0156 35.0391C46.7227 34.9219 46.582 34.582 46.7109 34.2891C46.8281 33.9961 47.168 33.8555 47.4609 33.9844L50.5547 35.2617C50.8477 35.3789 50.9883 35.7187 50.8594 36.0117C50.7656 36.2344 50.5547 36.3633 50.332 36.3633ZM11.3555 27.9492H8.00391C7.6875 27.9492 7.42969 27.6914 7.42969 27.375C7.42969 27.0586 7.6875 26.8008 8.00391 26.8008H11.3555C11.6719 26.8008 11.9297 27.0586 11.9297 27.375C11.9297 27.6914 11.6719 27.9492 11.3555 27.9492ZM51.9961 27.9492H48.6445C48.3281 27.9492 48.0703 27.6914 48.0703 27.375C48.0703 27.0586 48.3281 26.8008 48.6445 26.8008H51.9961C52.3125 26.8008 52.5703 27.0586 52.5703 27.375C52.5703 27.6914 52.3125 27.9492 51.9961 27.9492ZM47.2383 20.8125C47.0156 20.8125 46.8047 20.6836 46.7109 20.4609C46.5938 20.168 46.7227 19.8281 47.0156 19.7109L50.1094 18.4336C50.4023 18.3164 50.7422 18.4453 50.8594 18.7383C50.9766 19.0312 50.8477 19.3711 50.5547 19.4883L47.4609 20.7656C47.3789 20.8008 47.3086 20.8125 47.2383 20.8125ZM43.1953 14.7656C43.043 14.7656 42.9023 14.707 42.7852 14.6016C42.5625 14.3789 42.5625 14.0156 42.7852 13.793L45.1523 11.4258C45.375 11.2031 45.7383 11.2031 45.9609 11.4258C46.1836 11.6484 46.1836 12.0117 45.9609 12.2344L43.5938 14.6016C43.4883 14.707 43.3359 14.7656 43.1953 14.7656ZM37.1367 10.7227C37.0664 10.7227 36.9844 10.7109 36.9141 10.6758C36.6211 10.5586 36.4805 10.2187 36.6094 9.92578L37.8867 6.82031C38.0039 6.52734 38.3438 6.38672 38.6367 6.51562C38.9297 6.63281 39.0703 6.97266 38.9414 7.26562L37.6641 10.3711C37.5703 10.5938 37.3594 10.7227 37.1367 10.7227Z" fill="#639B27"/>
<path d="M38.2148 48.5742H21.7969C20.707 48.5742 19.8281 47.6953 19.8281 46.6055V45.3398C19.8281 44.6602 20.3789 44.1094 21.0586 44.1094H38.9414C39.6211 44.1094 40.1719 44.6602 40.1719 45.3398V46.6055C40.1836 47.1211 39.9844 47.6133 39.6094 47.9883C39.2344 48.3633 38.7422 48.5742 38.2148 48.5742ZM21.0586 45.2578C21.0234 45.2578 20.9766 45.293 20.9766 45.3398V46.6055C20.9766 47.0625 21.3516 47.4258 21.7969 47.4258H38.2031C38.4258 47.4258 38.625 47.3438 38.7891 47.1797C38.9414 47.0273 39.0234 46.8164 39.0234 46.6055V45.3281C39.0234 45.293 38.9883 45.2461 38.9414 45.2461H21.0586V45.2578Z" fill="#639B27"/>
<path d="M34.7344 51.9141H25.2773C24.0469 51.9141 23.0391 50.918 23.0391 49.6758V48C23.0391 47.6836 23.2969 47.4258 23.6133 47.4258C23.9297 47.4258 24.1875 47.6836 24.1875 48V49.6758C24.1875 50.2734 24.6797 50.7656 25.2773 50.7656H34.7344C35.332 50.7656 35.8242 50.2734 35.8242 49.6758V48C35.8242 47.6836 36.082 47.4258 36.3984 47.4258C36.7148 47.4258 36.9727 47.6836 36.9727 48V49.6758C36.9609 50.9062 35.9648 51.9141 34.7344 51.9141Z" fill="#639B27"/>
<path d="M30 55.1953C27.8672 55.1953 26.1445 53.4609 26.1445 51.3398C26.1445 51.0234 26.4023 50.7656 26.7187 50.7656C27.0352 50.7656 27.293 51.0234 27.293 51.3398C27.293 52.8398 28.5117 54.0586 30.0117 54.0586C31.5117 54.0586 32.7305 52.8398 32.7305 51.3398C32.7305 51.0234 32.9883 50.7656 33.3047 50.7656C33.6211 50.7656 33.8789 51.0234 33.8789 51.3398C33.8555 53.4609 32.1328 55.1953 30 55.1953ZM30 31.2422C29.6836 31.2422 29.4258 30.9844 29.4258 30.668V24.5156C29.4258 24.1992 29.6836 23.9414 30 23.9414C30.3164 23.9414 30.5742 24.1992 30.5742 24.5156V30.668C30.5742 30.9844 30.3164 31.2422 30 31.2422Z" fill="#639B27"/>
<path d="M30 31.2422C29.8477 31.2422 29.707 31.1836 29.5898 31.0781L29.1914 30.6797C27.5508 29.0391 26.6484 26.8594 26.6484 24.5273C26.6484 22.1953 27.5508 20.0156 29.1914 18.375L29.5898 17.9766C29.8125 17.7539 30.1758 17.7539 30.3984 17.9766L30.7969 18.375C32.4375 20.0156 33.3398 22.1953 33.3398 24.5273C33.3398 26.8594 32.4375 29.0391 30.7969 30.6797L30.3984 31.0781C30.293 31.1836 30.1523 31.2422 30 31.2422ZM30 19.1836C28.582 20.6133 27.7969 22.5 27.7969 24.5156C27.7969 26.5312 28.582 28.4297 30 29.8477C31.418 28.418 32.2031 26.5312 32.2031 24.5156C32.2031 22.5 31.418 20.6133 30 19.1836ZM28.3711 36.9609H27.7969C23.0039 36.9609 19.1016 33.0586 19.1016 28.2656V27.6914C19.1016 27.375 19.3594 27.1172 19.6758 27.1172H20.25C25.043 27.1172 28.9453 31.0195 28.9453 35.8125V36.3867C28.9453 36.7031 28.6875 36.9609 28.3711 36.9609ZM20.25 28.2656C20.25 32.4258 23.6367 35.8125 27.7969 35.8125C27.7969 31.6523 24.4102 28.2656 20.25 28.2656ZM32.2031 36.9609H31.6289C31.3125 36.9609 31.0547 36.7031 31.0547 36.3867V35.8125C31.0547 31.0195 34.957 27.1172 39.75 27.1172H40.3242C40.6406 27.1172 40.8984 27.375 40.8984 27.6914V28.2656C40.8867 33.0586 36.9961 36.9609 32.2031 36.9609ZM39.75 28.2656C35.5898 28.2656 32.2031 31.6523 32.2031 35.8125C36.3633 35.8125 39.75 32.4375 39.75 28.2656Z" fill="#639B27"/>
<path d="M28.3711 36.9609C28.2187 36.9609 28.0781 36.9023 27.9609 36.7969L23.625 32.4492C23.4023 32.2266 23.4023 31.8633 23.625 31.6406C23.8477 31.418 24.2109 31.418 24.4336 31.6406L28.7695 35.9883C28.9922 36.2109 28.9922 36.5742 28.7695 36.7969C28.6641 36.9023 28.5234 36.9609 28.3711 36.9609ZM31.6289 36.9609C31.4883 36.9609 31.3359 36.9023 31.2187 36.7969C30.9961 36.5742 30.9961 36.2109 31.2187 35.9883L35.5547 31.6406C35.7773 31.418 36.1406 31.418 36.3633 31.6406C36.5859 31.8633 36.5859 32.2266 36.3633 32.4492L32.0273 36.7969C31.9219 36.9023 31.7695 36.9609 31.6289 36.9609Z" fill="#639B27"/>
</svg>
