<svg width="219" height="200" viewBox="0 0 219 200" fill="none" xmlns="http://www.w3.org/2000/svg">
<path d="M216.031 155.28C216.031 178.293 168.528 196.947 109.937 196.947C51.3413 196.947 3.84131 178.293 3.84131 155.28C3.84131 132.253 51.3413 113.613 109.937 113.613C168.528 113.613 216.031 132.253 216.031 155.28Z" fill="#D2EAAC"/>
<path d="M216.031 155.28C216.031 178.293 168.528 196.947 109.937 196.947C51.3413 196.947 3.84131 178.293 3.84131 155.28C3.84131 132.253 51.3413 113.613 109.937 113.613C168.528 113.613 216.031 132.253 216.031 155.28Z" stroke="#1B1F06" stroke-width="5.82208" stroke-miterlimit="10" stroke-linecap="round" stroke-linejoin="round"/>
<path d="M126.443 160.4C235.767 136.733 109.269 3.01337 109.269 3.01337C109.269 3.01337 -17.8827 140.027 92.104 160.4C100.547 161.96 118.049 162.213 126.443 160.4Z" fill="white"/>
<path d="M126.443 160.4C235.767 136.733 109.269 3.01337 109.269 3.01337C109.269 3.01337 -17.8827 140.027 92.104 160.4C100.547 161.96 118.049 162.213 126.443 160.4Z" stroke="#1B1F06" stroke-width="5.82208" stroke-miterlimit="10" stroke-linecap="round" stroke-linejoin="round"/>
<path d="M64.4292 164.44C64.4292 164.44 100.773 181.693 156.196 164.44" stroke="#1B1F06" stroke-width="5.82208" stroke-miterlimit="10" stroke-linecap="round" stroke-linejoin="round"/>
<path d="M148.536 92.7334C148.536 92.7334 165.169 122.08 141.797 134.48" stroke="#1B1F06" stroke-width="5.82208" stroke-miterlimit="10" stroke-linecap="round" stroke-linejoin="round"/>
</svg>
