<svg width="219" height="201" viewBox="0 0 219 201" fill="none" xmlns="http://www.w3.org/2000/svg">
<path d="M55.4935 63.8761H3V37.3774H55.4935V63.8761Z" fill="#D2EAAC"/>
<path d="M55.4935 63.8761H3V37.3774H55.4935V63.8761Z" stroke="#1B1F06" stroke-width="5.82208" stroke-miterlimit="10" stroke-linecap="round" stroke-linejoin="round"/>
<path d="M178.054 118.889H196.387V93.9694C196.387 64.0361 172.054 39.6988 142.12 39.6988C137.054 39.6988 132.947 43.7961 132.947 48.8761C132.947 53.9295 137.054 58.0361 142.12 58.0361C161.934 58.0361 178.054 74.1561 178.054 93.9694V118.889Z" stroke="#1B1F06" stroke-width="5.82208" stroke-miterlimit="10" stroke-linecap="round" stroke-linejoin="round"/>
<path d="M148.24 50.6227C148.24 66.0893 133.533 78.6094 115.4 78.6094H62.84C44.7067 78.6094 30.0132 66.0893 30.0132 50.6227C30.0132 35.1773 44.7067 22.6467 62.84 22.6467H115.4C133.533 22.6467 148.24 35.1773 148.24 50.6227Z" fill="white"/>
<path d="M148.24 50.6227C148.24 66.0893 133.533 78.6094 115.4 78.6094H62.84C44.7067 78.6094 30.0132 66.0893 30.0132 50.6227C30.0132 35.1773 44.7067 22.6467 62.84 22.6467H115.4C133.533 22.6467 148.24 35.1773 148.24 50.6227Z" stroke="#1B1F06" stroke-width="5.82208" stroke-miterlimit="10" stroke-linecap="round" stroke-linejoin="round"/>
<path d="M85.5601 22.6467V4.98006" stroke="#1B1F06" stroke-width="5.82208" stroke-miterlimit="10" stroke-linecap="round" stroke-linejoin="round"/>
<path d="M49.1201 3H122" stroke="#1B1F06" stroke-width="5.82208" stroke-miterlimit="10" stroke-linecap="round" stroke-linejoin="round"/>
<path d="M195.373 197.303C244.053 186.769 187.72 127.223 187.72 127.223C187.72 127.223 131.093 188.236 180.08 197.303C183.84 198.009 191.627 198.116 195.373 197.303Z" fill="#D2EAAC"/>
<path d="M195.373 197.303C244.053 186.769 187.72 127.223 187.72 127.223C187.72 127.223 131.093 188.236 180.08 197.303C183.84 198.009 191.627 198.116 195.373 197.303Z" stroke="#1B1F06" stroke-width="5.82208" stroke-miterlimit="10" stroke-linecap="round" stroke-linejoin="round"/>
<path d="M207.066 97.5427H170.466V88.116H207.066V97.5427Z" fill="white"/>
<path d="M207.066 97.5427H170.466V88.116H207.066V97.5427Z" stroke="#1B1F06" stroke-width="5.82208" stroke-miterlimit="10" stroke-linecap="round" stroke-linejoin="round"/>
<path d="M91.7335 75.4761C91.7335 78.6361 89.1736 81.1827 86.0403 81.1827C82.8803 81.1827 80.3335 78.6361 80.3335 75.4761V23.1174C80.3335 19.972 82.8803 17.42 86.0403 17.42C89.1736 17.42 91.7335 19.972 91.7335 23.1174V75.4761Z" fill="#D2EAAC"/>
<path d="M91.7335 75.4761C91.7335 78.6361 89.1736 81.1827 86.0403 81.1827C82.8803 81.1827 80.3335 78.6361 80.3335 75.4761V23.1174C80.3335 19.972 82.8803 17.42 86.0403 17.42C89.1736 17.42 91.7335 19.972 91.7335 23.1174V75.4761Z" stroke="#1B1F06" stroke-width="5.82208" stroke-miterlimit="10" stroke-linecap="round" stroke-linejoin="round"/>
</svg>
