<svg width="151" height="219" viewBox="0 0 151 219" fill="none" xmlns="http://www.w3.org/2000/svg">
<path d="M70.4531 104.713V215.367H81.693V106.805" fill="white"/>
<path d="M70.4531 104.713V215.367H81.693V106.805" stroke="#1B1F06" stroke-width="5.82208" stroke-miterlimit="10" stroke-linecap="round" stroke-linejoin="round"/>
<path d="M13.8398 100.003C13.8398 63.904 43.1064 34.6387 79.1997 34.6387Z" fill="white"/>
<path d="M13.8398 100.003C13.8398 63.904 43.1064 34.6387 79.1997 34.6387" stroke="#1B1F06" stroke-width="5.82208" stroke-miterlimit="10" stroke-linecap="round" stroke-linejoin="round"/>
<path d="M128.693 150.94C154.227 125.412 154.227 84.016 128.693 58.484Z" fill="white"/>
<path d="M128.693 150.94C154.227 125.412 154.227 84.016 128.693 58.484" stroke="#1B1F06" stroke-width="5.82208" stroke-miterlimit="10" stroke-linecap="round" stroke-linejoin="round"/>
<path d="M79.3867 74.1094V3.18274C79.3867 3.18274 138.48 42.5854 79.3867 99.068" fill="white"/>
<path d="M79.3867 74.1094V3.18274C79.3867 3.18274 138.48 42.5854 79.3867 99.068" fill="white"/>
<path d="M79.3867 74.1094V3.18274C79.3867 3.18274 138.48 42.5854 79.3867 99.068" stroke="#1B1F06" stroke-width="5.82208" stroke-miterlimit="10" stroke-linecap="round" stroke-linejoin="round"/>
<path d="M54.1334 118.497L3.97353 168.653C3.97353 168.653 -9.94648 98.9934 71.7735 100.851" fill="white"/>
<path d="M54.1334 118.497L3.97353 168.653C3.97353 168.653 -9.94648 98.9934 71.7735 100.851" fill="white"/>
<path d="M54.1334 118.497L3.97353 168.653C3.97353 168.653 -9.94648 98.9934 71.7735 100.851" stroke="#1B1F06" stroke-width="5.82208" stroke-miterlimit="10" stroke-linecap="round" stroke-linejoin="round"/>
<path d="M94.4263 118.031L144.573 168.183C144.573 168.183 74.9198 182.117 76.7732 100.388" fill="white"/>
<path d="M94.4263 118.031L144.573 168.183C144.573 168.183 74.9198 182.117 76.7732 100.388" fill="white"/>
<path d="M94.4263 118.031L144.573 168.183C144.573 168.183 74.9198 182.117 76.7732 100.388" stroke="#1B1F06" stroke-width="5.82208" stroke-miterlimit="10" stroke-linecap="round" stroke-linejoin="round"/>
<path d="M85.2001 100.156C85.2001 105.193 81.1067 109.275 76.0667 109.275C71.0401 109.275 66.96 105.193 66.96 100.156C66.96 95.1227 71.0401 91.0414 76.0667 91.0414C81.1067 91.0414 85.2001 95.1227 85.2001 100.156Z" fill="white"/>
<path d="M85.2001 100.156C85.2001 105.193 81.1067 109.275 76.0667 109.275C71.0401 109.275 66.96 105.193 66.96 100.156C66.96 95.1227 71.0401 91.0414 76.0667 91.0414C81.1067 91.0414 85.2001 95.1227 85.2001 100.156Z" fill="white" stroke="#1B1F06" stroke-width="5.82208" stroke-miterlimit="10" stroke-linecap="round" stroke-linejoin="round"/>
<path d="M110.813 215.367H47.1733Z" fill="white"/>
<path d="M110.813 215.367H47.1733" stroke="#1B1F06" stroke-width="5.82208" stroke-miterlimit="10" stroke-linecap="round" stroke-linejoin="round"/>
</svg>
