<svg width="24" height="24" viewBox="0 0 24 24" fill="none" xmlns="http://www.w3.org/2000/svg">
<path fill-rule="evenodd" clip-rule="evenodd" d="M12 20.5C16.6716 20.5 20.5 16.6716 20.5 12C20.5 7.32843 16.6716 3.5 12 3.5C7.32843 3.5 3.5 7.32843 3.5 12C3.5 16.6716 7.32843 20.5 12 20.5ZM22 12C22 17.5 17.5 22 12 22C6.5 22 2 17.5 2 12C2 6.5 6.5 2 12 2C17.5 2 22 6.5 22 12ZM15.3603 8.63959C15.6531 8.93249 15.6531 9.40736 15.3603 9.70025L13.0606 11.9999L15.3603 14.2996C15.6531 14.5925 15.6531 15.0674 15.3603 15.3603C15.0674 15.6531 14.5925 15.6531 14.2996 15.3603L11.9999 13.0606L9.70025 15.3603C9.40736 15.6531 8.93249 15.6531 8.63959 15.3603C8.3467 15.0674 8.3467 14.5925 8.63959 14.2996L10.9393 11.9999L8.63959 9.70025C8.3467 9.40736 8.3467 8.93249 8.63959 8.63959C8.93249 8.3467 9.40736 8.3467 9.70025 8.63959L11.9999 10.9393L14.2996 8.63959C14.5925 8.3467 15.0674 8.3467 15.3603 8.63959Z" fill=""/>
</svg>
