<svg width="283" height="77" viewBox="0 0 283 77" fill="none" xmlns="http://www.w3.org/2000/svg">
<g clip-path="url(#clip0_30_4763)">
<path d="M74.2813 43.1498C72.9139 51.054 68.0575 59.732 61.0819 65.1503C58.6381 51.51 40.0516 39.8367 59.9493 28.509C59.9493 28.509 66.7575 38.1875 64.8994 48.8324C65.1029 48.4807 70.4938 38.6689 62.538 23.7432C61.9798 22.6978 61.464 21.7119 60.9808 20.783C60.9808 20.783 60.972 20.7757 60.972 20.7709L56.2842 12.8884C54.845 10.4689 52.7754 8.4599 50.2835 7.06311C47.7915 5.66633 44.965 4.931 42.0877 4.931C39.2105 4.931 36.3839 5.66633 33.8919 7.06311C31.4 8.4599 29.3304 10.4689 27.8912 12.8884L27.4067 13.7033C24.577 14.4394 21.9846 15.4702 19.7356 16.752L23.4993 10.4242C27.3805 3.89757 34.3286 0 42.0896 0C49.8506 0 56.7999 3.89757 60.6798 10.4218L72.5592 30.4117C72.5697 30.4251 72.5788 30.4393 72.5867 30.4542C74.6521 33.8012 75.1129 38.3354 74.2813 43.1498Z" fill="url(#paint0_linear_30_4763)"/>
<path d="M58.6354 51.682C53.2658 43.3375 51.5512 36.3852 59.9491 28.5088C40.0489 39.8401 58.6379 51.5122 61.0817 65.1525C62.6689 62.3839 62.7363 58.0607 58.6354 51.682Z" fill="url(#paint1_linear_30_4763)"/>
<path d="M54.321 10.2301C46.4251 0.99303 34.02 1.22829 28.0971 5.01551C26.2691 6.5563 24.7192 8.38315 23.5117 10.4204L19.7305 16.7494C21.9782 15.4676 24.5719 14.4369 27.4016 13.7008L27.8861 12.8858C29.1829 10.7048 30.9937 8.85344 33.17 7.48355C35.3462 6.11366 37.8258 5.2643 40.4055 5.00513C42.9851 4.74597 45.5913 5.08439 48.0102 5.99262C50.4291 6.90086 52.5919 8.35305 54.321 10.2301Z" fill="url(#paint2_linear_30_4763)"/>
<path d="M51.861 17.5147C40.7783 26.223 39.3172 47.6729 19.4433 36.2992C19.4433 36.2992 24.8466 25.8094 35.3324 22.2114C35.1364 22.2114 23.5741 22.272 13.9275 36.3756L7.30909 47.5141C5.87078 49.9338 5.11355 52.6786 5.11348 55.4725C5.11341 58.2665 5.8705 61.0113 7.30869 63.4311C8.74688 65.8509 10.8155 67.8606 13.3068 69.2582C15.798 70.6558 18.6241 71.392 21.5012 71.3931H22.3591C24.3971 73.3806 26.5986 75.0554 28.8751 76.3226H21.5075C13.7464 76.3226 6.7971 72.4251 2.91722 65.8935C-0.962667 59.362 -0.963916 51.5754 2.91722 45.0475L15.0064 24.7156C15.0152 24.6962 15.0227 24.6853 15.0302 24.6695L15.175 24.427C15.19 24.3967 15.21 24.37 15.225 24.3445C17.2405 21.1636 20.9018 18.7031 25.3836 17.1072C33.1971 14.3338 43.4993 14.1883 51.861 17.5147Z" fill="url(#paint3_linear_30_4763)"/>
<path d="M40.932 26.1417C36.0343 34.7518 30.6147 39.5952 19.4434 36.2991C39.3173 47.6729 40.7784 26.2229 51.8611 17.5146C48.5993 17.5146 44.6757 19.5605 40.932 26.1417Z" fill="url(#paint4_linear_30_4763)"/>
<path d="M21.5015 71.3928C18.6206 71.4095 15.7872 70.6808 13.2924 69.2816C10.7977 67.8824 8.73169 65.8632 7.30692 63.4315C4.52968 58.7627 4.35486 53.245 6.78494 48.4609C1.55515 58.1454 1.57887 64.09 4.57339 68.3017C8.61686 73.3671 14.747 76.3224 21.5015 76.3224H28.8692C26.5927 75.0551 24.3911 73.3804 22.3532 71.3928H21.5015Z" fill="url(#paint5_linear_30_4763)"/>
<path d="M81.2641 65.8959C77.3842 72.425 70.4348 76.325 62.6738 76.325H38.0334C34.1447 76.2826 30.0701 74.4211 26.3725 71.3955C19.9801 66.1542 14.7228 57.435 13.5952 48.6588C26.8445 53.7654 46.8121 44.4848 46.3488 66.8782C46.3488 66.8782 34.2821 67.4506 25.9117 60.3382C25.9117 60.3382 31.2913 69.7401 47.7649 71.393H62.6738C65.5514 71.3931 68.3783 70.6576 70.8704 69.2604C73.3626 67.8633 75.4321 65.8537 76.871 63.4337C78.31 61.0137 79.0676 58.2685 79.0678 55.474C79.068 52.6796 78.3108 49.9343 76.8722 47.514L76.3102 46.573C77.0408 43.8287 77.4116 41.1026 77.3804 38.5244L81.2641 45.0535C85.1452 51.5778 85.1452 59.3717 81.2641 65.8959Z" fill="url(#paint6_linear_30_4763)"/>
<path d="M26.6972 53.6761C36.8271 53.5984 43.8301 55.8104 46.3513 66.881C46.8109 44.4827 26.8458 53.767 13.5952 48.6592C15.1949 51.418 18.9549 53.7355 26.6972 53.6761Z" fill="url(#paint7_linear_30_4763)"/>
<path d="M63.231 71.3848C75.5662 71.1992 82.804 64.8787 84.1414 56.573C84.3586 52.5433 83.3605 48.5395 81.2692 45.0525L77.3856 38.5234C77.4168 41.1016 77.0459 43.8277 76.3154 46.572L76.8774 47.5131C78.3327 49.9273 79.0998 52.6744 79.0998 55.4719C79.0998 58.2694 78.3327 61.0165 76.8774 63.4308C74.0027 68.2609 68.9315 71.2053 63.231 71.3848Z" fill="url(#paint8_linear_30_4763)"/>
</g>
<path d="M96.024 16.2749V10.2364H122.026V16.2749H112.698V41H105.367V16.2749H96.024ZM128.47 41H120.479L130.858 10.2364H140.757L151.137 41H143.146L135.921 17.9874H135.68L128.47 41ZM127.404 28.8928H144.107V34.5408H127.404V28.8928ZM138.79 7.47244L135.8 3.9875L132.826 7.47244H126.667V7.27716L133.172 0.547616H138.444L144.933 7.27716V7.47244H138.79ZM180.632 10.2364V41H174.323L162.08 23.2448H161.885V41H154.449V10.2364H160.848L172.956 27.9615H173.211V10.2364H180.632ZM194.395 41V10.2364H207.103C209.406 10.2364 211.394 10.687 213.066 11.5883C214.749 12.4795 216.046 13.7263 216.957 15.3286C217.868 16.9208 218.324 18.7735 218.324 20.8865C218.324 23.0095 217.858 24.8671 216.927 26.4594C216.005 28.0416 214.689 29.2684 212.976 30.1396C211.264 31.0108 209.231 31.4464 206.878 31.4464H199.036V25.5881H205.496C206.617 25.5881 207.553 25.3929 208.305 25.0023C209.066 24.6118 209.641 24.066 210.032 23.365C210.423 22.654 210.618 21.8278 210.618 20.8865C210.618 19.9351 210.423 19.114 210.032 18.423C209.641 17.722 209.066 17.1812 208.305 16.8007C207.543 16.4201 206.607 16.2299 205.496 16.2299H201.83V41H194.395ZM221.989 41V10.2364H229.425V22.5839H241.547V10.2364H248.967V41H241.547V28.6375H229.425V41H221.989ZM272.243 10.2364H279.663V30.0795C279.663 32.3728 279.117 34.3706 278.026 36.073C276.934 37.7654 275.412 39.0773 273.459 40.0086C271.507 40.9299 269.238 41.3906 266.655 41.3906C264.041 41.3906 261.758 40.9299 259.805 40.0086C257.852 39.0773 256.335 37.7654 255.254 36.073C254.172 34.3706 253.631 32.3728 253.631 30.0795V10.2364H261.067V29.4336C261.067 30.4951 261.297 31.4414 261.758 32.2726C262.229 33.1038 262.884 33.7547 263.726 34.2254C264.567 34.6961 265.543 34.9314 266.655 34.9314C267.766 34.9314 268.738 34.6961 269.569 34.2254C270.41 33.7547 271.066 33.1038 271.537 32.2726C272.007 31.4414 272.243 30.4951 272.243 29.4336V10.2364ZM264.116 7.3072L267.151 0.532594H273.655L269.118 7.3072H264.116Z" fill="#639B27"/>
<path d="M96.5648 56.6182H98.7879L104.015 69.3863H104.196L109.423 56.6182H111.646V72H109.904V60.3134H109.753L104.947 72H103.264L98.4575 60.3134H98.3073V72H96.5648V56.6182ZM121.582 72.2403C120.54 72.2403 119.626 71.9925 118.84 71.4968C118.059 71.0011 117.448 70.3076 117.008 69.4163C116.572 68.5251 116.354 67.4836 116.354 66.2919C116.354 65.0902 116.572 64.0412 117.008 63.1449C117.448 62.2487 118.059 61.5527 118.84 61.057C119.626 60.5613 120.54 60.3134 121.582 60.3134C122.623 60.3134 123.534 60.5613 124.316 61.057C125.102 61.5527 125.713 62.2487 126.148 63.1449C126.589 64.0412 126.809 65.0902 126.809 66.2919C126.809 67.4836 126.589 68.5251 126.148 69.4163C125.713 70.3076 125.102 71.0011 124.316 71.4968C123.534 71.9925 122.623 72.2403 121.582 72.2403ZM121.582 70.6481C122.373 70.6481 123.024 70.4453 123.534 70.0397C124.045 69.6341 124.423 69.1009 124.669 68.4399C124.914 67.779 125.037 67.063 125.037 66.2919C125.037 65.5208 124.914 64.8023 124.669 64.1363C124.423 63.4704 124.045 62.9321 123.534 62.5216C123.024 62.111 122.373 61.9057 121.582 61.9057C120.791 61.9057 120.14 62.111 119.629 62.5216C119.118 62.9321 118.74 63.4704 118.495 64.1363C118.249 64.8023 118.127 65.5208 118.127 66.2919C118.127 67.063 118.249 67.779 118.495 68.4399C118.74 69.1009 119.118 69.6341 119.629 70.0397C120.14 70.4453 120.791 70.6481 121.582 70.6481ZM123.144 59.0817L121.582 56.9787L120.019 59.0817H118.337V58.9615L120.771 55.8371H122.393L124.826 58.9615V59.0817H123.144ZM131.269 72V60.4636H133.042V72H131.269ZM132.171 58.5409C131.825 58.5409 131.527 58.4232 131.277 58.1879C131.032 57.9526 130.909 57.6697 130.909 57.3392C130.909 57.0087 131.032 56.7258 131.277 56.4905C131.527 56.2552 131.825 56.1375 132.171 56.1375C132.516 56.1375 132.812 56.2552 133.057 56.4905C133.307 56.7258 133.432 57.0087 133.432 57.3392C133.432 57.6697 133.307 57.9526 133.057 58.1879C132.812 58.4232 132.516 58.5409 132.171 58.5409ZM150.763 60.4636V61.9658H144.785V60.4636H150.763ZM146.527 57.6997H148.3V68.6953C148.3 69.196 148.372 69.5716 148.517 69.8219C148.668 70.0673 148.858 70.2325 149.088 70.3176C149.323 70.3977 149.571 70.4378 149.832 70.4378C150.027 70.4378 150.187 70.4278 150.312 70.4077C150.438 70.3827 150.538 70.3627 150.613 70.3477L150.973 71.9399C150.853 71.985 150.685 72.03 150.47 72.0751C150.255 72.1252 149.982 72.1502 149.651 72.1502C149.151 72.1502 148.66 72.0426 148.179 71.8273C147.704 71.6119 147.308 71.284 146.993 70.8434C146.682 70.4027 146.527 69.8469 146.527 69.176V57.6997ZM155.184 72V60.4636H156.896V62.2061H157.016C157.227 61.6353 157.607 61.1721 158.158 60.8166C158.709 60.4611 159.33 60.2834 160.021 60.2834C160.151 60.2834 160.314 60.2859 160.509 60.2909C160.704 60.2959 160.852 60.3034 160.952 60.3134V62.116C160.892 62.101 160.754 62.0784 160.539 62.0484C160.329 62.0133 160.106 61.9958 159.871 61.9958C159.31 61.9958 158.809 62.1135 158.368 62.3488C157.933 62.5791 157.587 62.8996 157.332 63.3102C157.082 63.7157 156.956 64.1789 156.956 64.6996V72H155.184ZM175.202 59.9529H176.765C176.765 60.714 176.665 61.3524 176.464 61.8681C176.264 62.3789 175.913 62.7644 175.413 63.0248C174.912 63.2801 174.211 63.4078 173.31 63.4078V62.1761C173.931 62.1761 174.371 62.101 174.632 61.9507C174.897 61.7955 175.057 61.5552 175.112 61.2297C175.172 60.8993 175.202 60.4736 175.202 59.9529ZM172.078 67.2833V60.4636H173.851V72H172.078V70.0472H171.958C171.687 70.6331 171.267 71.1313 170.696 71.5419C170.125 71.9474 169.404 72.1502 168.533 72.1502C167.812 72.1502 167.171 71.9925 166.61 71.677C166.049 71.3566 165.609 70.8759 165.288 70.235C164.968 69.5891 164.808 68.7754 164.808 67.794V60.4636H166.58V67.6739C166.58 68.5151 166.816 69.186 167.286 69.6867C167.762 70.1874 168.368 70.4378 169.104 70.4378C169.544 70.4378 169.993 70.3251 170.448 70.0998C170.909 69.8745 171.294 69.529 171.605 69.0633C171.92 68.5977 172.078 68.0043 172.078 67.2833ZM189.092 59.5924H190.745C190.745 60.734 190.494 61.6403 189.994 62.3113C189.498 62.9822 188.627 63.3177 187.38 63.3177V62.0559C187.881 62.0559 188.251 61.9532 188.491 61.748C188.737 61.5427 188.897 61.2548 188.972 60.8842C189.052 60.5137 189.092 60.0831 189.092 59.5924ZM184.406 72.2403C183.364 72.2403 182.45 71.9925 181.664 71.4968C180.883 71.0011 180.272 70.3076 179.832 69.4163C179.396 68.5251 179.178 67.4836 179.178 66.2919C179.178 65.0902 179.396 64.0412 179.832 63.1449C180.272 62.2487 180.883 61.5527 181.664 61.057C182.45 60.5613 183.364 60.3134 184.406 60.3134C185.447 60.3134 186.358 60.5613 187.14 61.057C187.926 61.5527 188.537 62.2487 188.972 63.1449C189.413 64.0412 189.633 65.0902 189.633 66.2919C189.633 67.4836 189.413 68.5251 188.972 69.4163C188.537 70.3076 187.926 71.0011 187.14 71.4968C186.358 71.9925 185.447 72.2403 184.406 72.2403ZM184.406 70.6481C185.197 70.6481 185.848 70.4453 186.358 70.0397C186.869 69.6341 187.247 69.1009 187.493 68.4399C187.738 67.779 187.861 67.063 187.861 66.2919C187.861 65.5208 187.738 64.8023 187.493 64.1363C187.247 63.4704 186.869 62.9321 186.358 62.5216C185.848 62.111 185.197 61.9057 184.406 61.9057C183.615 61.9057 182.964 62.111 182.453 62.5216C181.942 62.9321 181.564 63.4704 181.319 64.1363C181.073 64.8023 180.951 65.5208 180.951 66.2919C180.951 67.063 181.073 67.779 181.319 68.4399C181.564 69.1009 181.942 69.6341 182.453 70.0397C182.964 70.4453 183.615 70.6481 184.406 70.6481ZM183.655 58.9014L181.311 55.4165H183.384L185.217 58.9014H183.655ZM195.887 65.0602V72H194.114V60.4636H195.826V62.2662H195.977C196.247 61.6804 196.658 61.2097 197.208 60.8542C197.759 60.4937 198.47 60.3134 199.341 60.3134C200.123 60.3134 200.806 60.4736 201.392 60.7941C201.978 61.1096 202.433 61.5902 202.759 62.2361C203.084 62.8771 203.247 63.6882 203.247 64.6696V72H201.474V64.7898C201.474 63.8835 201.239 63.1775 200.768 62.6718C200.298 62.161 199.652 61.9057 198.831 61.9057C198.265 61.9057 197.759 62.0284 197.314 62.2737C196.873 62.5191 196.525 62.8771 196.27 63.3477C196.014 63.8184 195.887 64.3892 195.887 65.0602ZM212.897 76.5665C212.041 76.5665 211.305 76.4563 210.689 76.236C210.073 76.0207 209.56 75.7353 209.149 75.3798C208.744 75.0293 208.421 74.6538 208.18 74.2532L209.592 73.2618C209.753 73.4721 209.955 73.7124 210.201 73.9828C210.446 74.2582 210.782 74.496 211.207 74.6963C211.638 74.9016 212.201 75.0043 212.897 75.0043C213.828 75.0043 214.597 74.7789 215.203 74.3283C215.809 73.8777 216.112 73.1717 216.112 72.2103V69.867H215.961C215.831 70.0773 215.646 70.3376 215.406 70.6481C215.17 70.9535 214.83 71.2264 214.384 71.4667C213.944 71.7021 213.348 71.8197 212.597 71.8197C211.665 71.8197 210.829 71.5994 210.088 71.1588C209.352 70.7182 208.769 70.0773 208.338 69.2361C207.913 68.3949 207.7 67.3734 207.7 66.1717C207.7 64.9901 207.908 63.9611 208.323 63.0849C208.739 62.2036 209.317 61.5226 210.058 61.042C210.799 60.5563 211.655 60.3134 212.627 60.3134C213.378 60.3134 213.974 60.4386 214.414 60.689C214.86 60.9343 215.2 61.2147 215.436 61.5301C215.676 61.8406 215.861 62.096 215.991 62.2962H216.172V60.4636H217.884V72.3305C217.884 73.3219 217.659 74.128 217.208 74.7489C216.763 75.3748 216.162 75.8329 215.406 76.1233C214.655 76.4188 213.818 76.5665 212.897 76.5665ZM212.837 70.2275C213.548 70.2275 214.149 70.0648 214.64 69.7393C215.13 69.4138 215.503 68.9457 215.759 68.3348C216.014 67.7239 216.142 66.9929 216.142 66.1417C216.142 65.3105 216.017 64.577 215.766 63.9411C215.516 63.3052 215.145 62.807 214.655 62.4464C214.164 62.0859 213.558 61.9057 212.837 61.9057C212.086 61.9057 211.46 62.096 210.959 62.4765C210.464 62.857 210.091 63.3678 209.84 64.0087C209.595 64.6496 209.472 65.3606 209.472 66.1417C209.472 66.9428 209.597 67.6513 209.848 68.2672C210.103 68.8781 210.479 69.3588 210.974 69.7093C211.475 70.0547 212.096 70.2275 212.837 70.2275ZM231.908 60.4636L234.672 65.1803L237.436 60.4636H239.479L235.754 66.2318L239.479 72H237.436L234.672 67.5237L231.908 72H229.865L233.53 66.2318L229.865 60.4636H231.908ZM247.157 72.2704C246.426 72.2704 245.763 72.1327 245.167 71.8573C244.571 71.5769 244.098 71.1738 243.748 70.6481C243.397 70.1173 243.222 69.4764 243.222 68.7254C243.222 68.0644 243.352 67.5287 243.612 67.1181C243.873 66.7025 244.221 66.377 244.656 66.1417C245.092 65.9064 245.573 65.7311 246.098 65.6159C246.629 65.4958 247.162 65.4006 247.698 65.3305C248.399 65.2404 248.968 65.1728 249.403 65.1278C249.844 65.0777 250.164 64.9951 250.365 64.8799C250.57 64.7647 250.672 64.5645 250.672 64.279V64.219C250.672 63.4779 250.47 62.9021 250.064 62.4915C249.664 62.0809 249.055 61.8756 248.239 61.8756C247.393 61.8756 246.729 62.0609 246.249 62.4314C245.768 62.802 245.43 63.1975 245.235 63.6181L243.552 63.0173C243.853 62.3163 244.253 61.7705 244.754 61.3799C245.26 60.9844 245.811 60.709 246.406 60.5538C247.007 60.3935 247.598 60.3134 248.179 60.3134C248.549 60.3134 248.975 60.3585 249.456 60.4486C249.941 60.5337 250.41 60.7115 250.86 60.9819C251.316 61.2523 251.694 61.6603 251.994 62.2061C252.295 62.7519 252.445 63.4829 252.445 64.3992V72H250.672V70.4378H250.582C250.462 70.6881 250.262 70.956 249.981 71.2414C249.701 71.5268 249.328 71.7697 248.862 71.97C248.397 72.1702 247.828 72.2704 247.157 72.2704ZM247.428 70.6781C248.129 70.6781 248.72 70.5404 249.2 70.265C249.686 69.9896 250.052 69.6341 250.297 69.1985C250.547 68.7629 250.672 68.3048 250.672 67.8241V66.2018C250.597 66.2919 250.432 66.3745 250.177 66.4496C249.926 66.5197 249.636 66.5823 249.306 66.6374C248.98 66.6875 248.662 66.7325 248.352 66.7726C248.046 66.8076 247.798 66.8377 247.608 66.8627C247.147 66.9228 246.717 67.0204 246.316 67.1556C245.921 67.2858 245.6 67.4836 245.355 67.749C245.115 68.0093 244.994 68.3648 244.994 68.8155C244.994 69.4314 245.222 69.897 245.678 70.2125C246.139 70.5229 246.722 70.6781 247.428 70.6781ZM259.207 65.0602V72H257.435V60.4636H259.147V62.2662H259.297C259.568 61.6804 259.978 61.2097 260.529 60.8542C261.08 60.4937 261.791 60.3134 262.662 60.3134C263.443 60.3134 264.127 60.4736 264.713 60.7941C265.298 61.1096 265.754 61.5902 266.08 62.2361C266.405 62.8771 266.568 63.6882 266.568 64.6696V72H264.795V64.7898C264.795 63.8835 264.56 63.1775 264.089 62.6718C263.619 62.161 262.973 61.9057 262.151 61.9057C261.586 61.9057 261.08 62.0284 260.634 62.2737C260.194 62.5191 259.846 62.8771 259.59 63.3477C259.335 63.8184 259.207 64.3892 259.207 65.0602ZM273.334 65.0602V72H271.561V56.6182H273.334V62.2662H273.484C273.754 61.6703 274.16 61.1972 274.701 60.8467C275.246 60.4912 275.972 60.3134 276.879 60.3134C277.665 60.3134 278.353 60.4711 278.944 60.7866C279.535 61.097 279.993 61.5752 280.319 62.2211C280.649 62.862 280.814 63.6782 280.814 64.6696V72H279.042V64.7898C279.042 63.8735 278.804 63.165 278.328 62.6643C277.858 62.1585 277.204 61.9057 276.368 61.9057C275.787 61.9057 275.266 62.0284 274.806 62.2737C274.35 62.5191 273.99 62.8771 273.724 63.3477C273.464 63.8184 273.334 64.3892 273.334 65.0602Z" fill="#F6F6F6"/>
<defs>
<linearGradient id="paint0_linear_30_4763" x1="72.5355" y1="50.5265" x2="31.211" y2="1.49884" gradientUnits="userSpaceOnUse">
<stop stop-color="#83B228"/>
<stop offset="0.43" stop-color="#6BA415"/>
<stop offset="0.98" stop-color="#2C710D"/>
</linearGradient>
<linearGradient id="paint1_linear_30_4763" x1="53.6708" y1="34.4194" x2="65.5363" y2="56.2406" gradientUnits="userSpaceOnUse">
<stop stop-color="#BAC64E"/>
<stop offset="0.43" stop-color="#6BA415"/>
<stop offset="0.56" stop-color="#508E12"/>
<stop offset="0.7" stop-color="#3C7E0F"/>
<stop offset="0.84" stop-color="#30740E"/>
<stop offset="0.98" stop-color="#2C710D"/>
</linearGradient>
<linearGradient id="paint2_linear_30_4763" x1="42.2243" y1="3.80889" x2="35.5148" y2="17.0551" gradientUnits="userSpaceOnUse">
<stop stop-color="#A5C94C"/>
<stop offset="0.43" stop-color="#6BA415"/>
<stop offset="0.56" stop-color="#508E12"/>
<stop offset="0.7" stop-color="#3C7E0F"/>
<stop offset="0.84" stop-color="#30740E"/>
<stop offset="0.98" stop-color="#2C710D"/>
</linearGradient>
<linearGradient id="paint3_linear_30_4763" x1="29.5582" y1="12.8179" x2="19.9052" y2="77.4276" gradientUnits="userSpaceOnUse">
<stop stop-color="#83B228"/>
<stop offset="0.43" stop-color="#6BA415"/>
<stop offset="0.98" stop-color="#2C710D"/>
</linearGradient>
<linearGradient id="paint4_linear_30_4763" x1="28.6929" y1="37.9933" x2="41.3764" y2="16.5681" gradientUnits="userSpaceOnUse">
<stop stop-color="#BAC64E"/>
<stop offset="0.43" stop-color="#6BA415"/>
<stop offset="0.56" stop-color="#508E12"/>
<stop offset="0.7" stop-color="#3C7E0F"/>
<stop offset="0.84" stop-color="#30740E"/>
<stop offset="0.98" stop-color="#2C710D"/>
</linearGradient>
<linearGradient id="paint5_linear_30_4763" x1="4.27244" y1="57.7283" x2="16.6509" y2="67.6689" gradientUnits="userSpaceOnUse">
<stop stop-color="#83B228"/>
<stop offset="0.43" stop-color="#6BA415"/>
<stop offset="0.51" stop-color="#5D9913"/>
<stop offset="0.69" stop-color="#428310"/>
<stop offset="0.85" stop-color="#32760E"/>
<stop offset="0.98" stop-color="#2C710D"/>
</linearGradient>
<linearGradient id="paint6_linear_30_4763" x1="27.2803" y1="70.9662" x2="77.2338" y2="38.8161" gradientUnits="userSpaceOnUse">
<stop stop-color="#83B228"/>
<stop offset="0.36" stop-color="#6BA415"/>
<stop offset="0.41" stop-color="#649E14"/>
<stop offset="0.64" stop-color="#458510"/>
<stop offset="0.84" stop-color="#33760E"/>
<stop offset="0.98" stop-color="#2C710D"/>
</linearGradient>
<linearGradient id="paint7_linear_30_4763" x1="43.347" y1="58.2235" x2="17.9259" y2="57.3114" gradientUnits="userSpaceOnUse">
<stop stop-color="#BAC64E"/>
<stop offset="0.43" stop-color="#6BA415"/>
<stop offset="0.56" stop-color="#508E12"/>
<stop offset="0.7" stop-color="#3C7E0F"/>
<stop offset="0.84" stop-color="#30740E"/>
<stop offset="0.98" stop-color="#2C710D"/>
</linearGradient>
<linearGradient id="paint8_linear_30_4763" x1="73.1311" y1="71.3011" x2="74.7391" y2="48.8086" gradientUnits="userSpaceOnUse">
<stop offset="0.16" stop-color="#83B228"/>
<stop offset="0.39" stop-color="#6BA415"/>
<stop offset="0.98" stop-color="#2A660A"/>
</linearGradient>
<clipPath id="clip0_30_4763">
<rect width="84.1749" height="76.3228" fill="white"/>
</clipPath>
</defs>
</svg>
