<svg width="144" height="58" viewBox="0 0 144 58" fill="none" xmlns="http://www.w3.org/2000/svg">
<path d="M24.604 30.1334C24.1511 32.7225 22.5424 35.5649 20.2316 37.3396C19.4221 32.8718 13.2651 29.0483 19.8564 25.3379C19.8564 25.3379 22.1117 28.5081 21.4962 31.9948C21.5636 31.8796 23.3494 28.6657 20.714 23.7769C20.5291 23.4345 20.3582 23.1116 20.1981 22.8073C20.1981 22.8073 20.1952 22.8049 20.1952 22.8033L18.6423 20.2215C18.1656 19.429 17.48 18.7709 16.6546 18.3134C15.8291 17.8559 14.8927 17.615 13.9396 17.615C12.9865 17.615 12.0502 17.8559 11.2247 18.3134C10.3992 18.7709 9.71366 19.429 9.23691 20.2215L9.07641 20.4884C8.13905 20.7295 7.28028 21.0671 6.53528 21.487L7.78206 19.4143C9.06772 17.2765 11.3693 15.9999 13.9402 15.9999C16.5112 15.9999 18.8132 17.2765 20.0984 19.4135L24.0336 25.9611C24.0371 25.9655 24.0401 25.9702 24.0427 25.975C24.7269 27.0713 24.8795 28.5565 24.604 30.1334Z" fill="#6BA415"/>
<path d="M19.4213 32.9282C17.6425 30.195 17.0745 27.9178 19.8564 25.338C13.2643 29.0495 19.4221 32.8726 20.2316 37.3404C20.7574 36.4336 20.7797 35.0176 19.4213 32.9282Z" fill="#6BA415"/>
<path d="M17.9921 19.3509C15.3765 16.3253 11.2672 16.4024 9.30517 17.6429C8.6996 18.1476 8.1862 18.7459 7.7862 19.4132L6.53363 21.4863C7.27822 21.0664 8.1374 20.7288 9.07476 20.4877L9.23526 20.2208C9.66485 19.5064 10.2647 18.9 10.9856 18.4513C11.7065 18.0026 12.5279 17.7244 13.3824 17.6395C14.237 17.5546 15.1003 17.6654 15.9016 17.9629C16.7028 18.2604 17.4193 18.7361 17.9921 19.3509Z" fill="#6BA415"/>
<path d="M17.1771 21.7369C13.5059 24.5893 13.0219 31.6152 6.43844 27.8897C6.43844 27.8897 8.22835 24.4539 11.7019 23.2753C11.6369 23.2753 7.80683 23.2952 4.61129 27.9147L2.41888 31.5631C1.94243 32.3557 1.69159 33.2547 1.69156 34.1699C1.69154 35.085 1.94233 35.9841 2.41875 36.7767C2.89516 37.5693 3.58042 38.2275 4.40567 38.6853C5.23092 39.1431 6.1671 39.3842 7.12015 39.3846H7.40434C8.07943 40.0356 8.80872 40.5842 9.56283 40.9992H7.12222C4.55131 40.9992 2.24928 39.7226 0.96403 37.5832C-0.321218 35.4439 -0.321632 32.8934 0.96403 30.7552L4.96869 24.0956C4.97159 24.0892 4.97407 24.0856 4.97655 24.0805L5.02454 24.001C5.0295 23.9911 5.03612 23.9824 5.04108 23.974C5.70874 22.9321 6.92159 22.1262 8.40623 21.6035C10.9945 20.6951 14.4072 20.6474 17.1771 21.7369Z" fill="#6BA415"/>
<path d="M13.5568 24.5627C11.9344 27.3829 10.1391 28.9694 6.43848 27.8898C13.0219 31.6152 13.5059 24.5893 17.1771 21.737C16.0967 21.737 14.7969 22.4071 13.5568 24.5627Z" fill="#6BA415"/>
<path d="M7.12024 39.3844C6.16592 39.3899 5.2273 39.1512 4.4009 38.6929C3.57449 38.2346 2.89011 37.5732 2.41814 36.7768C1.49816 35.2475 1.44025 33.4402 2.24523 31.8732C0.512815 35.0453 0.520675 36.9924 1.51264 38.372C2.85207 40.0311 4.88274 40.9991 7.12024 40.9991H9.56085C8.80674 40.584 8.07745 40.0355 7.40236 39.3844H7.12024Z" fill="#6BA415"/>
<path d="M26.9172 37.5841C25.6319 39.7227 23.3299 41.0001 20.759 41.0001H12.5966C11.3084 40.9862 9.95867 40.3765 8.73381 39.3855C6.61628 37.6687 4.87476 34.8128 4.50122 31.9382C8.89018 33.6108 15.5046 30.571 15.3512 37.9059C15.3512 37.9059 11.3539 38.0934 8.58117 35.7637C8.58117 35.7637 10.3632 38.8433 15.8203 39.3847H20.759C21.7122 39.3847 22.6486 39.1438 23.4742 38.6862C24.2997 38.2285 24.9853 37.5703 25.4619 36.7776C25.9386 35.985 26.1896 35.0858 26.1896 34.1705C26.1897 33.2552 25.9389 32.356 25.4623 31.5632L25.2762 31.255C25.5182 30.3561 25.641 29.4632 25.6307 28.6187L26.9172 30.7573C28.2028 32.8943 28.2028 35.4472 26.9172 37.5841Z" fill="#6BA415"/>
<path d="M8.84136 33.5813C12.197 33.5559 14.5168 34.2804 15.352 37.9065C15.5042 30.5701 8.89059 33.6111 4.50122 31.938C5.03112 32.8417 6.27666 33.6008 8.84136 33.5813Z" fill="#6BA415"/>
<path d="M20.9435 39.3818C25.0297 39.321 27.4273 37.2508 27.8703 34.5303C27.9423 33.2103 27.6116 31.8989 26.9189 30.7568L25.6324 28.6182C25.6427 29.4627 25.5199 30.3556 25.2779 31.2545L25.464 31.5627C25.9461 32.3535 26.2002 33.2533 26.2002 34.1696C26.2002 35.0859 25.9461 35.9857 25.464 36.7765C24.5118 38.3586 22.8319 39.323 20.9435 39.3818Z" fill="#6BA415"/>
<path d="M41.084 33.2558C41.9 33.2558 42.556 33.5078 43.052 34.0118C43.556 34.5078 43.808 35.2038 43.808 36.0998V39.9998H42.128V36.3278C42.128 35.8078 41.996 35.4118 41.732 35.1398C41.468 34.8598 41.108 34.7198 40.652 34.7198C40.196 34.7198 39.832 34.8598 39.56 35.1398C39.296 35.4118 39.164 35.8078 39.164 36.3278V39.9998H37.484V36.3278C37.484 35.8078 37.352 35.4118 37.088 35.1398C36.824 34.8598 36.464 34.7198 36.008 34.7198C35.544 34.7198 35.176 34.8598 34.904 35.1398C34.64 35.4118 34.508 35.8078 34.508 36.3278V39.9998H32.828V33.3518H34.508V34.1558C34.724 33.8758 35 33.6558 35.336 33.4958C35.68 33.3358 36.056 33.2558 36.464 33.2558C36.984 33.2558 37.448 33.3678 37.856 33.5918C38.264 33.8078 38.58 34.1198 38.804 34.5278C39.02 34.1438 39.332 33.8358 39.74 33.6038C40.156 33.3718 40.604 33.2558 41.084 33.2558ZM48.3542 40.1078C47.7142 40.1078 47.1382 39.9678 46.6262 39.6878C46.1142 39.3998 45.7102 38.9958 45.4142 38.4758C45.1262 37.9558 44.9822 37.3558 44.9822 36.6758C44.9822 35.9958 45.1302 35.3958 45.4262 34.8758C45.7302 34.3558 46.1422 33.9558 46.6622 33.6758C47.1822 33.3878 47.7622 33.2438 48.4022 33.2438C49.0422 33.2438 49.6222 33.3878 50.1422 33.6758C50.6622 33.9558 51.0702 34.3558 51.3662 34.8758C51.6702 35.3958 51.8222 35.9958 51.8222 36.6758C51.8222 37.3558 51.6662 37.9558 51.3542 38.4758C51.0502 38.9958 50.6342 39.3998 50.1062 39.6878C49.5862 39.9678 49.0022 40.1078 48.3542 40.1078ZM48.3542 38.6438C48.6582 38.6438 48.9422 38.5718 49.2062 38.4278C49.4782 38.2758 49.6942 38.0518 49.8542 37.7558C50.0142 37.4598 50.0942 37.0998 50.0942 36.6758C50.0942 36.0438 49.9262 35.5598 49.5902 35.2238C49.2622 34.8798 48.8582 34.7078 48.3782 34.7078C47.8982 34.7078 47.4942 34.8798 47.1662 35.2238C46.8462 35.5598 46.6862 36.0438 46.6862 36.6758C46.6862 37.3078 46.8422 37.7958 47.1542 38.1398C47.4742 38.4758 47.8742 38.6438 48.3542 38.6438ZM53.9066 32.5598C53.6106 32.5598 53.3626 32.4678 53.1626 32.2838C52.9706 32.0918 52.8746 31.8558 52.8746 31.5758C52.8746 31.2958 52.9706 31.0638 53.1626 30.8798C53.3626 30.6878 53.6106 30.5918 53.9066 30.5918C54.2026 30.5918 54.4466 30.6878 54.6386 30.8798C54.8386 31.0638 54.9386 31.2958 54.9386 31.5758C54.9386 31.8558 54.8386 32.0918 54.6386 32.2838C54.4466 32.4678 54.2026 32.5598 53.9066 32.5598ZM54.7346 33.3518V39.9998H53.0546V33.3518H54.7346ZM58.3504 34.7318V37.9478C58.3504 38.1718 58.4024 38.3358 58.5064 38.4398C58.6184 38.5358 58.8024 38.5838 59.0584 38.5838H59.8384V39.9998H58.7824C57.3664 39.9998 56.6584 39.3118 56.6584 37.9358V34.7318H55.8664V33.3518H56.6584V31.7078H58.3504V33.3518H59.8384V34.7318H58.3504ZM62.7268 34.3838C62.9428 34.0318 63.2228 33.7558 63.5668 33.5558C63.9188 33.3558 64.3188 33.2558 64.7668 33.2558V35.0198H64.3228C63.7948 35.0198 63.3948 35.1438 63.1228 35.3918C62.8588 35.6398 62.7268 36.0718 62.7268 36.6878V39.9998H61.0468V33.3518H62.7268V34.3838ZM72.1743 33.3518V39.9998H70.4823V39.1598C70.2663 39.4478 69.9823 39.6758 69.6303 39.8438C69.2863 40.0038 68.9103 40.0838 68.5023 40.0838C67.9823 40.0838 67.5223 39.9758 67.1223 39.7598C66.7223 39.5358 66.4063 39.2118 66.1743 38.7878C65.9503 38.3558 65.8383 37.8438 65.8383 37.2518V33.3518H67.5183V37.0118C67.5183 37.5398 67.6503 37.9478 67.9143 38.2358C68.1783 38.5158 68.5383 38.6558 68.9943 38.6558C69.4583 38.6558 69.8223 38.5158 70.0863 38.2358C70.3503 37.9478 70.4823 37.5398 70.4823 37.0118V33.3518H72.1743ZM76.7839 40.1078C76.1439 40.1078 75.5679 39.9678 75.0559 39.6878C74.5439 39.3998 74.1399 38.9958 73.8439 38.4758C73.5559 37.9558 73.4119 37.3558 73.4119 36.6758C73.4119 35.9958 73.5599 35.3958 73.8559 34.8758C74.1599 34.3558 74.5719 33.9558 75.0919 33.6758C75.6119 33.3878 76.1919 33.2438 76.8319 33.2438C77.4719 33.2438 78.0519 33.3878 78.5719 33.6758C79.0919 33.9558 79.4999 34.3558 79.7959 34.8758C80.0999 35.3958 80.2519 35.9958 80.2519 36.6758C80.2519 37.3558 80.0959 37.9558 79.7839 38.4758C79.4799 38.9958 79.0639 39.3998 78.5359 39.6878C78.0159 39.9678 77.4319 40.1078 76.7839 40.1078ZM76.7839 38.6438C77.0879 38.6438 77.3719 38.5718 77.6359 38.4278C77.9079 38.2758 78.1239 38.0518 78.2839 37.7558C78.4439 37.4598 78.5239 37.0998 78.5239 36.6758C78.5239 36.0438 78.3559 35.5598 78.0199 35.2238C77.6919 34.8798 77.2879 34.7078 76.8079 34.7078C76.3279 34.7078 75.9239 34.8798 75.5959 35.2238C75.2759 35.5598 75.1159 36.0438 75.1159 36.6758C75.1159 37.3078 75.2719 37.7958 75.5839 38.1398C75.9039 38.4758 76.3039 38.6438 76.7839 38.6438ZM85.1683 33.2558C85.9603 33.2558 86.6003 33.5078 87.0883 34.0118C87.5763 34.5078 87.8203 35.2038 87.8203 36.0998V39.9998H86.1403V36.3278C86.1403 35.7998 86.0083 35.3958 85.7443 35.1158C85.4803 34.8278 85.1203 34.6838 84.6643 34.6838C84.2003 34.6838 83.8323 34.8278 83.5603 35.1158C83.2963 35.3958 83.1643 35.7998 83.1643 36.3278V39.9998H81.4843V33.3518H83.1643V34.1798C83.3883 33.8918 83.6723 33.6678 84.0163 33.5078C84.3683 33.3398 84.7523 33.2558 85.1683 33.2558ZM92.0218 33.2438C92.5178 33.2438 92.9538 33.3438 93.3298 33.5438C93.7058 33.7358 94.0018 33.9878 94.2178 34.2998V33.3518H95.9098V40.0478C95.9098 40.6638 95.7858 41.2118 95.5378 41.6918C95.2898 42.1798 94.9178 42.5638 94.4218 42.8438C93.9258 43.1318 93.3258 43.2758 92.6218 43.2758C91.6778 43.2758 90.9018 43.0558 90.2938 42.6158C89.6938 42.1758 89.3538 41.5758 89.2738 40.8158H90.9418C91.0298 41.1198 91.2178 41.3598 91.5058 41.5358C91.8018 41.7198 92.1578 41.8118 92.5738 41.8118C93.0618 41.8118 93.4578 41.6638 93.7618 41.3678C94.0658 41.0798 94.2178 40.6398 94.2178 40.0478V39.0158C94.0018 39.3278 93.7018 39.5878 93.3178 39.7958C92.9418 40.0038 92.5098 40.1078 92.0218 40.1078C91.4618 40.1078 90.9498 39.9638 90.4858 39.6758C90.0218 39.3878 89.6538 38.9838 89.3818 38.4638C89.1178 37.9358 88.9858 37.3318 88.9858 36.6518C88.9858 35.9798 89.1178 35.3838 89.3818 34.8638C89.6538 34.3438 90.0178 33.9438 90.4738 33.6638C90.9378 33.3838 91.4538 33.2438 92.0218 33.2438ZM94.2178 36.6758C94.2178 36.2678 94.1378 35.9198 93.9778 35.6318C93.8178 35.3358 93.6018 35.1118 93.3298 34.9598C93.0578 34.7998 92.7658 34.7198 92.4538 34.7198C92.1418 34.7198 91.8538 34.7958 91.5898 34.9478C91.3258 35.0998 91.1098 35.3238 90.9418 35.6198C90.7818 35.9078 90.7018 36.2518 90.7018 36.6518C90.7018 37.0518 90.7818 37.4038 90.9418 37.7078C91.1098 38.0038 91.3258 38.2318 91.5898 38.3918C91.8618 38.5518 92.1498 38.6318 92.4538 38.6318C92.7658 38.6318 93.0578 38.5558 93.3298 38.4038C93.6018 38.2438 93.8178 38.0198 93.9778 37.7318C94.1378 37.4358 94.2178 37.0838 94.2178 36.6758ZM101.223 39.9998L99.8547 37.9358L98.6427 39.9998H96.8427L99.0147 36.6638L96.8187 33.3518H98.7147L100.071 35.4038L101.295 33.3518H103.095L100.911 36.6638L103.119 39.9998H101.223ZM103.599 36.6518C103.599 35.9798 103.731 35.3838 103.995 34.8638C104.267 34.3438 104.631 33.9438 105.087 33.6638C105.551 33.3838 106.067 33.2438 106.635 33.2438C107.131 33.2438 107.563 33.3438 107.931 33.5438C108.307 33.7438 108.607 33.9958 108.831 34.2998V33.3518H110.523V39.9998H108.831V39.0278C108.615 39.3398 108.315 39.5998 107.931 39.8078C107.555 40.0078 107.119 40.1078 106.623 40.1078C106.063 40.1078 105.551 39.9638 105.087 39.6758C104.631 39.3878 104.267 38.9838 103.995 38.4638C103.731 37.9358 103.599 37.3318 103.599 36.6518ZM108.831 36.6758C108.831 36.2678 108.751 35.9198 108.591 35.6318C108.431 35.3358 108.215 35.1118 107.943 34.9598C107.671 34.7998 107.379 34.7198 107.067 34.7198C106.755 34.7198 106.467 34.7958 106.203 34.9478C105.939 35.0998 105.723 35.3238 105.555 35.6198C105.395 35.9078 105.315 36.2518 105.315 36.6518C105.315 37.0518 105.395 37.4038 105.555 37.7078C105.723 38.0038 105.939 38.2318 106.203 38.3918C106.475 38.5518 106.763 38.6318 107.067 38.6318C107.379 38.6318 107.671 38.5558 107.943 38.4038C108.215 38.2438 108.431 38.0198 108.591 37.7318C108.751 37.4358 108.831 37.0838 108.831 36.6758ZM115.848 33.2558C116.64 33.2558 117.28 33.5078 117.768 34.0118C118.256 34.5078 118.5 35.2038 118.5 36.0998V39.9998H116.82V36.3278C116.82 35.7998 116.688 35.3958 116.424 35.1158C116.16 34.8278 115.8 34.6838 115.344 34.6838C114.88 34.6838 114.512 34.8278 114.24 35.1158C113.976 35.3958 113.844 35.7998 113.844 36.3278V39.9998H112.164V33.3518H113.844V34.1798C114.068 33.8918 114.352 33.6678 114.696 33.5078C115.048 33.3398 115.432 33.2558 115.848 33.2558ZM123.842 33.2558C124.346 33.2558 124.794 33.3678 125.186 33.5918C125.578 33.8078 125.882 34.1318 126.098 34.5638C126.322 34.9878 126.434 35.4998 126.434 36.0998V39.9998H124.754V36.3278C124.754 35.7998 124.622 35.3958 124.358 35.1158C124.094 34.8278 123.734 34.6838 123.278 34.6838C122.814 34.6838 122.446 34.8278 122.174 35.1158C121.91 35.3958 121.778 35.7998 121.778 36.3278V39.9998H120.098V31.1198H121.778V34.1798C121.994 33.8918 122.282 33.6678 122.642 33.5078C123.002 33.3398 123.402 33.2558 123.842 33.2558Z" fill="#C9D1B3"/>
<path d="M39.616 17.228V18.81H37.012V27H35.052V18.81H32.448V17.228H39.616ZM47.0381 25.138H43.1461L42.5021 27H40.4441L43.9581 17.214H46.2401L49.7541 27H47.6821L47.0381 25.138ZM46.5061 23.57L45.0921 19.482L43.6781 23.57H46.5061ZM59.4256 27H57.4656L53.0276 20.294V27H51.0676V17.214H53.0276L57.4656 23.934V17.214H59.4256V27ZM68.4885 20.252C68.4885 20.7747 68.3625 21.2647 68.1105 21.722C67.8678 22.1793 67.4805 22.548 66.9485 22.828C66.4258 23.108 65.7632 23.248 64.9605 23.248H63.3225V27H61.3625V17.228H64.9605C65.7165 17.228 66.3605 17.3587 66.8925 17.62C67.4245 17.8813 67.8212 18.2407 68.0825 18.698C68.3532 19.1553 68.4885 19.6733 68.4885 20.252ZM64.8765 21.666C65.4178 21.666 65.8192 21.5447 66.0805 21.302C66.3418 21.05 66.4725 20.7 66.4725 20.252C66.4725 19.3 65.9405 18.824 64.8765 18.824H63.3225V21.666H64.8765ZM77.9861 17.228V27H76.0261V22.842H71.8401V27H69.8801V17.228H71.8401V21.246H76.0261V17.228H77.9861ZM81.8472 17.228V23.276C81.8472 23.9387 82.0199 24.4473 82.3652 24.802C82.7106 25.1473 83.1959 25.32 83.8212 25.32C84.4559 25.32 84.9459 25.1473 85.2912 24.802C85.6366 24.4473 85.8092 23.9387 85.8092 23.276V17.228H87.7832V23.262C87.7832 24.0927 87.6012 24.7973 87.2372 25.376C86.8826 25.9453 86.4019 26.3747 85.7952 26.664C85.1979 26.9533 84.5306 27.098 83.7932 27.098C83.0652 27.098 82.4026 26.9533 81.8052 26.664C81.2172 26.3747 80.7506 25.9453 80.4052 25.376C80.0599 24.7973 79.8872 24.0927 79.8872 23.262V17.228H81.8472Z" fill="#383838"/>
</svg>
