<svg width="161" height="44" viewBox="0 0 161 44" fill="none" xmlns="http://www.w3.org/2000/svg">
<g clip-path="url(#clip0_11_3588)">
<path d="M42.1454 24.4821C41.3696 28.9668 38.6142 33.8905 34.6564 36.9647C33.2699 29.2255 22.7243 22.6024 34.0138 16.1753C34.0138 16.1753 37.8766 21.6666 36.8223 27.7063C36.9378 27.5068 39.9965 21.9398 35.4825 13.4713C35.1658 12.8782 34.8732 12.3188 34.599 11.7918C34.599 11.7918 34.5941 11.7876 34.5941 11.7849L31.9343 7.31258C31.1177 5.93983 29.9435 4.79994 28.5296 4.00744C27.1158 3.21494 25.512 2.79773 23.8796 2.79773C22.2471 2.79773 20.6433 3.21494 19.2295 4.00744C17.8156 4.79994 16.6414 5.93983 15.8248 7.31258L15.5499 7.77495C13.9444 8.19259 12.4735 8.77743 11.1975 9.5047L13.333 5.91446C15.535 2.21139 19.4772 0 23.8806 0C28.284 0 32.2269 2.21139 34.4283 5.91309L41.1684 17.2549C41.1743 17.2624 41.1795 17.2705 41.184 17.279C42.3558 19.178 42.6173 21.7506 42.1454 24.4821Z" fill="url(#paint0_linear_11_3588)"/>
<path d="M33.2684 29.3232C30.2218 24.5888 29.249 20.6442 34.0138 16.1753C22.7229 22.6044 33.2698 29.2269 34.6564 36.9661C35.5569 35.3953 35.5952 32.9424 33.2684 29.3232Z" fill="url(#paint1_linear_11_3588)"/>
<path d="M30.8204 5.80437C26.3405 0.563508 19.3021 0.696989 15.9416 2.84576C14.9044 3.71998 14.0251 4.75648 13.34 5.9124L11.1946 9.50332C12.4699 8.77605 13.9415 8.19121 15.547 7.77357L15.8219 7.3112C16.5577 6.07374 17.5851 5.02331 18.8198 4.24607C20.0546 3.46883 21.4615 2.98692 22.9251 2.83988C24.3887 2.69284 25.8674 2.88484 27.2398 3.40016C28.6123 3.91547 29.8393 4.7394 30.8204 5.80437Z" fill="url(#paint2_linear_11_3588)"/>
<path d="M29.4247 9.93747C23.1366 14.8783 22.3077 27.0485 11.0317 20.5953C11.0317 20.5953 14.0974 14.6437 20.0468 12.6023C19.9356 12.6023 13.3754 12.6367 7.90216 20.6387L4.14703 26.9584C3.33097 28.3313 2.90133 29.8886 2.90129 31.4739C2.90125 33.0591 3.33081 34.6164 4.1468 35.9894C4.9628 37.3623 6.13649 38.5025 7.54997 39.2955C8.96344 40.0884 10.5669 40.5062 12.1993 40.5068H12.686C13.8423 41.6345 15.0914 42.5847 16.3831 43.3037H12.2028C7.79942 43.3037 3.85654 41.0923 1.65519 37.3865C-0.546166 33.6806 -0.546875 29.2627 1.65519 25.5589L8.51431 14.0231C8.51927 14.0121 8.52352 14.0059 8.52777 13.997L8.60996 13.8594C8.61846 13.8421 8.6298 13.827 8.6383 13.8126C9.78184 12.0078 11.8592 10.6118 14.4021 9.70629C18.8352 8.13272 24.6805 8.05016 29.4247 9.93747Z" fill="url(#paint3_linear_11_3588)"/>
<path d="M23.2238 14.8323C20.4451 19.7174 17.3701 22.4655 11.0317 20.5954C22.3077 27.0486 23.1367 14.8784 29.4248 9.93748C27.5741 9.93748 25.348 11.0982 23.2238 14.8323Z" fill="url(#paint4_linear_11_3588)"/>
<path d="M12.1993 40.5068C10.5648 40.5163 8.95715 40.1028 7.5417 39.3089C6.12624 38.5151 4.95405 37.3694 4.14567 35.9897C2.56993 33.3408 2.47074 30.2101 3.84951 27.4958C0.882252 32.9905 0.895714 36.3634 2.59473 38.7529C4.8889 41.6269 8.36699 43.3037 12.1993 43.3037H16.3796C15.088 42.5847 13.8388 41.6345 12.6826 40.5068H12.1993Z" fill="url(#paint5_linear_11_3588)"/>
<path d="M46.1073 37.3879C43.9059 41.0923 39.9631 43.3051 35.5596 43.3051H21.5792C19.3729 43.281 17.061 42.2248 14.9631 40.5082C11.3363 37.5344 8.35341 32.5873 7.71362 27.6079C15.231 30.5053 26.5601 25.2397 26.2972 37.9452C26.2972 37.9452 19.4509 38.2699 14.7017 34.2345C14.7017 34.2345 17.754 39.569 27.1007 40.5068H35.5596C37.1923 40.5068 38.7962 40.0895 40.2102 39.2968C41.6242 38.5041 42.7984 37.3639 43.6148 35.9908C44.4312 34.6178 44.8611 33.0602 44.8612 31.4747C44.8613 29.8892 44.4317 28.3316 43.6155 26.9584L43.2966 26.4245C43.7111 24.8674 43.9215 23.3207 43.9038 21.8579L46.1073 25.5624C48.3094 29.2641 48.3094 33.6862 46.1073 37.3879Z" fill="url(#paint6_linear_11_3588)"/>
<path d="M15.1474 30.4544C20.8948 30.4104 24.8682 31.6654 26.2987 37.9466C26.5594 25.2383 15.2317 30.506 7.71362 27.6079C8.62123 29.1733 10.7546 30.4881 15.1474 30.4544Z" fill="url(#paint7_linear_11_3588)"/>
<path d="M35.8757 40.502C42.8744 40.3967 46.981 36.8106 47.7398 32.0981C47.8631 29.8118 47.2967 27.5401 46.1102 25.5617L43.9067 21.8572C43.9245 23.32 43.714 24.8668 43.2995 26.4238L43.6184 26.9577C44.4441 28.3275 44.8793 29.8862 44.8793 31.4734C44.8793 33.0606 44.4441 34.6193 43.6184 35.9891C41.9874 38.7296 39.1101 40.4001 35.8757 40.502Z" fill="url(#paint8_linear_11_3588)"/>
</g>
<path d="M54.4817 8.97159V5.54545H69.2345V8.97159H63.9419V23H59.7828V8.97159H54.4817ZM72.8908 23H68.3567L74.2459 5.54545H79.8624L85.7516 23H81.2175L77.1181 9.94318H76.9817L72.8908 23ZM72.2857 16.1307H81.7629V19.3352H72.2857V16.1307ZM78.7459 3.97727L77.0499 2L75.3624 3.97727H71.8681V3.86648L75.5584 0.0482945H78.5499L82.2317 3.86648V3.97727H78.7459ZM102.486 5.54545V23H98.9064L91.9604 12.9261H91.8496V23H87.6308V5.54545H91.2615L98.1308 15.6023H98.2757V5.54545H102.486ZM110.295 23V5.54545H117.505C118.812 5.54545 119.94 5.80114 120.889 6.3125C121.843 6.81818 122.579 7.52557 123.096 8.43466C123.613 9.33807 123.872 10.3892 123.872 11.5881C123.872 12.7926 123.607 13.8466 123.079 14.75C122.556 15.6477 121.809 16.3437 120.838 16.8381C119.866 17.3324 118.713 17.5795 117.377 17.5795H112.928V14.2557H116.593C117.23 14.2557 117.761 14.1449 118.187 13.9233C118.619 13.7017 118.945 13.392 119.167 12.9943C119.389 12.5909 119.499 12.1222 119.499 11.5881C119.499 11.0483 119.389 10.5824 119.167 10.1903C118.945 9.79261 118.619 9.4858 118.187 9.26989C117.755 9.05398 117.224 8.94602 116.593 8.94602H114.514V23H110.295ZM125.951 23V5.54545H130.17V12.5511H137.048V5.54545H141.258V23H137.048V15.9858H130.17V23H125.951ZM154.464 5.54545H158.674V16.804C158.674 18.1051 158.365 19.2386 157.745 20.2045C157.126 21.1648 156.262 21.9091 155.154 22.4375C154.046 22.9602 152.759 23.2216 151.293 23.2216C149.811 23.2216 148.515 22.9602 147.407 22.4375C146.299 21.9091 145.438 21.1648 144.825 20.2045C144.211 19.2386 143.904 18.1051 143.904 16.804V5.54545H148.123V16.4375C148.123 17.0398 148.254 17.5767 148.515 18.0483C148.782 18.5199 149.154 18.8892 149.632 19.1562C150.109 19.4233 150.663 19.5568 151.293 19.5568C151.924 19.5568 152.475 19.4233 152.947 19.1562C153.424 18.8892 153.796 18.5199 154.063 18.0483C154.33 17.5767 154.464 17.0398 154.464 16.4375V5.54545ZM149.853 3.88352L151.575 0.0397716H155.265L152.691 3.88352H149.853Z" fill="#2A660A"/>
<path d="M54.7885 32.2727H56.0499L59.0158 39.517H59.1181L62.084 32.2727H63.3453V41H62.3567V34.3693H62.2715L59.5442 41H58.5896L55.8624 34.3693H55.7771V41H54.7885V32.2727ZM68.9825 41.1364C68.3916 41.1364 67.8731 40.9957 67.4271 40.7145C66.9839 40.4332 66.6373 40.0398 66.3873 39.5341C66.1402 39.0284 66.0166 38.4375 66.0166 37.7614C66.0166 37.0795 66.1402 36.4844 66.3873 35.9759C66.6373 35.4673 66.9839 35.0724 67.4271 34.7912C67.8731 34.5099 68.3916 34.3693 68.9825 34.3693C69.5734 34.3693 70.0905 34.5099 70.5336 34.7912C70.9797 35.0724 71.3263 35.4673 71.5734 35.9759C71.8234 36.4844 71.9484 37.0795 71.9484 37.7614C71.9484 38.4375 71.8234 39.0284 71.5734 39.5341C71.3263 40.0398 70.9797 40.4332 70.5336 40.7145C70.0905 40.9957 69.5734 41.1364 68.9825 41.1364ZM68.9825 40.233C69.4314 40.233 69.8007 40.1179 70.0905 39.8878C70.3802 39.6577 70.5947 39.3551 70.7339 38.9801C70.8731 38.6051 70.9427 38.1989 70.9427 37.7614C70.9427 37.3239 70.8731 36.9162 70.7339 36.5384C70.5947 36.1605 70.3802 35.8551 70.0905 35.6222C69.8007 35.3892 69.4314 35.2727 68.9825 35.2727C68.5336 35.2727 68.1643 35.3892 67.8745 35.6222C67.5848 35.8551 67.3703 36.1605 67.2311 36.5384C67.0919 36.9162 67.0223 37.3239 67.0223 37.7614C67.0223 38.1989 67.0919 38.6051 67.2311 38.9801C67.3703 39.3551 67.5848 39.6577 67.8745 39.8878C68.1643 40.1179 68.5336 40.233 68.9825 40.233ZM69.8689 33.6705L68.9825 32.4773L68.0961 33.6705H67.1416V33.6023L68.5223 31.8295H69.4427L70.8234 33.6023V33.6705H69.8689ZM74.4791 41V34.4545H75.4847V41H74.4791ZM74.9904 33.3636C74.7944 33.3636 74.6254 33.2969 74.4833 33.1634C74.3441 33.0298 74.2745 32.8693 74.2745 32.6818C74.2745 32.4943 74.3441 32.3338 74.4833 32.2003C74.6254 32.0668 74.7944 32 74.9904 32C75.1864 32 75.3541 32.0668 75.4933 32.2003C75.6353 32.3338 75.7063 32.4943 75.7063 32.6818C75.7063 32.8693 75.6353 33.0298 75.4933 33.1634C75.3541 33.2969 75.1864 33.3636 74.9904 33.3636ZM85.5393 34.4545V35.3068H82.1472V34.4545H85.5393ZM83.1359 32.8864H84.1416V39.125C84.1416 39.4091 84.1827 39.6222 84.2651 39.7642C84.3504 39.9034 84.4583 39.9972 84.589 40.0455C84.7225 40.0909 84.8631 40.1136 85.0109 40.1136C85.1217 40.1136 85.2126 40.108 85.2836 40.0966C85.3546 40.0824 85.4114 40.071 85.4541 40.0625L85.6586 40.9659C85.5904 40.9915 85.4952 41.017 85.3731 41.0426C85.2509 41.071 85.0961 41.0852 84.9086 41.0852C84.6245 41.0852 84.3461 41.0241 84.0734 40.902C83.8035 40.7798 83.5791 40.5938 83.4001 40.3438C83.2239 40.0938 83.1359 39.7784 83.1359 39.3977V32.8864ZM88.0475 41V34.4545H89.0191V35.4432H89.0873C89.2066 35.1193 89.4225 34.8565 89.735 34.6548C90.0475 34.4531 90.3998 34.3523 90.7919 34.3523C90.8657 34.3523 90.9581 34.3537 91.0689 34.3565C91.1797 34.3594 91.2635 34.3636 91.3203 34.3693V35.392C91.2862 35.3835 91.2081 35.3707 91.0859 35.3537C90.9666 35.3338 90.8402 35.3239 90.7066 35.3239C90.3885 35.3239 90.1044 35.3906 89.8544 35.5241C89.6072 35.6548 89.4112 35.8366 89.2663 36.0696C89.1243 36.2997 89.0532 36.5625 89.0532 36.858V41H88.0475ZM99.4056 34.1648H100.292C100.292 34.5966 100.235 34.9588 100.122 35.2514C100.008 35.5412 99.809 35.7599 99.5249 35.9077C99.2408 36.0526 98.8431 36.125 98.3317 36.125V35.4261C98.684 35.4261 98.934 35.3835 99.0817 35.2983C99.2323 35.2102 99.3232 35.0739 99.3545 34.8892C99.3886 34.7017 99.4056 34.4602 99.4056 34.1648ZM97.6329 38.3239V34.4545H98.6386V41H97.6329V39.892H97.5647C97.4113 40.2244 97.1727 40.5071 96.8488 40.7401C96.5249 40.9702 96.1158 41.0852 95.6215 41.0852C95.2124 41.0852 94.8488 40.9957 94.5306 40.8168C94.2124 40.6349 93.9624 40.3622 93.7806 39.9986C93.5988 39.6321 93.5079 39.1705 93.5079 38.6136V34.4545H94.5136V38.5455C94.5136 39.0227 94.6471 39.4034 94.9141 39.6875C95.184 39.9716 95.5278 40.1136 95.9454 40.1136C96.1954 40.1136 96.4496 40.0497 96.7082 39.9219C96.9695 39.794 97.1883 39.598 97.3644 39.3338C97.5434 39.0696 97.6329 38.733 97.6329 38.3239ZM107.286 33.9602H108.224C108.224 34.608 108.082 35.1222 107.798 35.5028C107.517 35.8835 107.022 36.0739 106.315 36.0739V35.358C106.599 35.358 106.809 35.2997 106.945 35.1832C107.085 35.0668 107.176 34.9034 107.218 34.6932C107.264 34.483 107.286 34.2386 107.286 33.9602ZM104.627 41.1364C104.036 41.1364 103.518 40.9957 103.072 40.7145C102.629 40.4332 102.282 40.0398 102.032 39.5341C101.785 39.0284 101.661 38.4375 101.661 37.7614C101.661 37.0795 101.785 36.4844 102.032 35.9759C102.282 35.4673 102.629 35.0724 103.072 34.7912C103.518 34.5099 104.036 34.3693 104.627 34.3693C105.218 34.3693 105.735 34.5099 106.178 34.7912C106.624 35.0724 106.971 35.4673 107.218 35.9759C107.468 36.4844 107.593 37.0795 107.593 37.7614C107.593 38.4375 107.468 39.0284 107.218 39.5341C106.971 40.0398 106.624 40.4332 106.178 40.7145C105.735 40.9957 105.218 41.1364 104.627 41.1364ZM104.627 40.233C105.076 40.233 105.445 40.1179 105.735 39.8878C106.025 39.6577 106.24 39.3551 106.379 38.9801C106.518 38.6051 106.588 38.1989 106.588 37.7614C106.588 37.3239 106.518 36.9162 106.379 36.5384C106.24 36.1605 106.025 35.8551 105.735 35.6222C105.445 35.3892 105.076 35.2727 104.627 35.2727C104.178 35.2727 103.809 35.3892 103.519 35.6222C103.23 35.8551 103.015 36.1605 102.876 36.5384C102.737 36.9162 102.667 37.3239 102.667 37.7614C102.667 38.1989 102.737 38.6051 102.876 38.9801C103.015 39.3551 103.23 39.6577 103.519 39.8878C103.809 40.1179 104.178 40.233 104.627 40.233ZM104.201 33.5682L102.872 31.5909H104.048L105.088 33.5682H104.201ZM111.141 37.0625V41H110.136V34.4545H111.107V35.4773H111.192C111.346 35.1449 111.579 34.8778 111.891 34.6761C112.204 34.4716 112.607 34.3693 113.101 34.3693C113.545 34.3693 113.932 34.4602 114.265 34.642C114.597 34.821 114.856 35.0938 115.04 35.4602C115.225 35.8239 115.317 36.2841 115.317 36.8409V41H114.312V36.9091C114.312 36.3949 114.178 35.9943 113.911 35.7074C113.644 35.4176 113.278 35.2727 112.812 35.2727C112.491 35.2727 112.204 35.3423 111.951 35.4815C111.701 35.6207 111.503 35.8239 111.359 36.0909C111.214 36.358 111.141 36.6818 111.141 37.0625ZM120.793 43.5909C120.307 43.5909 119.889 43.5284 119.54 43.4034C119.19 43.2812 118.899 43.1193 118.666 42.9176C118.436 42.7188 118.253 42.5057 118.117 42.2784L118.918 41.7159C119.009 41.8352 119.124 41.9716 119.263 42.125C119.402 42.2812 119.592 42.4162 119.834 42.5298C120.078 42.6463 120.398 42.7045 120.793 42.7045C121.321 42.7045 121.757 42.5767 122.101 42.321C122.445 42.0653 122.617 41.6648 122.617 41.1193V39.7898H122.531C122.457 39.9091 122.352 40.0568 122.216 40.233C122.082 40.4062 121.889 40.5611 121.636 40.6974C121.386 40.831 121.048 40.8977 120.622 40.8977C120.094 40.8977 119.619 40.7727 119.199 40.5227C118.781 40.2727 118.45 39.9091 118.206 39.4318C117.965 38.9545 117.844 38.375 117.844 37.6932C117.844 37.0227 117.962 36.4389 118.197 35.9418C118.433 35.4418 118.761 35.0554 119.182 34.7827C119.602 34.5071 120.088 34.3693 120.639 34.3693C121.065 34.3693 121.403 34.4403 121.653 34.5824C121.906 34.7216 122.099 34.8807 122.233 35.0597C122.369 35.2358 122.474 35.3807 122.548 35.4943H122.651V34.4545H123.622V41.1875C123.622 41.75 123.494 42.2074 123.239 42.5597C122.986 42.9148 122.645 43.1747 122.216 43.3395C121.79 43.5071 121.315 43.5909 120.793 43.5909ZM120.759 39.9943C121.162 39.9943 121.503 39.902 121.781 39.7173C122.06 39.5327 122.271 39.267 122.416 38.9205C122.561 38.5739 122.634 38.1591 122.634 37.6761C122.634 37.2045 122.563 36.7884 122.42 36.4276C122.278 36.0668 122.068 35.7841 121.79 35.5795C121.511 35.375 121.168 35.2727 120.759 35.2727C120.332 35.2727 119.977 35.3807 119.693 35.5966C119.412 35.8125 119.2 36.1023 119.058 36.4659C118.919 36.8295 118.849 37.233 118.849 37.6761C118.849 38.1307 118.92 38.5327 119.063 38.8821C119.207 39.2287 119.42 39.5014 119.702 39.7003C119.986 39.8963 120.338 39.9943 120.759 39.9943ZM131.579 34.4545L133.147 37.1307L134.715 34.4545H135.875L133.761 37.7273L135.875 41H134.715L133.147 38.4602L131.579 41H130.42L132.5 37.7273L130.42 34.4545H131.579ZM140.231 41.1534C139.816 41.1534 139.44 41.0753 139.102 40.919C138.764 40.7599 138.495 40.5312 138.296 40.233C138.098 39.9318 137.998 39.5682 137.998 39.142C137.998 38.767 138.072 38.4631 138.22 38.2301C138.368 37.9943 138.565 37.8097 138.812 37.6761C139.059 37.5426 139.332 37.4432 139.63 37.3778C139.931 37.3097 140.234 37.2557 140.538 37.2159C140.936 37.1648 141.258 37.1264 141.505 37.1009C141.755 37.0724 141.937 37.0256 142.051 36.9602C142.167 36.8949 142.225 36.7812 142.225 36.6193V36.5852C142.225 36.1648 142.11 35.8381 141.88 35.6051C141.653 35.3722 141.308 35.2557 140.845 35.2557C140.365 35.2557 139.988 35.3608 139.716 35.571C139.443 35.7812 139.251 36.0057 139.14 36.2443L138.186 35.9034C138.356 35.5057 138.583 35.196 138.868 34.9744C139.154 34.75 139.467 34.5937 139.805 34.5057C140.146 34.4148 140.481 34.3693 140.811 34.3693C141.021 34.3693 141.262 34.3949 141.535 34.446C141.811 34.4943 142.076 34.5952 142.332 34.7486C142.591 34.902 142.805 35.1335 142.975 35.4432C143.146 35.7528 143.231 36.1676 143.231 36.6875V41H142.225V40.1136H142.174C142.106 40.2557 141.993 40.4077 141.833 40.5696C141.674 40.7315 141.463 40.8693 141.198 40.983C140.934 41.0966 140.612 41.1534 140.231 41.1534ZM140.385 40.25C140.782 40.25 141.118 40.1719 141.39 40.0156C141.666 39.8594 141.873 39.6577 142.012 39.4105C142.154 39.1634 142.225 38.9034 142.225 38.6307V37.7102C142.183 37.7614 142.089 37.8082 141.944 37.8509C141.802 37.8906 141.637 37.9261 141.45 37.9574C141.265 37.9858 141.085 38.0114 140.909 38.0341C140.735 38.054 140.595 38.071 140.487 38.0852C140.225 38.1193 139.981 38.1747 139.754 38.2514C139.529 38.3253 139.348 38.4375 139.208 38.5881C139.072 38.7358 139.004 38.9375 139.004 39.1932C139.004 39.5426 139.133 39.8068 139.392 39.9858C139.653 40.1619 139.984 40.25 140.385 40.25ZM147.068 37.0625V41H146.062V34.4545H147.034V35.4773H147.119C147.272 35.1449 147.505 34.8778 147.818 34.6761C148.13 34.4716 148.534 34.3693 149.028 34.3693C149.471 34.3693 149.859 34.4602 150.191 34.642C150.524 34.821 150.782 35.0938 150.967 35.4602C151.152 35.8239 151.244 36.2841 151.244 36.8409V41H150.238V36.9091C150.238 36.3949 150.105 35.9943 149.838 35.7074C149.571 35.4176 149.204 35.2727 148.738 35.2727C148.417 35.2727 148.13 35.3423 147.878 35.4815C147.628 35.6207 147.43 35.8239 147.285 36.0909C147.14 36.358 147.068 36.6818 147.068 37.0625ZM155.083 37.0625V41H154.077V32.2727H155.083V35.4773H155.168C155.322 35.1392 155.552 34.8707 155.858 34.6719C156.168 34.4702 156.58 34.3693 157.094 34.3693C157.54 34.3693 157.931 34.4588 158.266 34.6378C158.601 34.8139 158.861 35.0852 159.046 35.4517C159.233 35.8153 159.327 36.2784 159.327 36.8409V41H158.322V36.9091C158.322 36.3892 158.187 35.9872 157.917 35.7031C157.65 35.4162 157.279 35.2727 156.805 35.2727C156.475 35.2727 156.18 35.3423 155.918 35.4815C155.66 35.6207 155.455 35.8239 155.305 36.0909C155.157 36.358 155.083 36.6818 155.083 37.0625Z" fill="#2E2E2E"/>
<defs>
<linearGradient id="paint0_linear_11_3588" x1="41.1549" y1="28.6675" x2="17.7084" y2="0.850404" gradientUnits="userSpaceOnUse">
<stop stop-color="#83B228"/>
<stop offset="0.43" stop-color="#6BA415"/>
<stop offset="0.98" stop-color="#2C710D"/>
</linearGradient>
<linearGradient id="paint1_linear_11_3588" x1="30.4516" y1="19.5289" x2="37.1838" y2="31.9097" gradientUnits="userSpaceOnUse">
<stop stop-color="#BAC64E"/>
<stop offset="0.43" stop-color="#6BA415"/>
<stop offset="0.56" stop-color="#508E12"/>
<stop offset="0.7" stop-color="#3C7E0F"/>
<stop offset="0.84" stop-color="#30740E"/>
<stop offset="0.98" stop-color="#2C710D"/>
</linearGradient>
<linearGradient id="paint2_linear_11_3588" x1="23.957" y1="2.16116" x2="20.1502" y2="9.67672" gradientUnits="userSpaceOnUse">
<stop stop-color="#A5C94C"/>
<stop offset="0.43" stop-color="#6BA415"/>
<stop offset="0.56" stop-color="#508E12"/>
<stop offset="0.7" stop-color="#3C7E0F"/>
<stop offset="0.84" stop-color="#30740E"/>
<stop offset="0.98" stop-color="#2C710D"/>
</linearGradient>
<linearGradient id="paint3_linear_11_3588" x1="16.7706" y1="7.27266" x2="11.2937" y2="43.9306" gradientUnits="userSpaceOnUse">
<stop stop-color="#83B228"/>
<stop offset="0.43" stop-color="#6BA415"/>
<stop offset="0.98" stop-color="#2C710D"/>
</linearGradient>
<linearGradient id="paint4_linear_11_3588" x1="16.2797" y1="21.5566" x2="23.476" y2="9.40044" gradientUnits="userSpaceOnUse">
<stop stop-color="#BAC64E"/>
<stop offset="0.43" stop-color="#6BA415"/>
<stop offset="0.56" stop-color="#508E12"/>
<stop offset="0.7" stop-color="#3C7E0F"/>
<stop offset="0.84" stop-color="#30740E"/>
<stop offset="0.98" stop-color="#2C710D"/>
</linearGradient>
<linearGradient id="paint5_linear_11_3588" x1="2.42398" y1="32.7539" x2="9.44725" y2="38.3939" gradientUnits="userSpaceOnUse">
<stop stop-color="#83B228"/>
<stop offset="0.43" stop-color="#6BA415"/>
<stop offset="0.51" stop-color="#5D9913"/>
<stop offset="0.69" stop-color="#428310"/>
<stop offset="0.85" stop-color="#32760E"/>
<stop offset="0.98" stop-color="#2C710D"/>
</linearGradient>
<linearGradient id="paint6_linear_11_3588" x1="15.4782" y1="40.2646" x2="43.8206" y2="22.0234" gradientUnits="userSpaceOnUse">
<stop stop-color="#83B228"/>
<stop offset="0.36" stop-color="#6BA415"/>
<stop offset="0.41" stop-color="#649E14"/>
<stop offset="0.64" stop-color="#458510"/>
<stop offset="0.84" stop-color="#33760E"/>
<stop offset="0.98" stop-color="#2C710D"/>
</linearGradient>
<linearGradient id="paint7_linear_11_3588" x1="24.5941" y1="33.0345" x2="10.1708" y2="32.517" gradientUnits="userSpaceOnUse">
<stop stop-color="#BAC64E"/>
<stop offset="0.43" stop-color="#6BA415"/>
<stop offset="0.56" stop-color="#508E12"/>
<stop offset="0.7" stop-color="#3C7E0F"/>
<stop offset="0.84" stop-color="#30740E"/>
<stop offset="0.98" stop-color="#2C710D"/>
</linearGradient>
<linearGradient id="paint8_linear_11_3588" x1="41.4928" y1="40.4545" x2="42.4052" y2="27.6928" gradientUnits="userSpaceOnUse">
<stop offset="0.16" stop-color="#83B228"/>
<stop offset="0.39" stop-color="#6BA415"/>
<stop offset="0.98" stop-color="#2A660A"/>
</linearGradient>
<clipPath id="clip0_11_3588">
<rect width="47.7588" height="43.3037" fill="white"/>
</clipPath>
</defs>
</svg>
