<svg width="118" height="36" viewBox="0 0 118 36" fill="none" xmlns="http://www.w3.org/2000/svg">
<path d="M87.4869 34.1041L97.2981 23.28L87.4869 12.4543H97.8388L102.698 17.7127L107.377 12.4543H117.368L107.604 23.2353L117.502 34.1041H107.108L102.293 28.8025L97.5227 34.1041H87.4869Z" fill="#FF6600"/>
<path d="M87.4868 7.60128H76.3748V12.4544H87.4868V19.7684H76.3748V26.4817H87.4868V34.1041H68.2075V0H87.4868V7.60128Z" fill="#FF6600"/>
<path d="M60.0747 0V13.957H59.9852C58.1847 11.925 55.9351 11.2189 53.3248 11.2189C47.978 11.2189 43.9504 14.7877 42.5366 19.5062C40.9243 14.3071 36.7663 11.1214 30.6005 11.1214C25.5934 11.1214 21.6394 13.3282 19.576 16.9242V12.4549H9.22609V7.60229H20.5207V0H0V34.1046H9.22609V19.7684H18.422C18.1478 20.8215 18.0015 21.9491 18.0015 23.1388C18.0015 30.253 23.5366 35.2446 30.6005 35.2446C36.5407 35.2446 40.4553 32.5065 42.5258 27.5143H34.6194C33.5499 29.014 32.7386 29.4594 30.6005 29.4594C28.1212 29.4594 25.9836 27.3355 25.9836 24.8178H42.0829C42.7811 30.4684 47.264 35.3416 53.4159 35.3416C56.0696 35.3416 58.4993 34.0599 59.9852 31.8958H60.0747V34.1036H68.2077V0H60.0747ZM26.2404 19.8703C26.7535 17.7042 28.4645 16.2884 30.6005 16.2884C32.9519 16.2884 34.576 17.6605 35.0031 19.8703C35.1831 19.8703 26.2404 19.8703 26.2404 19.8703ZM55.1391 28.9115C52.1412 28.9115 50.2783 26.1688 50.2783 23.3051C50.2783 20.244 51.8987 17.3004 55.1391 17.3004C58.4993 17.3004 59.8379 20.244 59.8379 23.3051C59.8374 26.208 58.4189 28.9115 55.1391 28.9115Z" fill="#652C8F"/>
</svg>
