<svg width="155" height="22" viewBox="0 0 155 22" fill="none" xmlns="http://www.w3.org/2000/svg">
<path fill-rule="evenodd" clip-rule="evenodd" d="M26.7848 17.402C26.7848 20.5104 28.5205 22 31.9927 22C34.8449 22 37.5728 21.0072 39.805 18.8934C39.805 20.7579 41.0451 21.7507 43.5251 21.7507H46.5017C47.1217 21.626 47.7417 21.131 48.1139 20.5095L49.1061 18.0235L47.8661 18.2719C46.8739 18.2719 46.626 17.6504 47.246 16.6558L52.454 6.71184L52.7018 5.84191L51.8339 4.97199C49.3539 4.22584 46.8739 3.729 44.146 3.729C38.5659 3.729 34.2258 5.46972 31.0023 8.70099C28.2727 11.6847 26.7848 14.5429 26.7848 17.402ZM36.5797 10.5655C38.1919 8.94941 40.052 8.07948 41.912 8.07948C43.772 8.07948 44.6399 8.70099 44.1442 9.82021L43.5242 10.5664C42.9042 12.0587 41.6642 13.5492 40.3007 14.7922C38.812 16.1599 37.3241 16.7814 35.9606 16.7814C34.7206 16.7814 34.1006 16.1599 34.1006 15.1653C34.0997 13.6721 34.8441 12.3053 36.5797 10.5655ZM25.7926 12.3053C23.0647 14.1698 19.3447 15.1644 14.6324 15.1644H12.7724C11.9046 15.1644 11.7802 14.7913 12.1524 13.9214L13.3924 11.187H14.8811C19.2212 11.187 21.2047 9.82021 21.2047 7.08491C21.2047 5.22041 19.8403 4.22584 16.8646 4.22584C15.8724 4.22584 15.0046 4.59891 14.8803 5.22041L6.94359 20.3857C6.57141 21.1318 5.9514 21.6269 5.33139 21.6269H0.620011C0.124355 21.6269 0 21.3785 0 20.7588V20.1373L9.30016 1.74073C9.67234 1.11923 10.2924 0.621501 10.9124 0.621501L18.6003 0C25.4204 0 28.8918 2.36134 28.8918 6.71184C28.8918 8.94941 27.9005 10.8148 25.7926 12.3053ZM72.2925 5.59349L71.4247 9.32249H69.4403C65.1002 9.32249 61.5036 12.0578 58.6523 17.6504L57.4123 20.3857C56.7923 21.1318 56.4201 21.6269 55.8001 21.6269H51.46C50.84 21.6269 50.3443 21.3785 50.3443 21.0072L50.84 20.1373L57.7845 5.46972C58.0323 4.5998 58.6523 4.22673 59.6445 4.22673H63.2411C64.2333 4.22673 64.4811 4.5998 63.8611 5.59438L63.2411 7.08579C65.7211 4.84822 68.2012 3.72988 70.6812 3.72988C71.9212 3.72988 72.5412 4.22672 72.5412 4.84911L72.2925 5.59349ZM77.5004 4.97199C77.9038 4.83951 78.2523 4.57721 78.4918 4.22584L79.3596 2.11292C79.7318 1.49142 80.3518 1.11834 81.2196 1.11834L85.5606 0.496849C86.5528 0.248426 86.925 0.621501 86.3049 1.73985L85.3128 3.97653C84.9406 4.59803 84.9406 4.84645 85.5606 4.97111H89.0319C89.6519 4.84645 89.8998 4.97111 89.8998 5.59261L88.7832 7.45711C88.6589 8.07861 88.0389 8.57545 87.1728 8.7001H83.4518C83.0797 8.57545 82.584 8.7001 82.4596 9.3216L79.9796 14.1689C78.8631 16.4065 79.3596 17.4011 81.344 17.4011L84.3206 17.028L84.4449 19.7633C84.6927 20.3848 84.3206 21.0063 83.4527 21.131L77.5004 21.9991C73.9047 21.9991 72.2925 20.5086 72.2925 17.6495L73.1604 14.5411L75.6404 9.56914C76.0126 8.94764 75.7648 8.69922 75.1448 8.69922H72.5412L73.7813 6.08945C74.4013 5.21953 75.0213 4.84645 75.6413 4.97022H77.5004V4.97199ZM127.1 10.4417L121.893 11.187C122.886 8.57633 124.744 7.33422 127.72 7.33422C128.713 7.33422 129.333 7.7073 129.333 8.70099C129.333 9.32249 128.465 9.94399 127.1 10.4417ZM120.405 15.7859C120.28 15.4128 120.405 15.1644 121.025 15.1644L131.441 13.5483C133.672 12.6784 134.913 11.0623 134.913 8.70099C134.913 5.22042 132.806 3.60434 128.465 3.60434C124.62 3.60434 121.025 4.97199 117.925 7.95483C115.072 10.5655 113.585 13.299 113.585 16.0343C113.585 19.888 116.312 22 121.893 22C124.993 22 127.72 21.6269 130.201 20.7588C130.821 20.5103 131.194 20.1373 131.194 19.5158L130.821 16.4074C128.713 17.0289 126.48 17.402 124.124 17.6504C121.646 17.402 120.405 16.7805 120.405 15.7859ZM112.841 7.45799C112.841 8.57633 112.593 9.57091 111.973 10.8148L109.121 16.6558C108.501 17.6504 108.625 18.2719 109.741 18.2719L110.981 18.0235L109.864 20.5095C109.74 21.131 109.12 21.6269 108.252 21.7507L105.402 21.9991C103.913 21.9991 102.922 21.626 102.301 20.5086C101.681 19.514 101.681 18.0226 102.673 16.4056L104.905 11.6829C106.02 9.81756 105.525 8.94764 104.161 8.94764C102.672 8.94764 100.812 9.81756 98.9521 11.6829C97.0921 13.2972 95.6051 15.4111 94.6129 17.6486L93.1242 20.3839C92.752 21.1301 92.132 21.6252 91.512 21.6252H87.1728C86.5528 21.6252 86.1806 21.3767 86.3049 21.0054L86.5528 20.1355L93.9929 5.46796C94.3651 4.59804 94.9851 4.22495 95.6051 4.22495H99.8199C100.564 4.22495 100.812 4.59803 100.192 5.59261L99.5721 6.83561H99.8199C102.921 4.84646 105.771 3.72811 108.624 3.72811C111.353 3.729 112.841 4.97199 112.841 7.45799ZM151.9 9.32249C147.561 9.32249 143.964 12.0578 141.362 17.6504L139.873 20.3857C139.625 21.1318 139.005 21.6269 138.261 21.6269H134.044C133.424 21.6269 133.052 21.3785 133.052 21.0072L133.3 20.1373L140.493 5.46972C140.741 4.5998 141.361 4.22673 142.103 4.22673H145.7C146.692 4.22673 146.94 4.5998 146.32 5.59438L145.7 7.08579C148.18 4.84822 150.661 3.72988 153.14 3.72988C154.38 3.72988 155 4.22672 155 4.84911V5.59526L153.883 9.32426H151.9V9.32249Z" fill="black"/>
</svg>
