<svg width="122" height="38" viewBox="0 0 122 38" fill="none" xmlns="http://www.w3.org/2000/svg">
<g clip-path="url(#clip0_25_183)">
<path fill-rule="evenodd" clip-rule="evenodd" d="M75.1755 29.3263C68.1337 34.6563 57.9271 37.5001 49.1394 37.5001C36.8176 37.5001 25.7249 32.8201 17.3328 25.0362C16.6734 24.4241 17.2642 23.59 18.0554 24.0666C27.1121 29.478 38.3104 32.7334 49.8779 32.7334C57.6792 32.7334 66.2612 31.0759 74.1522 27.6363C75.3443 27.1163 76.3412 28.4379 75.1755 29.3263Z" fill="#FF9900"/>
<path fill-rule="evenodd" clip-rule="evenodd" d="M78.1033 25.8865C77.2066 24.7057 72.1534 25.3286 69.8853 25.6049C69.1943 25.6915 69.0888 25.074 69.7112 24.6298C73.7358 21.7211 80.3398 22.5607 81.1099 23.5357C81.88 24.5161 80.9094 31.3141 77.1275 34.5587C76.5472 35.057 75.9934 34.7916 76.2519 34.1308C77.1011 31.9533 79.0053 27.0728 78.1033 25.8865Z" fill="#FF9900"/>
<path fill-rule="evenodd" clip-rule="evenodd" d="M70.0433 4.09503V1.2675C70.0433 0.839576 70.3598 0.55249 70.7396 0.55249H83.0667C83.4623 0.55249 83.7787 0.844994 83.7787 1.2675V3.68877C83.7735 4.09503 83.4412 4.62587 82.8504 5.46546L76.4627 14.831C78.8363 14.7714 81.3418 15.1343 83.4939 16.3802C83.9792 16.6618 84.1111 17.0735 84.148 17.4798V20.4969C84.148 20.9085 83.7049 21.3906 83.2407 21.1415C79.4482 19.0994 74.4108 18.8773 70.2174 21.1631C69.7901 21.4015 69.3418 20.9248 69.3418 20.5131V17.6477C69.3418 17.1873 69.3471 16.4018 69.7954 15.7031L77.1959 4.80462H70.7554C70.3598 4.80462 70.0433 4.51753 70.0433 4.09503Z" fill="black"/>
<path fill-rule="evenodd" clip-rule="evenodd" d="M25.0761 21.7374H21.3257C20.9671 21.7103 20.6822 21.4341 20.6559 21.082V1.31638C20.6559 0.920958 20.9776 0.606786 21.3785 0.606786H24.8756C25.2396 0.623025 25.5297 0.910121 25.5561 1.26762V3.8514H25.6247C26.5372 1.35429 28.2515 0.189697 30.5618 0.189697C32.9091 0.189697 34.3754 1.35429 35.4304 3.8514C36.3376 1.35429 38.4001 0.189697 40.6102 0.189697C42.182 0.189697 43.9016 0.855954 44.9513 2.35097C46.1381 4.0139 45.8955 6.42976 45.8955 8.5477L45.8902 21.0224C45.8902 21.4178 45.5684 21.7374 45.1675 21.7374H41.4225C41.048 21.7103 40.7473 21.4016 40.7473 21.0224V10.5465C40.7473 9.71229 40.8212 7.63227 40.6418 6.84143C40.3623 5.51434 39.5236 5.14058 38.437 5.14058C37.5297 5.14058 36.5803 5.7635 36.1952 6.76018C35.8102 7.75686 35.8471 9.4252 35.8471 10.5465V21.0224C35.8471 21.4178 35.5253 21.7374 35.1244 21.7374H31.3794C30.9996 21.7103 30.7042 21.4016 30.7042 21.0224L30.699 10.5465C30.699 8.34186 31.0524 5.09725 28.3886 5.09725C25.6932 5.09725 25.7987 8.26061 25.7987 10.5465V21.0224C25.7987 21.4178 25.477 21.7374 25.0761 21.7374" fill="black"/>
<path fill-rule="evenodd" clip-rule="evenodd" d="M94.3912 0.189697C99.9561 0.189697 102.968 5.09725 102.968 11.3373C102.968 17.3661 99.6396 22.1491 94.3912 22.1491C88.9266 22.1491 85.9516 17.2415 85.9516 11.1261C85.9516 4.97266 88.9635 0.189697 94.3912 0.189697ZM94.4229 4.22516C91.6589 4.22516 91.4849 8.09269 91.4849 10.5031C91.4849 12.919 91.4479 18.0757 94.3912 18.0757C97.2976 18.0757 97.4348 13.9157 97.4348 11.3806C97.4348 9.7123 97.3662 7.71894 96.8756 6.13726C96.4537 4.76141 95.615 4.22516 94.4229 4.22516Z" fill="black"/>
<path fill-rule="evenodd" clip-rule="evenodd" d="M110.184 21.7374H106.449C106.075 21.7103 105.774 21.4016 105.774 21.0224L105.769 1.25137C105.801 0.888454 106.112 0.606786 106.492 0.606786H109.968C110.295 0.623025 110.564 0.850539 110.638 1.15929V4.18182H110.706C111.756 1.47888 113.227 0.189697 115.817 0.189697C117.5 0.189697 119.14 0.812621 120.195 2.51889C121.176 4.10057 121.176 6.76018 121.176 8.67228V21.1145C121.134 21.4612 120.823 21.7374 120.454 21.7374H116.693C116.35 21.7103 116.065 21.4503 116.028 21.1145V10.3785C116.028 8.21728 116.271 5.05391 113.681 5.05391C112.769 5.05391 111.93 5.68225 111.513 6.63559C110.986 7.84353 110.917 9.04604 110.917 10.3785V21.0224C110.912 21.4178 110.585 21.7374 110.184 21.7374" fill="black"/>
<path fill-rule="evenodd" clip-rule="evenodd" d="M60.2164 12.296C60.2164 13.7964 60.2534 15.0477 59.5149 16.3802C58.9189 17.4635 57.9694 18.1298 56.9197 18.1298C55.4797 18.1298 54.6358 17.0031 54.6358 15.3402C54.6358 12.0576 57.5 11.4618 60.2164 11.4618V12.296ZM63.9984 21.6831C63.7505 21.9106 63.3918 21.9269 63.1123 21.7752C61.8674 20.7136 61.6406 20.2206 60.9602 19.2077C58.903 21.3636 57.4419 22.0082 54.7782 22.0082C51.6186 22.0082 49.1659 20.0094 49.1659 16.0064C49.1659 12.881 50.8116 10.7522 53.1641 9.71219C55.2002 8.79134 58.0433 8.62884 60.2164 8.37426V7.87592C60.2164 6.96049 60.285 5.87714 59.7575 5.08631C59.3039 4.37671 58.4283 4.08421 57.6529 4.08421C56.2235 4.08421 54.9523 4.83713 54.6411 6.39715C54.5778 6.74382 54.3298 7.08508 53.987 7.10133L50.3527 6.70049C50.0468 6.63007 49.7039 6.37548 49.7936 5.8934C50.627 1.36502 54.6147 0 58.1804 0C60.0055 0 62.3896 0.49834 63.8296 1.91752C65.6547 3.66712 65.4806 6.00173 65.4806 8.54218V14.5439C65.4806 16.3477 66.2085 17.1385 66.8943 18.1135C67.1316 18.4602 67.1844 18.8773 66.8784 19.1373C66.1136 19.7927 64.7527 21.0115 64.0037 21.694L63.9984 21.6831" fill="black"/>
<path fill-rule="evenodd" clip-rule="evenodd" d="M11.0506 12.2962C11.0506 13.7966 11.0875 15.0479 10.349 16.3804C9.75298 17.4638 8.8088 18.13 7.75386 18.13C6.31385 18.13 5.47517 17.0033 5.47517 15.3404C5.47517 12.0579 8.33935 11.462 11.0506 11.462V12.2962ZM14.8325 21.6834C14.5846 21.9109 14.226 21.9271 13.9464 21.7755C12.7016 20.7138 12.48 20.2209 11.7943 19.2079C9.73715 21.3638 8.28133 22.0084 5.61231 22.0084C2.45802 22.0084 0 20.0096 0 16.0067C0 12.8812 1.65099 10.7524 3.99825 9.71243C6.03429 8.79158 8.87737 8.62908 11.0506 8.3745V7.87616C11.0506 6.96073 11.1191 5.87739 10.5969 5.08655C10.138 4.37696 9.26243 4.08445 8.49232 4.08445C7.06287 4.08445 5.78638 4.83738 5.47517 6.39739C5.41187 6.74407 5.16396 7.08532 4.82638 7.10157L1.18682 6.70073C0.88088 6.63031 0.543297 6.37573 0.627692 5.89364C1.46638 1.36526 5.4488 0.000244141 9.01452 0.000244141C10.8396 0.000244141 13.2238 0.498584 14.6638 1.91776C16.4888 3.66736 16.3147 6.00197 16.3147 8.54242V14.5441C16.3147 16.3479 17.0427 17.1388 17.7284 18.1138C17.971 18.4604 18.0238 18.8775 17.7178 19.1375C16.953 19.7929 15.5921 21.0117 14.8431 21.6942L14.8326 21.6834" fill="black"/>
</g>
<defs>
<clipPath id="clip0_25_183">
<rect width="121.176" height="37.5" fill="white"/>
</clipPath>
</defs>
</svg>
