<svg width="132" height="46" viewBox="0 0 132 46" fill="none" xmlns="http://www.w3.org/2000/svg">
<path fill-rule="evenodd" clip-rule="evenodd" d="M129.578 5.09322C130.898 5.09322 131.842 4.14963 131.842 2.82933C131.842 1.50902 130.898 0.377438 129.578 0.377438C128.257 0.377438 127.126 1.50902 127.126 2.82933C127.126 4.14963 128.257 5.09322 129.578 5.09322ZM127.503 2.82933C127.503 1.69774 128.447 0.754871 129.578 0.754871C130.71 0.754871 131.464 1.69774 131.464 2.82933C131.464 3.77292 130.71 4.71506 129.578 4.71506C128.447 4.71506 127.503 3.77292 127.503 2.82933ZM0.376713 18.1075H2.07445V4.33835H0.187995V0H10.9391L14.5226 3.5842V10.185L11.1279 13.5805H6.78951V18.1075H8.48725V22.6339H0.376713V18.1075ZM6.78951 9.24212H9.99627V4.52707H6.78951V9.24212ZM21.1241 0H26.9708L30.743 3.77219V18.1068H32.0633V22.6332H24.5196V18.1068H26.0279V14.5226H22.067V18.1068H23.576V22.6332H16.0316V18.1068H17.3519V3.77292L21.1241 0ZM22.0677 10.3744H26.0286V4.52707H22.0677V10.3744ZM64.5054 4.52707V9.24212H68.0896V0H52.4347V9.24212H56.0189V4.52707H57.7166V18.1075H56.0189V22.6339H64.5061V18.1075H62.8084V4.52707H64.5054ZM76.3882 18.1075V11.694L82.0468 22.6339H86.7619V4.52707H88.4596V0.00072266H80.1611V4.52707H81.8588V10.9399L76.2002 0.00072266H69.9768V4.71578H71.4851V18.2963H69.7874V22.6346H78.0859V18.1083L76.3882 18.1075ZM102.229 8.86541H106.944V0.00072266H91.6664V4.52707H93.3641V18.1075H91.6664V22.6339H106.944V13.7692H102.229V18.1075H98.2672V13.3925H101.475V9.24284H98.2672V4.52779H102.229V8.86541ZM50.1715 4.14963V9.05341L46.9648 11.5053L50.1715 13.9572V18.1068L52.0573 18.2955V22.6339H48.6625L44.8903 18.673V13.5805H42.061V18.1075H43.3813V22.6339H35.082V18.1075H36.7798V4.52707H35.082V0.00072266H46.5873L50.1715 4.14963ZM41.8723 9.24212H44.8903V4.52707H41.8723V9.24212ZM128.257 25.2745H0L0.188718 32.0647H128.258V25.2745H128.257ZM126.183 4.14963V9.05341L123.165 11.5053L126.183 13.9572V18.1068L128.069 18.2955V22.6339H124.675L120.901 18.673V13.5805H118.072V18.1075H119.393V22.6339H111.282V18.1075H112.98V4.52707H111.282V0.00072266H122.787L126.183 4.14963ZM118.072 9.24212H120.901V4.52707H118.072V9.24212ZM130.144 2.82933C130.521 2.64061 130.521 2.45261 130.521 2.07518C130.521 1.69846 130.144 1.32103 129.954 1.32103H128.634V4.15035H129.2V3.01805H129.577C130.521 3.01805 129.766 4.14963 130.331 4.14963H130.709V3.96091C130.71 3.96091 130.71 3.01804 130.144 2.82933ZM129.201 2.45261V1.69846H129.767C129.955 1.69846 130.144 1.88718 130.144 2.07518C130.144 2.26317 129.954 2.45261 129.767 2.45261H129.201Z" fill="#EAC13D"/>
<path fill-rule="evenodd" clip-rule="evenodd" d="M0 37.5339H1.69702V45.2678H0V37.5339ZM3.20676 37.5339H4.90378L8.11054 42.8159V37.5339H9.80755V45.2678H8.11054L4.90378 40.1745V45.2678H3.20676V37.5339ZM11.1279 37.5339H14.5226C16.5971 37.5339 18.1068 38.855 18.1068 41.4956C18.1068 43.5707 16.9752 45.2685 14.5226 45.2685H11.1279V37.5339ZM12.8256 43.9475H14.3346C15.4662 43.9475 16.4091 43.1926 16.4091 41.4948C16.4091 39.9858 15.8436 39.043 14.1459 39.043H12.8256V43.9475ZM25.6512 42.4384C25.6512 44.5129 24.5196 45.4565 22.4444 45.4565C20.37 45.4565 19.2377 44.5129 19.2377 42.4384V37.5339H20.9354V42.4384C20.9354 43.1926 21.1241 44.1362 22.4444 44.1362C23.576 44.1362 23.9535 43.5707 23.9535 42.4384V37.5339H25.6512V42.4384ZM28.2918 42.8159C28.2918 43.7595 29.0459 44.1362 29.9895 44.1362C30.555 44.1362 31.4978 43.9475 31.4978 43.1926C31.4978 42.4384 30.3663 42.249 29.2347 41.8723C28.1031 41.6836 26.9708 41.1181 26.9708 39.7978C26.9708 38.1001 28.4798 37.3459 29.8008 37.3459C31.4978 37.3459 33.0076 38.1001 33.0076 39.9858H31.3098C31.3098 39.043 30.5557 38.6662 29.8015 38.6662C29.2354 38.6662 28.67 39.043 28.67 39.6091C28.67 40.1753 29.0467 40.364 30.9331 40.7407C31.4986 40.9294 33.1963 41.3061 33.1963 43.0039C33.1963 44.5129 32.0647 45.4565 29.9903 45.4565C28.2925 45.4565 26.5955 44.7016 26.7835 42.8159H28.2918ZM35.8362 39.0437H33.573V37.5339H39.7978V39.0437H37.5339V45.2678H35.8362V39.0437ZM40.74 37.5339H44.8896C46.2099 37.5339 47.1528 38.6662 47.1528 39.7978C47.1528 40.5527 46.776 41.3068 46.0212 41.6836C46.7753 41.8723 46.964 42.6272 47.1528 43.57C47.1528 43.9467 47.1528 44.8896 47.3415 45.2678H45.6445C45.4557 44.8903 45.4557 44.1362 45.4557 43.382C45.267 42.6272 45.0783 42.2497 44.1354 42.2497H42.4377V45.2685H40.74V37.5339ZM42.4377 41.1181H44.3242C45.0783 41.1181 45.4557 40.7414 45.4557 39.9865C45.4557 39.2324 45.0783 38.8557 44.3242 38.8557H42.4377V41.1181ZM48.4738 37.5339H50.1715V45.2678H48.4738V37.5339ZM53.755 37.5339H55.6415L58.4708 45.2678H56.7723L56.0182 43.57H53.1888L52.6227 45.2678H50.9257L53.755 37.5339ZM53.755 42.2497H55.6415L54.6979 39.4211L53.755 42.2497ZM59.0362 37.5339H60.734V43.9475H64.5054V45.2678H59.0362V37.5339ZM68.4663 37.5339H72.0505C73.9355 37.5339 74.6911 38.855 74.6911 40.1745C74.6911 41.3061 73.9355 42.6272 72.0505 42.6272H70.1641V45.2678H68.4663V37.5339ZM70.1641 41.3068H71.4844C72.2385 41.3068 72.9927 41.1181 72.9927 40.1753C72.9927 39.0444 72.2385 38.8557 71.4844 38.8557H70.1641V41.3068ZM75.634 37.5339H79.7829C81.2927 37.5339 82.0468 38.6662 82.0468 39.7978C82.0468 40.5527 81.6701 41.3068 80.9159 41.6836C81.6701 41.8723 81.8595 42.6272 82.0468 43.57C82.0468 43.9467 82.0468 44.8896 82.2362 45.2678H80.5385C80.3491 44.8903 80.3491 44.1362 80.3491 43.382C80.1611 42.6272 79.9723 42.2497 79.0288 42.2497H77.331V45.2685H75.6333L75.634 37.5339ZM77.331 41.1181H79.2175C79.9716 41.1181 80.3483 40.7414 80.3483 39.9865C80.3483 39.2324 79.9716 38.8557 79.2175 38.8557H77.331V41.1181ZM86.9513 37.3459C89.2137 37.3459 90.7235 39.2317 90.7235 41.4948C90.7235 43.7587 89.2137 45.4565 86.9513 45.4565C84.4994 45.4565 83.1791 43.7587 83.1791 41.4948C83.1791 39.2324 84.4994 37.3459 86.9513 37.3459ZM86.9513 44.1362C88.4596 44.1362 89.0258 42.8159 89.0258 41.4956C89.0258 40.1753 88.4596 38.8557 86.9513 38.8557C85.4416 38.8557 84.8769 40.1753 84.8769 41.4956C84.8769 42.8159 85.4416 44.1362 86.9513 44.1362ZM91.8544 37.5339H95.2491C97.1356 37.5339 98.6453 38.855 98.6453 41.4956C98.6453 43.5707 97.513 45.2685 95.2491 45.2685H91.8544V37.5339ZM93.5521 43.9475H95.0618C96.0054 43.9475 96.9469 43.1926 96.9469 41.4948C96.9469 39.9858 96.3822 39.043 94.6844 39.043H93.5521V43.9475ZM106.378 42.4384C106.378 44.5129 105.057 45.4565 103.172 45.4565C101.097 45.4565 99.7769 44.5129 99.7769 42.4384V37.5339H101.475V42.4384C101.475 43.1926 101.663 44.1362 103.172 44.1362C104.303 44.1362 104.681 43.5707 104.681 42.4384V37.5339H106.378L106.378 42.4384ZM112.98 40.1745C112.79 39.4204 112.036 38.855 111.282 38.855C109.772 38.855 109.208 40.1745 109.208 41.4948C109.208 42.8151 109.772 44.1354 111.282 44.1354C111.505 44.1364 111.727 44.0931 111.933 44.0082C112.139 43.9232 112.327 43.7982 112.485 43.6403C112.643 43.4825 112.768 43.2949 112.853 43.0885C112.938 42.8821 112.981 42.6609 112.98 42.4377H114.678C114.488 44.3234 113.168 45.4557 111.283 45.4557C108.831 45.4557 107.511 43.758 107.511 41.4941C107.511 39.2309 108.831 37.3452 111.283 37.3452C112.981 37.3452 114.301 38.4761 114.678 40.1738H112.98V40.1745ZM117.506 39.0437H115.244V37.5339H121.467V39.0437H119.203V45.2678H117.506V39.0437ZM123.542 42.8159C123.542 43.7595 124.296 44.1362 125.239 44.1362C125.806 44.1362 126.749 43.9475 126.749 43.1926C126.749 42.4384 125.617 42.249 124.485 41.8723C123.354 41.6836 122.221 41.1181 122.221 39.7978C122.221 38.1001 123.731 37.3459 125.051 37.3459C126.749 37.3459 128.069 38.1001 128.069 39.9858H126.56C126.372 39.043 125.806 38.6662 125.051 38.6662C124.485 38.6662 123.731 39.043 123.731 39.6091C123.731 40.1753 124.108 40.364 126.183 40.7407C126.749 40.9294 128.447 41.3061 128.447 43.0039C128.447 44.5129 127.315 45.4565 125.239 45.4565C123.542 45.4565 121.845 44.7016 121.845 42.8159H123.542Z" fill="#0C0E0F"/>
</svg>
